<svg width="30" height="31" viewBox="0 0 30 31" fill="none" xmlns="http://www.w3.org/2000/svg">
<mask id="mask0_1569_28063" style="mask-type:alpha" maskUnits="userSpaceOnUse" x="-1" y="0" width="31" height="31">
<rect x="-0.4" y="0.6" width="29.8" height="29.8" fill="#D9D9D9" stroke="#E12424" stroke-width="0.2"/>
</mask>
<g mask="url(#mask0_1569_28063)">
<g filter="url(#filter0_i_1569_28063)">
<path d="M20.75 9.93359C20.6458 9.93359 20.5417 9.92318 20.4375 9.90234C20.3333 9.88151 20.2292 9.83984 20.125 9.77734L19.0312 9.15234C18.7396 8.98568 18.4219 8.94922 18.0781 9.04297C17.7344 9.13672 17.4792 9.32943 17.3125 9.62109L17.1562 9.87109L18.4062 10.5898C18.8438 10.8398 19.1302 11.2148 19.2656 11.7148C19.401 12.2148 19.3438 12.6836 19.0938 13.1211L18.25 14.6211C18.7292 15.3711 19.0885 16.168 19.3281 17.0117C19.5677 17.8555 19.6875 18.7253 19.6875 19.6211C19.6875 22.2253 18.776 24.4388 16.9531 26.2617C15.1302 28.0846 12.9167 28.9961 10.3125 28.9961C7.70833 28.9961 5.49479 28.0742 3.67188 26.2305C1.84896 24.3867 0.9375 22.1628 0.9375 19.5586C0.9375 16.9544 1.83854 14.7513 3.64063 12.9492C5.44271 11.1471 7.64583 10.2461 10.25 10.2461H10.6562L11.5 8.77734C11.75 8.31901 12.125 8.02214 12.625 7.88672C13.125 7.7513 13.6042 7.81901 14.0625 8.08984L15 8.62109L15.1562 8.37109C15.6354 7.47526 16.3854 6.89193 17.4062 6.62109C18.4271 6.35026 19.3854 6.47526 20.2812 6.99609L21.3438 7.58984C21.5313 7.69401 21.6875 7.84505 21.8125 8.04297C21.9375 8.24089 22 8.45443 22 8.68359C22 9.03776 21.8802 9.33464 21.6406 9.57422C21.401 9.8138 21.1042 9.93359 20.75 9.93359ZM24.5 10.2461C24.5 9.89193 24.6198 9.59505 24.8594 9.35547C25.099 9.11589 25.3958 8.99609 25.75 8.99609H27C27.3542 8.99609 27.651 9.11589 27.8906 9.35547C28.1302 9.59505 28.25 9.89193 28.25 10.2461C28.25 10.6003 28.1302 10.8971 27.8906 11.1367C27.651 11.3763 27.3542 11.4961 27 11.4961H25.75C25.3958 11.4961 25.099 11.3763 24.8594 11.1367C24.6198 10.8971 24.5 10.6003 24.5 10.2461ZM18.875 4.62109C18.5208 4.62109 18.224 4.5013 17.9844 4.26172C17.7448 4.02214 17.625 3.72526 17.625 3.37109V2.12109C17.625 1.76693 17.7448 1.47005 17.9844 1.23047C18.224 0.990885 18.5208 0.871094 18.875 0.871094C19.2292 0.871094 19.526 0.990885 19.7656 1.23047C20.0052 1.47005 20.125 1.76693 20.125 2.12109V3.37109C20.125 3.72526 20.0052 4.02214 19.7656 4.26172C19.526 4.5013 19.2292 4.62109 18.875 4.62109ZM22.8438 6.27734C22.6146 6.04818 22.5 5.75651 22.5 5.40234C22.5 5.04818 22.6146 4.75651 22.8438 4.52734L23.75 3.62109C23.9792 3.39193 24.2708 3.27734 24.625 3.27734C24.9792 3.27734 25.2708 3.39193 25.5 3.62109C25.7292 3.85026 25.8438 4.14193 25.8438 4.49609C25.8438 4.85026 25.7292 5.14193 25.5 5.37109L24.5938 6.27734C24.3646 6.50651 24.0729 6.62109 23.7188 6.62109C23.3646 6.62109 23.0729 6.50651 22.8438 6.27734Z" fill="#EEBE14"/>
</g>
<path d="M17.4316 6.71777C18.3651 6.47013 19.2417 6.56192 20.0664 6.99219L20.2314 7.08301H20.2324L21.2949 7.67676V7.67773C21.4234 7.74912 21.5369 7.84445 21.6348 7.96582L21.7275 8.09668C21.8427 8.27897 21.9004 8.47377 21.9004 8.68359C21.9004 9.01258 21.7902 9.284 21.5703 9.50391C21.3504 9.72381 21.079 9.83398 20.75 9.83398C20.7012 9.83398 20.6524 9.83107 20.6035 9.82617L20.457 9.80469C20.4113 9.79554 20.3651 9.7814 20.3184 9.7627L20.1768 9.69141L20.1748 9.69043L19.0811 9.06543C18.7649 8.88474 18.4194 8.84603 18.0518 8.94629C17.6854 9.04621 17.4083 9.25393 17.2275 9.56836L17.0713 9.81836L17.0166 9.90625L17.1064 9.95801L18.3564 10.6768C18.7184 10.8836 18.9707 11.1794 19.1143 11.5684L19.1689 11.7412C19.2815 12.157 19.254 12.5468 19.0869 12.915L19.0068 13.0713V13.0723L18.1631 14.5723L18.1338 14.624L18.166 14.6748C18.5808 15.324 18.9045 16.0086 19.1377 16.7285L19.2314 17.0391C19.4685 17.8737 19.5879 18.7343 19.5879 19.6211C19.5879 22.038 18.7955 24.1123 17.21 25.8486L16.8828 26.1914C15.0789 27.9954 12.8904 28.8965 10.3125 28.8965C7.89598 28.8965 5.82224 28.0948 4.08594 26.4912L3.74316 26.1602C1.93885 24.3352 1.03711 22.1366 1.03711 19.5586C1.03711 17.1413 1.82056 15.0762 3.3877 13.3584L3.71094 13.0195C5.49381 11.2367 7.67171 10.3457 10.25 10.3457H10.7139L10.7432 10.2959L11.5869 8.82715L11.5879 8.8252C11.7954 8.44485 12.0914 8.18333 12.4795 8.03809L12.6514 7.9834C13.0655 7.87129 13.4627 7.90586 13.8477 8.08887L14.0117 8.17578L14.0137 8.17676L14.9512 8.70801L15.0342 8.75488L15.085 8.67383L15.2412 8.42383L15.2441 8.41797C15.6805 7.6022 16.3466 7.05347 17.248 6.77051L17.4316 6.71777ZM25.75 9.0957H27C27.329 9.0957 27.6004 9.20588 27.8203 9.42578C28.0402 9.64568 28.1504 9.91711 28.1504 10.2461C28.1504 10.534 28.0659 10.7777 27.8975 10.9814L27.8203 11.0664C27.6004 11.2863 27.329 11.3965 27 11.3965H25.75C25.4621 11.3965 25.2184 11.312 25.0146 11.1436L24.9297 11.0664C24.7098 10.8465 24.5996 10.5751 24.5996 10.2461C24.5996 9.9582 24.6841 9.71445 24.8525 9.51074L24.9297 9.42578C25.1496 9.20588 25.421 9.0957 25.75 9.0957ZM24.625 3.37695C24.9141 3.37695 25.1536 3.45815 25.3486 3.61816L25.4297 3.69141C25.6383 3.89999 25.7441 4.16574 25.7441 4.49609C25.7441 4.78516 25.6629 5.02468 25.5029 5.21973L25.4297 5.30078L24.5234 6.20703C24.3149 6.41561 24.0491 6.52148 23.7188 6.52148C23.4297 6.52148 23.1902 6.44028 22.9951 6.28027L22.9141 6.20703C22.7055 5.99845 22.5996 5.7327 22.5996 5.40234C22.5996 5.11327 22.6808 4.87375 22.8408 4.67871L22.9141 4.59766L23.8203 3.69141C24.0289 3.48283 24.2946 3.37695 24.625 3.37695ZM18.875 0.970703C19.1629 0.970703 19.4066 1.05518 19.6104 1.22363L19.6953 1.30078C19.9152 1.52069 20.0254 1.79211 20.0254 2.12109V3.37109C20.0254 3.65899 19.9409 3.90274 19.7725 4.10645L19.6953 4.19141C19.4754 4.41131 19.204 4.52148 18.875 4.52148C18.5871 4.52148 18.3434 4.437 18.1396 4.26855L18.0547 4.19141C17.8348 3.9715 17.7246 3.70008 17.7246 3.37109V2.12109C17.7246 1.8332 17.8091 1.58945 17.9775 1.38574L18.0547 1.30078C18.2746 1.08088 18.546 0.970703 18.875 0.970703Z" stroke="#E12424" stroke-width="0.2"/>
</g>
<defs>
<filter id="filter0_i_1569_28063" x="0.9375" y="-1.12891" width="29.3125" height="30.125" filterUnits="userSpaceOnUse" color-interpolation-filters="sRGB">
<feFlood flood-opacity="0" result="BackgroundImageFix"/>
<feBlend mode="normal" in="SourceGraphic" in2="BackgroundImageFix" result="shape"/>
<feColorMatrix in="SourceAlpha" type="matrix" values="0 0 0 0 0 0 0 0 0 0 0 0 0 0 0 0 0 0 127 0" result="hardAlpha"/>
<feOffset dx="2" dy="-2"/>
<feGaussianBlur stdDeviation="2"/>
<feComposite in2="hardAlpha" operator="arithmetic" k2="-1" k3="1"/>
<feColorMatrix type="matrix" values="0 0 0 0 0.95825 0 0 0 0 0 0 0 0 0 0 0 0 0 0.55 0"/>
<feBlend mode="normal" in2="shape" result="effect1_innerShadow_1569_28063"/>
</filter>
</defs>
</svg>
