<svg width="41" height="40" viewBox="0 0 41 40" fill="none" xmlns="http://www.w3.org/2000/svg">
<path d="M14.2109 35.3975C14.9295 35.3975 15.5117 35.9806 15.5117 36.6992C15.5115 37.4176 14.9294 38 14.2109 38H3.80078C3.08248 37.9998 2.50023 37.4175 2.5 36.6992C2.5 35.9807 3.08234 35.3977 3.80078 35.3975H14.2109ZM21.1504 2C30.7321 2.00011 38.5 9.76787 38.5 19.3496C38.4999 28.9312 30.732 36.6991 21.1504 36.6992C20.1924 36.699 19.415 35.9219 19.415 34.9639V28.2891C19.415 27.1845 18.5196 26.2891 17.415 26.2891H5.80078C4.69641 26.2888 3.80078 25.3935 3.80078 24.2891V19.3496C3.80078 9.76794 11.5688 2.00023 21.1504 2ZM10.7412 30.1924C11.4597 30.1925 12.042 30.7756 12.042 31.4941C12.0419 32.2126 11.4597 32.7948 10.7412 32.7949H3.80078C3.0824 32.7947 2.50009 32.2126 2.5 31.4941C2.5 30.7756 3.08234 30.1926 3.80078 30.1924H10.7412ZM21.1504 7.63867C20.4321 7.6389 19.8488 8.2211 19.8486 8.93945V16.1318C18.5773 16.6467 17.6807 17.8936 17.6807 19.3496C17.6808 21.2657 19.2343 22.8191 21.1504 22.8193C21.6592 22.8193 22.1428 22.7095 22.5781 22.5127C22.6401 22.6424 22.7246 22.7646 22.832 22.8721L25.4346 25.4746C25.9427 25.9827 26.7672 25.9825 27.2754 25.4746C27.7835 24.9665 27.7835 24.1419 27.2754 23.6338L24.6729 21.0312C24.5654 20.9238 24.4432 20.8393 24.3135 20.7773C24.5103 20.3419 24.6201 19.8586 24.6201 19.3496C24.6201 17.8934 23.7228 16.6466 22.4512 16.1318V8.93945C22.451 8.22105 21.8688 7.63882 21.1504 7.63867Z" fill="#B4080B"/>
</svg>
