<svg width="40" height="40" viewBox="0 0 40 40" fill="none" xmlns="http://www.w3.org/2000/svg">
<path d="M32.8933 16.6575C30.9874 9.54461 23.8564 5.27522 16.9658 7.12156C10.0752 8.96789 6.0343 16.2308 7.94019 23.3436C9.84608 30.4565 16.9771 34.7259 23.8677 32.8796C30.7583 31.0332 34.7992 23.7704 32.8933 16.6575Z" fill="#A56402"/>
<path fill-rule="evenodd" clip-rule="evenodd" d="M33.6981 16.4407C31.6796 8.90756 24.1091 4.34368 16.75 6.31553C9.39097 8.28738 5.11665 16.0251 7.13515 23.5582C9.15366 31.0914 16.7242 35.6553 24.0832 33.6834C31.4423 31.7116 35.7166 23.9739 33.6981 16.4407ZM16.9657 7.12047C23.8563 5.27413 30.9873 9.54352 32.8932 16.6564C34.7991 23.7693 30.7582 31.0322 23.8676 32.8785C16.977 34.7248 9.84598 30.4554 7.94009 23.3426C6.0342 16.2297 10.0751 8.9668 16.9657 7.12047Z" fill="#5B3303"/>
<path d="M32.0598 17.4895C30.1539 10.3766 23.0229 6.10725 16.1323 7.95358C9.24171 9.79992 5.20081 17.0628 7.1067 24.1757C9.01259 31.2886 16.1436 35.5579 23.0342 33.7116C29.9248 31.8653 33.9657 24.6024 32.0598 17.4895Z" fill="#FFB423"/>
<path fill-rule="evenodd" clip-rule="evenodd" d="M32.8646 17.2747C30.8461 9.74154 23.2756 5.17766 15.9165 7.14951C8.55748 9.12137 4.28316 16.8591 6.30166 24.3922C8.32016 31.9254 15.8907 36.4893 23.2497 34.5174C30.6088 32.5456 34.8831 24.8079 32.8646 17.2747ZM16.1322 7.95445C23.0228 6.10812 30.1538 10.3775 32.0597 17.4904C33.9656 24.6033 29.9247 31.8661 23.0341 33.7125C16.1435 35.5588 9.01249 31.2894 7.1066 24.1765C5.20071 17.0637 9.24161 9.80078 16.1322 7.95445Z" fill="#5B3303"/>
<path d="M29.6453 18.1379C28.0967 12.3587 22.3366 8.88074 16.7797 10.3697C11.2227 11.8587 7.97327 17.7507 9.52181 23.5299C11.0703 29.3092 16.8305 32.7871 22.3874 31.2981C27.9443 29.8091 31.1938 23.9171 29.6453 18.1379Z" fill="#FFCF23"/>
<path fill-rule="evenodd" clip-rule="evenodd" d="M30.4501 17.9211C28.7905 11.7274 22.5948 7.9477 16.5639 9.56369C10.5329 11.1797 7.05717 17.5508 8.71677 23.7445C10.3764 29.9383 16.572 33.7179 22.603 32.102C28.634 30.486 32.1097 24.1148 30.4501 17.9211ZM16.7796 10.3686C22.3365 8.87965 28.0966 12.3576 29.6452 18.1368C31.1937 23.916 27.9442 29.808 22.3873 31.297C16.8304 32.786 11.0702 29.3081 9.52171 23.5289C7.97317 17.7496 11.2226 11.8576 16.7796 10.3686Z" fill="#DF8D12"/>
<path fill-rule="evenodd" clip-rule="evenodd" d="M27.3185 28.2534C26.1737 29.2736 24.7891 30.0446 23.2207 30.4649C17.6638 31.9539 11.9036 28.476 10.3551 22.6967C9.35584 18.9674 10.3545 15.1912 12.6818 12.5813C9.77062 15.1758 8.41029 19.382 9.52177 23.5301C11.0703 29.3093 16.8304 32.7872 22.3874 31.2982C24.3584 30.7701 26.0392 29.688 27.3185 28.2534Z" fill="#FFDD65"/>
<path d="M26.9096 16.1949C27.0452 15.8976 26.9142 15.5467 26.6168 15.4111C26.3195 15.2754 25.9686 15.4065 25.833 15.7038C25.6973 16.0012 25.8284 16.3521 26.1257 16.4877C26.4231 16.6234 26.774 16.4923 26.9096 16.1949Z" fill="#EEBE14"/>
<path d="M29.2929 18.5836C29.4285 18.2863 29.2975 17.9353 29.0001 17.7997C28.7028 17.6641 28.3519 17.7952 28.2163 18.0925C28.0806 18.3898 28.2117 18.7408 28.509 18.8764C28.8064 19.012 29.1573 18.8809 29.2929 18.5836Z" fill="#EEBE14"/>
<path d="M26.4077 18.8239C26.5433 18.5265 26.4122 18.1756 26.1149 18.04C25.8176 17.9043 25.4666 18.0354 25.331 18.3328C25.1954 18.6301 25.3265 18.981 25.6238 19.1166C25.9211 19.2523 26.2721 19.1212 26.4077 18.8239Z" fill="#EEBE14"/>
<path d="M27.6176 17.9476C27.7121 17.7405 27.6208 17.4961 27.4137 17.4016C27.2066 17.3072 26.9622 17.3985 26.8678 17.6056C26.7733 17.8126 26.8646 18.057 27.0717 18.1515C27.2788 18.2459 27.5232 18.1546 27.6176 17.9476Z" fill="#EEBE14"/>
<path d="M27.4575 19.7542C27.5519 19.5471 27.4606 19.3027 27.2536 19.2083C27.0465 19.1138 26.8021 19.2051 26.7076 19.4122C26.6132 19.6193 26.7045 19.8637 26.9115 19.9581C27.1186 20.0526 27.363 19.9613 27.4575 19.7542Z" fill="#EEBE14"/>
<path d="M29.3398 20.1605C29.4342 19.9534 29.3429 19.709 29.1359 19.6145C28.9288 19.5201 28.6844 19.6114 28.59 19.8184C28.4955 20.0255 28.5868 20.2699 28.7939 20.3644C29.0009 20.4588 29.2453 20.3675 29.3398 20.1605Z" fill="#EEBE14"/>
<path d="M29.5829 22.7327C29.6774 22.5257 29.5861 22.2812 29.379 22.1868C29.172 22.0924 28.9276 22.1836 28.8331 22.3907C28.7387 22.5978 28.83 22.8422 29.037 22.9366C29.2441 23.0311 29.4885 22.9398 29.5829 22.7327Z" fill="#EEBE14"/>
<path d="M28.3076 21.0491C28.402 20.8421 28.3107 20.5977 28.1037 20.5032C27.8966 20.4088 27.6522 20.5001 27.5577 20.7071C27.4633 20.9142 27.5546 21.1586 27.7616 21.253C27.9687 21.3475 28.2131 21.2562 28.3076 21.0491Z" fill="#EEBE14"/>
<path d="M28.6445 16.848C28.7389 16.6409 28.6476 16.3965 28.4406 16.302C28.2335 16.2076 27.9891 16.2989 27.8946 16.5059C27.8002 16.713 27.8915 16.9574 28.0985 17.0519C28.3056 17.1463 28.55 17.055 28.6445 16.848Z" fill="#EEBE14"/>
<path d="M26.77 14.4149C26.8573 14.2235 26.7729 13.9977 26.5815 13.9104C26.3902 13.8231 26.1643 13.9075 26.077 14.0988C25.9897 14.2902 26.0741 14.5161 26.2654 14.6034C26.4568 14.6906 26.6827 14.6063 26.77 14.4149Z" fill="#EEBE14"/>
<path d="M27.6667 15.4501C27.7201 15.3331 27.6685 15.1948 27.5514 15.1414C27.4343 15.088 27.2961 15.1397 27.2427 15.2567C27.1893 15.3738 27.2409 15.512 27.358 15.5655C27.4751 15.6189 27.6133 15.5672 27.6667 15.4501Z" fill="#EEBE14"/>
<path d="M26.0194 17.3575C26.092 17.1982 26.0218 17.0102 25.8625 16.9376C25.7032 16.8649 25.5152 16.9351 25.4426 17.0944C25.3699 17.2537 25.4402 17.4417 25.5994 17.5144C25.7587 17.587 25.9467 17.5168 26.0194 17.3575Z" fill="#EEBE14"/>
<path d="M28.43 22.3595C28.5027 22.2002 28.4324 22.0122 28.2732 21.9395C28.1139 21.8669 27.9259 21.9371 27.8532 22.0964C27.7806 22.2556 27.8508 22.4437 28.0101 22.5163C28.1694 22.589 28.3574 22.5187 28.43 22.3595Z" fill="#EEBE14"/>
<path d="M29.3812 21.1895C29.4538 21.0303 29.3836 20.8422 29.2243 20.7696C29.0651 20.6969 28.877 20.7672 28.8044 20.9264C28.7317 21.0857 28.802 21.2737 28.9612 21.3464C29.1205 21.419 29.3085 21.3488 29.3812 21.1895Z" fill="#EEBE14"/>
<path d="M25.6131 15.1173C25.6858 14.958 25.6155 14.77 25.4563 14.6973C25.297 14.6247 25.109 14.6949 25.0363 14.8542C24.9637 15.0135 25.0339 15.2015 25.1932 15.2741C25.3525 15.3468 25.5405 15.2765 25.6131 15.1173Z" fill="#EEBE14"/>
<path d="M25.4339 13.2696C25.5066 13.1103 25.4364 12.9223 25.2771 12.8497C25.1178 12.777 24.9298 12.8472 24.8571 13.0065C24.7845 13.1658 24.8547 13.3538 25.014 13.4265C25.1733 13.4991 25.3613 13.4289 25.4339 13.2696Z" fill="#EEBE14"/>
<path fill-rule="evenodd" clip-rule="evenodd" d="M17.8324 27.484C18.9755 27.8984 20.2248 27.8254 21.2518 27.6057C22.2493 27.3923 23.0937 27.082 23.819 26.595C24.5563 26.1 25.0667 25.4921 25.4876 24.8422C25.9879 24.0695 25.7671 23.0376 24.9945 22.5373C24.2218 22.037 23.1899 22.2577 22.6896 23.0304C22.4299 23.4315 22.2133 23.6582 21.961 23.8276C21.6967 24.005 21.2886 24.1891 20.5545 24.3461C19.8498 24.4969 19.298 24.4697 18.9687 24.3503C18.8236 24.2976 18.7429 24.2356 18.6913 24.1775C18.6417 24.1216 18.5648 24.0085 18.5139 23.7707C18.463 23.5329 18.487 23.3983 18.5093 23.3269C18.5326 23.2528 18.5809 23.1632 18.6917 23.0558C18.9434 22.8121 19.4358 22.5615 20.1404 22.4108C21.1674 22.191 22.3372 21.7465 23.2107 20.9007C24.17 19.9716 24.6623 18.6513 24.3291 17.0939C23.9959 15.5365 23.0066 14.5332 21.751 14.078C20.608 13.6635 19.3587 13.7365 18.3317 13.9562C16.1903 14.4144 14.745 15.5694 14.0451 16.8035C13.5911 17.6042 13.872 18.6214 14.6727 19.0755C15.4734 19.5295 16.4906 19.2485 16.9447 18.4479C17.1213 18.1363 17.7071 17.4986 19.029 17.2158C19.7336 17.0651 20.2855 17.0923 20.6148 17.2117C20.7599 17.2643 20.8406 17.3263 20.8922 17.3844C20.9418 17.4404 21.0187 17.5534 21.0696 17.7913C21.1204 18.0291 21.0965 18.1637 21.0741 18.235C21.0509 18.3091 21.0026 18.3988 20.8917 18.5061C20.6401 18.7498 20.1477 19.0004 19.4431 19.1512C18.416 19.3709 17.2463 19.8154 16.3728 20.6613C15.4134 21.5904 14.9212 22.9107 15.2543 24.468C15.5875 26.0254 16.5769 27.0287 17.8324 27.484Z" fill="#C37808"/>
<path fill-rule="evenodd" clip-rule="evenodd" d="M21.8075 30.2041C22.7076 30.0115 23.2812 29.1257 23.0886 28.2256L22.5656 25.7809C22.3731 24.8808 21.4873 24.3072 20.5872 24.4998C19.6871 24.6924 19.1135 25.5782 19.3061 26.4783L19.8291 28.9229C20.0216 29.8231 20.9074 30.3966 21.8075 30.2041Z" fill="#C37808"/>
<path fill-rule="evenodd" clip-rule="evenodd" d="M19.0292 17.2158C19.9293 17.0232 20.5029 16.1374 20.3103 15.2373L19.7873 12.7926C19.5947 11.8925 18.709 11.319 17.8089 11.5115C16.9087 11.7041 16.3352 12.5899 16.5277 13.49L17.0507 15.9347C17.2433 16.8348 18.1291 17.4083 19.0292 17.2158Z" fill="#C37808"/>
<path fill-rule="evenodd" clip-rule="evenodd" d="M18.1876 26.5049C19.0764 26.8271 20.1077 26.7855 21.0339 26.5873C21.9492 26.3915 22.6572 26.1207 23.2384 25.7304C23.8242 25.3371 24.2428 24.8484 24.6133 24.2762C24.8009 23.9864 24.7181 23.5995 24.4284 23.4119C24.1386 23.2242 23.7516 23.307 23.564 23.5968C23.2539 24.0756 22.9456 24.4215 22.5417 24.6926C22.1333 24.9668 21.5889 25.1903 20.7724 25.365C19.9671 25.5373 19.1973 25.5414 18.6137 25.3298C18.0722 25.1334 17.657 24.7441 17.4954 23.9888C17.3338 23.2335 17.5534 22.7084 17.9671 22.3077C18.4131 21.8759 19.1172 21.5647 19.9226 21.3924C20.8488 21.1942 21.8069 20.8103 22.4861 20.1526C23.1974 19.4637 23.5658 18.5048 23.3106 17.312C23.0554 16.1192 22.327 15.395 21.396 15.0575C20.5073 14.7352 19.4759 14.7769 18.5497 14.9751C16.6644 15.3784 15.4877 16.3717 14.9513 17.3176C14.781 17.6178 14.8864 17.9993 15.1867 18.1696C15.4869 18.3398 15.8684 18.2345 16.0386 17.9342C16.3788 17.3344 17.2332 16.535 18.8112 16.1974C19.6165 16.0251 20.3863 16.021 20.97 16.2326C21.5114 16.4289 21.9267 16.8182 22.0882 17.5735C22.2498 18.3288 22.0302 18.854 21.6165 19.2546C21.1705 19.6865 20.4664 19.9977 19.6611 20.17C18.7348 20.3682 17.7767 20.7521 17.0976 21.4098C16.3862 22.0987 16.0178 23.0575 16.273 24.2503C16.5282 25.4431 17.2566 26.1674 18.1876 26.5049Z" fill="#FFB423"/>
<path fill-rule="evenodd" clip-rule="evenodd" d="M21.5897 29.1857C21.9272 29.1134 22.1423 28.7813 22.0701 28.4437L21.5471 25.9991C21.4749 25.6615 21.1427 25.4464 20.8052 25.5186C20.4676 25.5908 20.2525 25.923 20.3248 26.2606L20.8478 28.7052C20.92 29.0428 21.2521 29.2579 21.5897 29.1857Z" fill="#FFB423"/>
<path fill-rule="evenodd" clip-rule="evenodd" d="M18.8109 16.1974C19.1484 16.1252 19.3635 15.793 19.2913 15.4555L18.7683 13.0108C18.6961 12.6732 18.3639 12.4581 18.0264 12.5304C17.6888 12.6026 17.4737 12.9347 17.5459 13.2723L18.069 15.717C18.1412 16.0545 18.4733 16.2696 18.8109 16.1974Z" fill="#FFB423"/>
<path fill-rule="evenodd" clip-rule="evenodd" d="M8.14122 24.8175C7.92566 24.898 7.81621 25.1381 7.89676 25.3536C9.33497 29.2024 12.5558 32.1811 16.5559 33.2851C16.7777 33.3463 17.0072 33.2161 17.0684 32.9943C17.1296 32.7725 16.9994 32.543 16.7776 32.4818C13.037 31.4494 10.0228 28.6624 8.67737 25.0619C8.59682 24.8464 8.35678 24.7369 8.14122 24.8175Z" fill="#FFCF72"/>
<path fill-rule="evenodd" clip-rule="evenodd" d="M29.965 14.5195C30.1596 14.3966 30.2176 14.1393 30.0947 13.9447C29.1201 12.4018 27.8277 11.0797 26.3095 10.0703C26.1179 9.94288 25.8593 9.99494 25.7318 10.1866C25.6044 10.3782 25.6565 10.6368 25.8481 10.7642C27.2688 11.7088 28.4782 12.9461 29.3902 14.3898C29.5131 14.5843 29.7705 14.6424 29.965 14.5195Z" fill="#FFCF72"/>
<path fill-rule="evenodd" clip-rule="evenodd" d="M12.7312 30.4867C12.7311 30.4867 12.7313 30.4868 12.7312 30.4867L12.5 30.8334C12.7312 30.4867 12.7311 30.4867 12.7312 30.4867L12.7297 30.4857L12.7212 30.48C12.7133 30.4746 12.701 30.4661 12.6847 30.4546C12.652 30.4315 12.6033 30.3965 12.5417 30.3504C12.4185 30.2579 12.2445 30.1213 12.0453 29.9469C11.6445 29.5963 11.1526 29.1027 10.7634 28.519C10.6358 28.3275 10.3771 28.2758 10.1856 28.4034C9.99412 28.5311 9.94238 28.7898 10.07 28.9812C10.5142 29.6475 11.064 30.1956 11.4965 30.5741C11.7139 30.7643 11.9045 30.9142 12.0417 31.017C12.1104 31.0685 12.1658 31.1084 12.2047 31.1358C12.2242 31.1495 12.2396 31.1601 12.2504 31.1676L12.2632 31.1763L12.267 31.1788L12.2682 31.1796L12.2686 31.1799C12.2687 31.18 12.2689 31.1801 12.5 30.8334L12.2686 31.1799C12.4601 31.3076 12.7191 31.256 12.8467 31.0646C12.9743 30.8732 12.9224 30.6145 12.7312 30.4867Z" fill="#FFE9AF"/>
<path fill-rule="evenodd" clip-rule="evenodd" d="M14.3977 28.4028C14.3976 28.4027 14.3978 28.4028 14.3977 28.4028L14.1665 28.7495C14.3977 28.4028 14.3976 28.4027 14.3977 28.4028L14.3962 28.4018L14.3877 28.396C14.3798 28.3906 14.3675 28.3821 14.3512 28.3706C14.3185 28.3476 14.2698 28.3125 14.2082 28.2664C14.085 28.1739 13.911 28.0373 13.7118 27.863C13.311 27.5123 12.8191 27.0187 12.4299 26.435C12.3023 26.2435 12.0436 26.1918 11.8521 26.3194C11.6606 26.4471 11.6089 26.7058 11.7365 26.8972C12.1807 27.5635 12.7305 28.1116 13.163 28.4901C13.3804 28.6804 13.571 28.8302 13.7082 28.933C13.7769 28.9845 13.8323 29.0244 13.8712 29.0518C13.8907 29.0655 13.9061 29.0762 13.9169 29.0836L13.9297 29.0923L13.9335 29.0948L13.9347 29.0956L13.9351 29.0959C13.9352 29.096 13.9354 29.0961 14.1665 28.7495L13.9351 29.0959C14.1266 29.2236 14.3856 29.172 14.5132 28.9806C14.6408 28.7892 14.5889 28.5305 14.3977 28.4028Z" fill="white"/>
</svg>
