<svg width="96" height="97" viewBox="0 0 96 97" fill="none" xmlns="http://www.w3.org/2000/svg">
<path d="M43.6178 60.2718C43.0228 57.4236 45.0903 54.5 48 54.5C50.9097 54.5 52.9772 57.4236 52.3822 60.2718C51.8239 62.944 51.4595 66.0595 52 68.5C53.5155 75.3421 60 82.5 60 82.5H36C36 82.5 42.4845 75.3421 44 68.5C44.5405 66.0595 44.1761 62.944 43.6178 60.2718Z" fill="#F6B307"/>
<path fill-rule="evenodd" clip-rule="evenodd" d="M61.8284 83.3107C61.5077 84.0338 60.791 84.5 60 84.5H36C35.209 84.5 34.4923 84.0338 34.1717 83.3107C33.8512 82.5878 33.9867 81.7439 34.5174 81.1577L36 82.5H60C60 82.5 59.3193 81.7486 58.3475 80.5C56.3197 77.8949 53.0245 73.1253 52 68.5C51.4595 66.0595 51.824 62.944 52.3822 60.2718C52.9773 57.4236 50.9097 54.5 48 54.5C45.0903 54.5 43.0228 57.4236 43.6178 60.2718C44.1761 62.944 44.5406 66.0595 44 68.5C42.9756 73.1253 39.6804 77.8949 37.6526 80.5C36.6808 81.7486 36 82.5 36 82.5M34.5174 81.1577L34.5288 81.145L34.5754 81.0926C34.6178 81.0447 34.6826 80.9709 34.7669 80.8731C34.9356 80.6775 35.182 80.3863 35.4842 80.0141C36.0896 79.2684 36.9134 78.204 37.7814 76.936C39.5472 74.3567 41.3733 71.1107 42.0474 68.0675C42.4913 66.063 42.207 63.2986 41.6601 60.6808C40.8445 56.7767 43.6377 52.5 48 52.5C52.3624 52.5 55.1556 56.7767 54.34 60.6808C53.7931 63.2986 53.5087 66.063 53.9527 68.0675C54.6268 71.1107 56.4529 74.3567 58.2187 76.936C59.0867 78.204 59.9105 79.2684 60.5159 80.0141C60.818 80.3863 61.0645 80.6775 61.2332 80.8731C61.3175 80.9709 61.3822 81.0447 61.4247 81.0926L61.4713 81.145L61.4822 81.1572C62.013 81.7434 62.1489 82.5878 61.8284 83.3107" fill="#5B3303"/>
<path fill-rule="evenodd" clip-rule="evenodd" d="M56 82.5H60C60 82.5 53.5155 75.3421 52 68.5C51.4595 66.0595 51.8239 62.944 52.3822 60.2718C52.9773 57.4236 50.9097 54.5 48 54.5C47.3422 54.5 46.7274 54.6494 46.1768 54.9136C47.6429 55.6096 48.3822 57.2449 48.3822 60.2718C48.3822 64.0805 48.4595 69.5595 49 72C50.5155 78.8421 56 82.5 56 82.5Z" fill="#C18B00"/>
<path fill-rule="evenodd" clip-rule="evenodd" d="M44.7426 72.0301C45.2784 72.164 45.6042 72.707 45.4702 73.2428C44.9362 75.3789 43.8797 77.4836 42.8322 79.0549C42.5258 79.5145 41.9049 79.6386 41.4454 79.3323C40.9859 79.0259 40.8617 78.4051 41.1681 77.9455C42.1205 76.5169 43.064 74.6216 43.53 72.7577C43.6639 72.2219 44.2068 71.8961 44.7426 72.0301Z" fill="#FFCB43"/>
<path fill-rule="evenodd" clip-rule="evenodd" d="M77 38.5C83.0751 38.5 88 33.5751 88 27.5C88 21.4249 83.0751 16.5 77 16.5C70.9249 16.5 66 21.4249 66 27.5C66 33.5751 70.9249 38.5 77 38.5ZM77 33.5C80.3137 33.5 83 30.8137 83 27.5C83 24.1863 80.3137 21.5 77 21.5C73.6863 21.5 71 24.1863 71 27.5C71 30.8137 73.6863 33.5 77 33.5Z" fill="#F6B307"/>
<path fill-rule="evenodd" clip-rule="evenodd" d="M90 27.5C90 34.6797 84.1797 40.5 77 40.5C69.8203 40.5 64 34.6797 64 27.5C64 20.3203 69.8203 14.5 77 14.5C84.1797 14.5 90 20.3203 90 27.5ZM77 31.5C79.2091 31.5 81 29.7091 81 27.5C81 25.2909 79.2091 23.5 77 23.5C74.7909 23.5 73 25.2909 73 27.5C73 29.7091 74.7909 31.5 77 31.5ZM88 27.5C88 33.5751 83.0751 38.5 77 38.5C70.9249 38.5 66 33.5751 66 27.5C66 21.4249 70.9249 16.5 77 16.5C83.0751 16.5 88 21.4249 88 27.5ZM83 27.5C83 30.8137 80.3137 33.5 77 33.5C73.6863 33.5 71 30.8137 71 27.5C71 24.1863 73.6863 21.5 77 21.5C80.3137 21.5 83 24.1863 83 27.5Z" fill="#5B3303"/>
<path fill-rule="evenodd" clip-rule="evenodd" d="M87 25.5C87 31.5751 82.0751 36.5 76 36.5C72.0907 36.5 68.6577 34.4607 66.7068 31.3879C68.2775 35.5443 72.2936 38.5 77 38.5C83.0751 38.5 88 33.5751 88 27.5C88 25.3341 87.374 23.3145 86.2931 21.6121C86.75 22.8209 87 24.1312 87 25.5ZM71.2251 29.1338C71.0784 28.6144 71 28.0663 71 27.5C71 24.1863 73.6863 21.5 77 21.5C78.9477 21.5 80.6787 22.4281 81.7748 23.8662C81.0634 21.3465 78.7473 19.5 76 19.5C72.6863 19.5 70 22.1863 70 25.5C70 26.8659 70.4564 28.1253 71.2251 29.1338Z" fill="#D29700"/>
<path fill-rule="evenodd" clip-rule="evenodd" d="M19 38.5C25.0751 38.5 30 33.5751 30 27.5C30 21.4249 25.0751 16.5 19 16.5C12.9249 16.5 8 21.4249 8 27.5C8 33.5751 12.9249 38.5 19 38.5ZM19 33.5C22.3137 33.5 25 30.8137 25 27.5C25 24.1863 22.3137 21.5 19 21.5C15.6863 21.5 13 24.1863 13 27.5C13 30.8137 15.6863 33.5 19 33.5Z" fill="#F6B307"/>
<path fill-rule="evenodd" clip-rule="evenodd" d="M32 27.5C32 34.6797 26.1797 40.5 19 40.5C11.8203 40.5 6 34.6797 6 27.5C6 20.3203 11.8203 14.5 19 14.5C26.1797 14.5 32 20.3203 32 27.5ZM19 31.5C21.2091 31.5 23 29.7091 23 27.5C23 25.2909 21.2091 23.5 19 23.5C16.7909 23.5 15 25.2909 15 27.5C15 29.7091 16.7909 31.5 19 31.5ZM30 27.5C30 33.5751 25.0751 38.5 19 38.5C12.9249 38.5 8 33.5751 8 27.5C8 21.4249 12.9249 16.5 19 16.5C25.0751 16.5 30 21.4249 30 27.5ZM25 27.5C25 30.8137 22.3137 33.5 19 33.5C15.6863 33.5 13 30.8137 13 27.5C13 24.1863 15.6863 21.5 19 21.5C22.3137 21.5 25 24.1863 25 27.5Z" fill="#5B3303"/>
<path fill-rule="evenodd" clip-rule="evenodd" d="M27.2622 34.7627C25.3248 36.4669 22.7831 37.5005 20 37.5005C13.9249 37.5005 9 32.5756 9 26.5005C9 23.7174 10.0336 21.1757 11.7378 19.2383C9.44614 21.2542 8 24.2084 8 27.5005C8 33.5756 12.9249 38.5005 19 38.5005C22.292 38.5005 25.2463 37.0543 27.2622 34.7627ZM15.2867 22.7872C16.3082 21.9814 17.5979 21.5005 19 21.5005C22.3137 21.5005 25 24.1868 25 27.5005C25 28.9025 24.5191 30.1923 23.7133 31.2137C25.106 30.115 26 28.4121 26 26.5005C26 23.1868 23.3137 20.5005 20 20.5005C18.0883 20.5005 16.3855 21.3945 15.2867 22.7872Z" fill="#D29700"/>
<path d="M20 22.5C20 18.0817 23.5817 14.5 28 14.5H68C72.4183 14.5 76 18.0817 76 22.5V34.5C76 49.964 63.464 62.5 48 62.5C32.536 62.5 20 49.964 20 34.5V22.5Z" fill="#FFCF23"/>
<path fill-rule="evenodd" clip-rule="evenodd" d="M28 12.5H68C73.5228 12.5 78 16.9772 78 22.5V34.5C78 51.0685 64.5685 64.5 48 64.5C31.4315 64.5 18 51.0685 18 34.5V22.5C18 16.9772 22.4772 12.5 28 12.5ZM28 14.5C23.5817 14.5 20 18.0817 20 22.5V34.5C20 49.964 32.536 62.5 48 62.5C63.464 62.5 76 49.964 76 34.5V22.5C76 18.0817 72.4183 14.5 68 14.5H28Z" fill="#5B3303"/>
<path fill-rule="evenodd" clip-rule="evenodd" d="M41 61.6179C43.2373 62.1937 45.5829 62.5 48 62.5C63.464 62.5 76 49.964 76 34.5V14.5H62V34.5C62 47.5469 53.0766 58.5096 41 61.6179Z" fill="#FFC429"/>
<path d="M20 14.5V34.5C20 44.0458 24.7768 52.4759 32.0705 57.5303C35.5398 59.9344 42.127 51.6894 42.0185 47.4699C42.0059 46.9805 42 46.49 42 46V14.5H20Z" fill="#FFDB5B"/>
<path fill-rule="evenodd" clip-rule="evenodd" d="M33.5342 58.4786C37.7561 61.0311 42.7065 62.5 48 62.5C63.464 62.5 76 49.964 76 34.5V14.5H71.9997V32.5C71.9997 47.964 59.4637 60.5 43.9998 60.5C40.2997 60.5 36.7673 59.7823 33.5342 58.4786Z" fill="#F5B40C"/>
<path d="M76 14.5H20V18.5H76V14.5Z" fill="#D29803"/>
<path fill-rule="evenodd" clip-rule="evenodd" d="M24 17.5C25.1046 17.5 26 18.3954 26 19.5C26 26.299 26.0041 31.7688 26.6065 36.1661C27.2065 40.5461 28.3634 43.5351 30.4141 45.5858C31.1951 46.3669 31.1951 47.6332 30.4141 48.4142C29.633 49.1953 28.3667 49.1953 27.5856 48.4142C24.6365 45.4649 23.2935 41.4539 22.6435 36.7089C22 32.011 22 26.2736 22 19.6264L22 19.5C22 18.3954 22.8954 17.5 24 17.5Z" fill="#FFEBA6"/>
<path fill-rule="evenodd" clip-rule="evenodd" d="M23.9999 20.5C24.5522 20.5 24.9999 20.9477 24.9999 21.5C24.9999 22.8147 24.9888 23.5965 24.9798 24.2317C24.9661 25.1984 24.9572 25.8254 24.9996 27.4743C25.0138 28.0264 24.5777 28.4855 24.0256 28.4997C23.4735 28.5138 23.0144 28.0778 23.0002 27.5257C22.9571 25.8458 22.9665 25.1656 22.9804 24.1618C22.9892 23.5211 22.9999 22.7486 22.9999 21.5C22.9999 20.9477 23.4476 20.5 23.9999 20.5Z" fill="white"/>
<path d="M28 84.5C28 83.3954 28.8954 82.5 30 82.5H66C67.1046 82.5 68 83.3954 68 84.5C68 85.6046 67.1046 86.5 66 86.5H30C28.8954 86.5 28 85.6046 28 84.5Z" fill="#FFD84F"/>
<path fill-rule="evenodd" clip-rule="evenodd" d="M30 80.5H66C68.2091 80.5 70 82.2909 70 84.5C70 86.7091 68.2091 88.5 66 88.5H30C27.7909 88.5 26 86.7091 26 84.5C26 82.2909 27.7909 80.5 30 80.5ZM30 82.5C28.8954 82.5 28 83.3954 28 84.5C28 85.6046 28.8954 86.5 30 86.5H66C67.1046 86.5 68 85.6046 68 84.5C68 83.3954 67.1046 82.5 66 82.5H30Z" fill="#5B3303"/>
<path d="M12 12.5C12 11.3954 12.8954 10.5 14 10.5H82C83.1046 10.5 84 11.3954 84 12.5C84 13.6046 83.1046 14.5 82 14.5H14C12.8954 14.5 12 13.6046 12 12.5Z" fill="#FFD84F"/>
<path fill-rule="evenodd" clip-rule="evenodd" d="M14 8.5H82C84.2091 8.5 86 10.2909 86 12.5C86 14.7091 84.2091 16.5 82 16.5H14C11.7909 16.5 10 14.7091 10 12.5C10 10.2909 11.7909 8.5 14 8.5ZM14 10.5C12.8954 10.5 12 11.3954 12 12.5C12 13.6046 12.8954 14.5 14 14.5H82C83.1046 14.5 84 13.6046 84 12.5C84 11.3954 83.1046 10.5 82 10.5H14Z" fill="#5B3303"/>
<path fill-rule="evenodd" clip-rule="evenodd" d="M14 12C14 11.4477 14.4477 11 15 11H66C66.5523 11 67 11.4477 67 12C67 12.5523 66.5523 13 66 13H15C14.4477 13 14 12.5523 14 12Z" fill="#FFEBA6"/>
<path fill-rule="evenodd" clip-rule="evenodd" d="M29 83.5C29 82.9477 29.4477 82.5 30 82.5H59C59.5523 82.5 60 82.9477 60 83.5C60 84.0523 59.5523 84.5 59 84.5H30C29.4477 84.5 29 84.0523 29 83.5Z" fill="#FFEBA6"/>
<path fill-rule="evenodd" clip-rule="evenodd" d="M20 12C20 11.4477 20.4477 11 21 11H27C27.5523 11 28 11.4477 28 12C28 12.5523 27.5523 13 27 13H21C20.4477 13 20 12.5523 20 12Z" fill="white"/>
<path d="M58 55C58 55.8284 57.3284 56.5 56.5 56.5C55.6716 56.5 55 55.8284 55 55C55 54.1716 55.6716 53.5 56.5 53.5C57.3284 53.5 58 54.1716 58 55Z" fill="#E6A809"/>
<path d="M63 51.5C63 52.0523 62.5523 52.5 62 52.5C61.4477 52.5 61 52.0523 61 51.5C61 50.9477 61.4477 50.5 62 50.5C62.5523 50.5 63 50.9477 63 51.5Z" fill="#E6A809"/>
<path d="M55 58.5C55 59.0523 54.5523 59.5 54 59.5C53.4477 59.5 53 59.0523 53 58.5C53 57.9477 53.4477 57.5 54 57.5C54.5523 57.5 55 57.9477 55 58.5Z" fill="#E6A809"/>
<path d="M52 55.5C52 56.0523 51.5523 56.5 51 56.5C50.4477 56.5 50 56.0523 50 55.5C50 54.9477 50.4477 54.5 51 54.5C51.5523 54.5 52 54.9477 52 55.5Z" fill="#E6A809"/>
<path d="M48 58.5C48 59.0523 47.5523 59.5 47 59.5C46.4477 59.5 46 59.0523 46 58.5C46 57.9477 46.4477 57.5 47 57.5C47.5523 57.5 48 57.9477 48 58.5Z" fill="#E6A809"/>
<path d="M72 44.5C72 45.0523 71.5523 45.5 71 45.5C70.4477 45.5 70 45.0523 70 44.5C70 43.9477 70.4477 43.5 71 43.5C71.5523 43.5 72 43.9477 72 44.5Z" fill="#E6A809"/>
<path d="M63 47.5C63 48.0523 62.5523 48.5 62 48.5C61.4477 48.5 61 48.0523 61 47.5C61 46.9477 61.4477 46.5 62 46.5C62.5523 46.5 63 46.9477 63 47.5Z" fill="#E6A809"/>
<path d="M73 39.5C73 40.0523 72.5523 40.5 72 40.5C71.4477 40.5 71 40.0523 71 39.5C71 38.9477 71.4477 38.5 72 38.5C72.5523 38.5 73 38.9477 73 39.5Z" fill="#E6A809"/>
<path d="M58 49.5C58 50.0523 57.5523 50.5 57 50.5C56.4477 50.5 56 50.0523 56 49.5C56 48.9477 56.4477 48.5 57 48.5C57.5523 48.5 58 48.9477 58 49.5Z" fill="#E6A809"/>
<path d="M62 55.5C62 56.0523 61.5523 56.5 61 56.5C60.4477 56.5 60 56.0523 60 55.5C60 54.9477 60.4477 54.5 61 54.5C61.5523 54.5 62 54.9477 62 55.5Z" fill="#E6A809"/>
<path d="M68 51.5C68 52.0523 67.5523 52.5 67 52.5C66.4477 52.5 66 52.0523 66 51.5C66 50.9477 66.4477 50.5 67 50.5C67.5523 50.5 68 50.9477 68 51.5Z" fill="#E6A809"/>
<path d="M66 47.5C66 48.0523 65.5523 48.5 65 48.5C64.4477 48.5 64 48.0523 64 47.5C64 46.9477 64.4477 46.5 65 46.5C65.5523 46.5 66 46.9477 66 47.5Z" fill="#E6A809"/>
<path d="M70 47C70 47.2761 69.7761 47.5 69.5 47.5C69.2239 47.5 69 47.2761 69 47C69 46.7239 69.2239 46.5 69.5 46.5C69.7761 46.5 70 46.7239 70 47Z" fill="#E6A809"/>
<path d="M69 43C69 43.2761 68.7761 43.5 68.5 43.5C68.2239 43.5 68 43.2761 68 43C68 42.7239 68.2239 42.5 68.5 42.5C68.7761 42.5 69 42.7239 69 43Z" fill="#E6A809"/>
<path d="M66 44C66 44.2761 65.7761 44.5 65.5 44.5C65.2239 44.5 65 44.2761 65 44C65 43.7239 65.2239 43.5 65.5 43.5C65.7761 43.5 66 43.7239 66 44Z" fill="#E6A809"/>
<path d="M69 40C69 40.2761 68.7761 40.5 68.5 40.5C68.2239 40.5 68 40.2761 68 40C68 39.7239 68.2239 39.5 68.5 39.5C68.7761 39.5 69 39.7239 69 40Z" fill="#E6A809"/>
<path d="M63 44C63 44.2761 62.7761 44.5 62.5 44.5C62.2239 44.5 62 44.2761 62 44C62 43.7239 62.2239 43.5 62.5 43.5C62.7761 43.5 63 43.7239 63 44Z" fill="#E6A809"/>
<path d="M47 55C47 55.2761 46.7761 55.5 46.5 55.5C46.2239 55.5 46 55.2761 46 55C46 54.7239 46.2239 54.5 46.5 54.5C46.7761 54.5 47 54.7239 47 55Z" fill="#E6A809"/>
<path d="M68 48C68 48.2761 67.7761 48.5 67.5 48.5C67.2239 48.5 67 48.2761 67 48C67 47.7239 67.2239 47.5 67.5 47.5C67.7761 47.5 68 47.7239 68 48Z" fill="#E6A809"/>
<path d="M65 54C65 54.2761 64.7761 54.5 64.5 54.5C64.2239 54.5 64 54.2761 64 54C64 53.7239 64.2239 53.5 64.5 53.5C64.7761 53.5 65 53.7239 65 54Z" fill="#E6A809"/>
<path d="M60 52C60 52.2761 59.7761 52.5 59.5 52.5C59.2239 52.5 59 52.2761 59 52C59 51.7239 59.2239 51.5 59.5 51.5C59.7761 51.5 60 51.7239 60 52Z" fill="#E6A809"/>
<path d="M55 52C55 52.2761 54.7761 52.5 54.5 52.5C54.2239 52.5 54 52.2761 54 52C54 51.7239 54.2239 51.5 54.5 51.5C54.7761 51.5 55 51.7239 55 52Z" fill="#E6A809"/>
<path d="M51 59C51 59.2761 50.7761 59.5 50.5 59.5C50.2239 59.5 50 59.2761 50 59C50 58.7239 50.2239 58.5 50.5 58.5C50.7761 58.5 51 58.7239 51 59Z" fill="#E6A809"/>
<path fill-rule="evenodd" clip-rule="evenodd" d="M16.3946 18.553C16.6416 19.047 16.4413 19.6477 15.9474 19.8947C15.0333 20.3516 13.802 21.1393 12.8 22.4752C11.8084 23.7973 11 25.7105 11 28.5002C11 29.0525 10.5523 29.5002 10 29.5002C9.44772 29.5002 9 29.0525 9 28.5002C9 25.2899 9.94158 22.9531 11.2 21.2752C12.4481 19.6111 13.9669 18.6488 15.053 18.1058C15.547 17.8588 16.1476 18.059 16.3946 18.553Z" fill="#FFD953"/>
<path d="M38 34.1L44.25 32.8333L46.125 29.6667L48 26.5L51.75 32.8333L58 34.1L53 39.1667L54.25 45.5L48 42.3333L41.75 45.5L43 39.1667L38 34.1Z" fill="#FFEBA6"/>
<path fill-rule="evenodd" clip-rule="evenodd" d="M44.25 32.8333L48 26.5L51.75 32.8333L58 34.1L53 39.1667L54.25 45.5L48 42.3333L41.75 45.5L43 39.1667L38 34.1L44.25 32.8333ZM40.8329 39.818L36.5765 35.5048C36.0607 34.9822 35.8728 34.2189 36.087 33.5165C36.3013 32.8142 36.8831 32.2857 37.6028 32.1399L42.9819 31.0497L46.2791 25.481C46.6391 24.8729 47.2934 24.5 48 24.5C48.7067 24.5 49.361 24.8729 49.721 25.481L53.0182 31.0497L58.3973 32.1399C59.117 32.2857 59.6988 32.8142 59.9131 33.5165C60.1273 34.2189 59.9394 34.9822 59.4236 35.5048L55.1672 39.818L56.2122 45.1127C56.3603 45.8631 56.0675 46.6323 55.4578 47.0942C54.8481 47.556 54.0284 47.6298 53.3461 47.2841L48 44.5754L42.654 47.2841C41.9717 47.6298 41.152 47.556 40.5423 47.0942C39.9326 46.6323 39.6398 45.8631 39.7879 45.1127L40.8329 39.818Z" fill="#F5B40C"/>
<path fill-rule="evenodd" clip-rule="evenodd" d="M48.4473 29.6058C48.9413 29.8528 49.1415 30.4535 48.8945 30.9474L46.8945 34.9474C46.7428 35.2508 46.4477 35.4566 46.1105 35.4941L41.6105 35.9941C41.0616 36.0551 40.5672 35.6596 40.5062 35.1107C40.4452 34.5617 40.8407 34.0673 41.3897 34.0063L45.349 33.5664L47.1057 30.053C47.3527 29.559 47.9533 29.3588 48.4473 29.6058Z" fill="white"/>
</svg>
