<svg width="20" height="17" viewBox="0 0 20 17" fill="none" xmlns="http://www.w3.org/2000/svg">
<g clip-path="url(#clip0_770_9291)">
<path d="M4.5 0.5C5.16304 0.5 5.79893 0.763392 6.26777 1.23223C6.73661 1.70107 7 2.33696 7 3C7 3.66304 6.73661 4.29893 6.26777 4.76777C5.79893 5.23661 5.16304 5.5 4.5 5.5C3.83696 5.5 3.20107 5.23661 2.73223 4.76777C2.26339 4.29893 2 3.66304 2 3C2 2.33696 2.26339 1.70107 2.73223 1.23223C3.20107 0.763392 3.83696 0.5 4.5 0.5ZM16 0.5C16.663 0.5 17.2989 0.763392 17.7678 1.23223C18.2366 1.70107 18.5 2.33696 18.5 3C18.5 3.66304 18.2366 4.29893 17.7678 4.76777C17.2989 5.23661 16.663 5.5 16 5.5C15.337 5.5 14.7011 5.23661 14.2322 4.76777C13.7634 4.29893 13.5 3.66304 13.5 3C13.5 2.33696 13.7634 1.70107 14.2322 1.23223C14.7011 0.763392 15.337 0.5 16 0.5ZM0 9.83438C0 7.99375 1.49375 6.5 3.33437 6.5H4.66875C5.16562 6.5 5.6375 6.60938 6.0625 6.80312C6.02187 7.02812 6.00313 7.2625 6.00313 7.5C6.00313 8.69375 6.52812 9.76562 7.35625 10.5C7.35 10.5 7.34375 10.5 7.33437 10.5H0.665625C0.3 10.5 0 10.2 0 9.83438ZM12.6656 10.5C12.6594 10.5 12.6531 10.5 12.6438 10.5C13.475 9.76562 13.9969 8.69375 13.9969 7.5C13.9969 7.2625 13.975 7.03125 13.9375 6.80312C14.3625 6.60625 14.8344 6.5 15.3313 6.5H16.6656C18.5063 6.5 20 7.99375 20 9.83438C20 10.2031 19.7 10.5 19.3344 10.5H12.6656ZM7 7.5C7 6.70435 7.31607 5.94129 7.87868 5.37868C8.44129 4.81607 9.20435 4.5 10 4.5C10.7956 4.5 11.5587 4.81607 12.1213 5.37868C12.6839 5.94129 13 6.70435 13 7.5C13 8.29565 12.6839 9.05871 12.1213 9.62132C11.5587 10.1839 10.7956 10.5 10 10.5C9.20435 10.5 8.44129 10.1839 7.87868 9.62132C7.31607 9.05871 7 8.29565 7 7.5ZM4 15.6656C4 13.3656 5.86562 11.5 8.16562 11.5H11.8344C14.1344 11.5 16 13.3656 16 15.6656C16 16.125 15.6281 16.5 15.1656 16.5H4.83437C4.375 16.5 4 16.1281 4 15.6656Z" fill="#8E7564"/>
</g>
<defs>
<clipPath id="clip0_770_9291">
<path d="M0 0.5H20V16.5H0V0.5Z" fill="white"/>
</clipPath>
</defs>
</svg>
