<svg width="576" height="62" viewBox="0 0 576 62" fill="none" xmlns="http://www.w3.org/2000/svg">
<path d="M42.5455 8.76C39.9855 8.376 37.2335 8.184 34.2895 8.184C31.4095 8.184 28.5935 8.376 25.8415 8.76C27.5695 11.704 29.6175 14.104 31.9855 15.96C34.3535 17.816 37.3295 19.672 40.9135 21.528C44.5615 23.32 47.5055 24.984 49.7455 26.52C52.0495 28.056 54.5775 30.584 57.3295 34.104C60.0815 37.624 61.8095 41.304 62.5135 45.144C59.4415 49.112 55.3775 52.6 50.3215 55.608C45.2655 58.68 40.0815 60.728 34.7695 61.752C31.1855 61.432 26.6415 60.408 21.1375 58.68C15.6975 57.016 11.6015 56.184 8.8495 56.184C6.0975 56.184 3.3455 57.048 0.5935 58.776C1.7455 55.512 3.6335 51.416 6.2575 46.488H7.0255C11.1215 46.488 14.9615 47.128 18.5455 48.408C22.1935 49.688 25.4895 50.968 28.4335 52.248C31.4415 53.528 33.8415 54.168 35.6335 54.168C37.4895 54.168 38.8335 54.04 39.6655 53.784C39.6655 49.56 38.3535 46.072 35.7295 43.32C34.3215 41.848 33.1055 40.728 32.0815 39.96C31.1215 39.128 29.6175 38.008 27.5695 36.6L25.9375 35.448C21.5855 32.44 18.0015 29.4 15.1855 26.328C12.3695 23.192 10.3215 19.352 9.0415 14.808C11.0895 10.264 13.1055 6.328 15.0895 3C21.1695 1.528 27.4735 0.792 34.0015 0.792H38.2255C43.7295 0.792 50.0335 1.56 57.1375 3.096C56.1135 7.32 54.8655 11.128 53.3935 14.52C48.0175 14.904 43.8575 15.096 40.9135 15.096C41.4895 13.624 42.0335 11.512 42.5455 8.76ZM230.275 19.704L230.179 22.968C225.059 25.72 218.659 27.864 210.979 29.4C216.483 30.872 221.795 31.608 226.915 31.608H228.931C232.451 36.792 234.723 43.256 235.747 51H210.883C210.243 46.52 208.931 42.68 206.947 39.48C205.027 36.216 202.659 34.008 199.843 32.856C199.779 33.944 199.747 36.12 199.747 39.384C199.747 42.648 199.939 46.52 200.323 51H179.395C177.539 41.72 176.611 33.112 176.611 25.176C176.611 17.176 177.059 9.784 177.955 3H228.067C229.539 9.464 230.275 15.032 230.275 19.704ZM201.859 9.432C201.091 15.064 200.515 20.6 200.131 26.04C203.651 25.528 206.531 24.28 208.771 22.296C207.555 18.008 205.251 13.72 201.859 9.432ZM382.59 22.296L391.614 22.872C392.51 22.872 393.182 22.84 393.63 22.776L389.118 31.224H388.254C387.038 31.224 385.31 30.904 383.07 30.264C380.83 29.56 379.23 29.208 378.27 29.208C375.646 29.208 373.566 30.904 372.03 34.296C371.774 37.432 371.582 40.568 371.454 43.704C374.782 44.344 377.406 44.664 379.326 44.664H380.19C382.942 44.664 385.118 44.056 386.718 42.84C388.382 41.624 389.566 39.448 390.27 36.312L401.79 36.792C400.83 42.296 399.55 47.032 397.95 51H350.814C349.534 42.36 348.894 33.784 348.894 25.272C348.894 16.76 349.342 9.336 350.238 3H401.694C400.542 9.912 399.518 14.776 398.622 17.592C394.846 17.784 391.39 17.912 388.254 17.976C388.766 16.504 389.022 15.128 389.022 13.848C389.022 10.776 386.718 9.24 382.11 9.24C380.382 9.24 378.462 9.432 376.35 9.816C374.942 15.896 373.854 21.24 373.086 25.848C375.646 23.48 378.814 22.296 382.59 22.296ZM552.86 44.568H553.724C556.412 44.568 558.588 43.96 560.252 42.744C561.916 41.528 563.1 39.384 563.804 36.312C568.54 36.44 572.38 36.568 575.324 36.696C574.364 42.264 573.084 47.032 571.484 51H516.668C525.308 35.512 534.78 21.752 545.084 9.72C543.548 9.4 541.436 9.24 538.748 9.24C536.06 9.24 533.628 10.072 531.452 11.736C529.276 13.336 527.9 15.48 527.324 18.168C522.396 17.848 519.26 17.624 517.916 17.496L520.892 3H574.364C563.036 15.288 553.18 28.824 544.796 43.608C548.124 44.248 550.812 44.568 552.86 44.568Z" fill="#F59E0B"/>
<path d="M128.187 9.24C126.523 19.352 125.691 27.608 125.691 34.008C125.691 40.408 125.947 46.072 126.459 51H105.531C103.355 40.824 102.267 29.88 102.267 18.168C102.267 16.184 102.331 13.208 102.459 9.24C97.019 10.84 93.691 14.52 92.475 20.28L82.971 19.704L86.427 3H150.267C148.987 10.04 147.515 15.8 145.851 20.28L136.155 19.704C136.411 18.68 136.539 17.656 136.539 16.632C136.539 14.136 135.771 12.28 134.235 11.064C132.699 9.848 130.683 9.24 128.187 9.24Z" fill="#2F80ED"/>
<path d="M298.184 22.296L307.208 22.872C308.104 22.872 308.776 22.84 309.224 22.776L304.712 31.224H303.848C302.632 31.224 300.904 30.904 298.664 30.264C296.424 29.56 294.824 29.208 293.864 29.208C291.24 29.208 289.16 30.904 287.624 34.296C287.368 37.432 287.176 40.568 287.048 43.704C290.376 44.344 293 44.664 294.92 44.664H295.784C298.536 44.664 300.712 44.056 302.312 42.84C303.976 41.624 305.16 39.448 305.864 36.312L317.384 36.792C316.424 42.296 315.144 47.032 313.544 51H266.408C265.128 42.36 264.488 33.784 264.488 25.272C264.488 16.76 264.936 9.336 265.832 3H317.288C316.136 9.912 315.112 14.776 314.216 17.592C310.44 17.784 306.984 17.912 303.848 17.976C304.36 16.504 304.616 15.128 304.616 13.848C304.616 10.776 302.312 9.24 297.704 9.24C295.976 9.24 294.056 9.432 291.944 9.816C290.536 15.896 289.448 21.24 288.68 25.848C291.24 23.48 294.408 22.296 298.184 22.296Z" fill="#EC0E11"/>
<path d="M472.468 9.24C470.804 19.352 469.972 27.608 469.972 34.008C469.972 40.408 470.228 46.072 470.74 51H449.812C447.636 40.824 446.548 29.88 446.548 18.168C446.548 16.184 446.612 13.208 446.74 9.24C441.3 10.84 437.972 14.52 436.756 20.28L427.252 19.704L430.708 3H494.548C493.268 10.04 491.796 15.8 490.132 20.28L480.436 19.704C480.692 18.68 480.82 17.656 480.82 16.632C480.82 14.136 480.052 12.28 478.516 11.064C476.98 9.848 474.964 9.24 472.468 9.24Z" fill="#10B981"/>
</svg>
