<svg width="61" height="48" viewBox="0 0 61 48" fill="none" xmlns="http://www.w3.org/2000/svg">
<path d="M14 0C15.9891 0 17.8968 0.790176 19.3033 2.1967C20.7098 3.60322 21.5 5.51088 21.5 7.5C21.5 9.48912 20.7098 11.3968 19.3033 12.8033C17.8968 14.2098 15.9891 15 14 15C12.0109 15 10.1032 14.2098 8.6967 12.8033C7.29018 11.3968 6.5 9.48912 6.5 7.5C6.5 5.51088 7.29018 3.60322 8.6967 2.1967C10.1032 0.790176 12.0109 0 14 0ZM48.5 0C50.4891 0 52.3968 0.790176 53.8033 2.1967C55.2098 3.60322 56 5.51088 56 7.5C56 9.48912 55.2098 11.3968 53.8033 12.8033C52.3968 14.2098 50.4891 15 48.5 15C46.5109 15 44.6032 14.2098 43.1967 12.8033C41.7902 11.3968 41 9.48912 41 7.5C41 5.51088 41.7902 3.60322 43.1967 2.1967C44.6032 0.790176 46.5109 0 48.5 0ZM0.5 28.0031C0.5 22.4813 4.98125 18 10.5031 18H14.5062C15.9969 18 17.4125 18.3281 18.6875 18.9094C18.5656 19.5844 18.5094 20.2875 18.5094 21C18.5094 24.5812 20.0844 27.7969 22.5687 30C22.55 30 22.5312 30 22.5031 30H2.49687C1.4 30 0.5 29.1 0.5 28.0031ZM38.4969 30C38.4781 30 38.4594 30 38.4313 30C40.925 27.7969 42.4906 24.5812 42.4906 21C42.4906 20.2875 42.425 19.5938 42.3125 18.9094C43.5875 18.3188 45.0031 18 46.4938 18H50.4969C56.0187 18 60.5 22.4813 60.5 28.0031C60.5 29.1094 59.6 30 58.5031 30H38.4969ZM21.5 21C21.5 18.6131 22.4482 16.3239 24.136 14.636C25.8239 12.9482 28.1131 12 30.5 12C32.8869 12 35.1761 12.9482 36.864 14.636C38.5518 16.3239 39.5 18.6131 39.5 21C39.5 23.3869 38.5518 25.6761 36.864 27.364C35.1761 29.0518 32.8869 30 30.5 30C28.1131 30 25.8239 29.0518 24.136 27.364C22.4482 25.6761 21.5 23.3869 21.5 21ZM12.5 45.4969C12.5 38.5969 18.0969 33 24.9969 33H36.0031C42.9031 33 48.5 38.5969 48.5 45.4969C48.5 46.875 47.3844 48 45.9969 48H15.0031C13.625 48 12.5 46.8844 12.5 45.4969Z" fill="#2F80ED"/>
</svg>
