<svg width="32" height="32" viewBox="0 0 32 32" fill="none" xmlns="http://www.w3.org/2000/svg">
<path d="M26.3131 18.6756C24.7883 24.3659 19.0836 27.7814 13.5711 26.3043C8.05861 24.8273 4.82588 19.017 6.35059 13.3266C7.8753 7.63634 13.5801 4.22084 19.0926 5.6979C24.605 7.17497 27.8378 12.9853 26.3131 18.6756Z" fill="#A56402"/>
<path fill-rule="evenodd" clip-rule="evenodd" d="M26.9577 18.8482C25.3429 24.8747 19.2865 28.5258 13.3992 26.9484C7.512 25.3709 4.09254 19.1807 5.70734 13.1542C7.32215 7.12767 13.3786 3.47656 19.2658 5.05404C25.1531 6.63152 28.5725 12.8217 26.9577 18.8482ZM13.5718 26.3044C19.0843 27.7815 24.789 24.366 26.3138 18.6757C27.8385 12.9854 24.6057 7.17506 19.0933 5.69799C13.5808 4.22093 7.87601 7.63643 6.35129 13.3267C4.82658 19.017 8.05931 24.8273 13.5718 26.3044Z" fill="#5B3303"/>
<path d="M25.647 18.0076C24.1223 23.6979 18.4176 27.1134 12.9051 25.6364C7.39259 24.1593 4.15986 18.349 5.68458 12.6587C7.20929 6.96837 12.9141 3.55287 18.4265 5.02993C23.939 6.507 27.1718 12.3173 25.647 18.0076Z" fill="#FFB423"/>
<path fill-rule="evenodd" clip-rule="evenodd" d="M26.2917 18.1802C24.6769 24.2068 18.6205 27.8579 12.7332 26.2804C6.84598 24.7029 3.42652 18.5127 5.04133 12.4862C6.65613 6.4597 12.7125 2.80859 18.5998 4.38607C24.487 5.96355 27.9065 12.1537 26.2917 18.1802ZM12.9058 25.6364C18.4183 27.1135 24.123 23.698 25.6477 18.0077C27.1725 12.3174 23.9397 6.50709 18.4272 5.03002C12.9148 3.55296 7.20999 6.96846 5.68528 12.6588C4.16056 18.3491 7.39329 24.1594 12.9058 25.6364Z" fill="#5B3303"/>
<path d="M23.715 17.4897C22.4762 22.1131 17.8681 24.8954 13.4226 23.7042C8.97701 22.513 6.37745 17.7994 7.61628 13.176C8.85511 8.55267 13.4632 5.77033 17.9088 6.96151C22.3543 8.15269 24.9539 12.8663 23.715 17.4897Z" fill="#FFCF23"/>
<path fill-rule="evenodd" clip-rule="evenodd" d="M24.3597 17.6623C23.032 22.6173 18.0755 25.6411 13.2507 24.3483C8.42595 23.0555 5.64535 17.9586 6.97303 13.0036C8.30071 8.04861 13.2572 5.02486 18.082 6.31765C22.9068 7.61044 25.6874 12.7074 24.3597 17.6623ZM13.4233 23.7043C17.8688 24.8955 22.4769 22.1132 23.7157 17.4898C24.9546 12.8664 22.355 8.15278 17.9095 6.9616C13.4639 5.77042 8.85581 8.55276 7.61698 13.1761C6.37815 17.7995 8.97771 22.5131 13.4233 23.7043Z" fill="#DF8D12"/>
<path fill-rule="evenodd" clip-rule="evenodd" d="M21.8548 9.39884C20.939 8.58265 19.8313 7.96584 18.5766 7.62964C14.131 6.43846 9.52291 9.2208 8.28408 13.8442C7.48467 16.8276 8.28359 19.8486 10.1455 21.9365C7.8165 19.8609 6.72824 16.496 7.61741 13.1775C8.85624 8.55413 13.4643 5.77179 17.9099 6.96297C19.4868 7.38549 20.8314 8.25119 21.8548 9.39884Z" fill="#FFDD65"/>
<path d="M21.5265 19.0456C21.635 19.2835 21.5302 19.5642 21.2923 19.6727C21.0544 19.7812 20.7737 19.6763 20.6652 19.4385C20.5567 19.2006 20.6616 18.9199 20.8994 18.8114C21.1373 18.7029 21.418 18.8078 21.5265 19.0456Z" fill="#EEBE14"/>
<path d="M23.4347 17.1354C23.5432 17.3733 23.4384 17.6541 23.2005 17.7626C22.9627 17.8711 22.6819 17.7662 22.5734 17.5283C22.4649 17.2905 22.5698 17.0097 22.8076 16.9012C23.0455 16.7927 23.3262 16.8976 23.4347 17.1354Z" fill="#EEBE14"/>
<path d="M21.1261 16.9401C21.2346 17.178 21.1298 17.4588 20.8919 17.5672C20.6541 17.6757 20.3733 17.5709 20.2648 17.333C20.1563 17.0952 20.2612 16.8144 20.499 16.7059C20.7369 16.5974 21.0177 16.7023 21.1261 16.9401Z" fill="#EEBE14"/>
<path d="M22.0941 17.6435C22.1696 17.8092 22.0966 18.0047 21.931 18.0802C21.7653 18.1558 21.5698 18.0828 21.4942 17.9171C21.4187 17.7515 21.4917 17.5559 21.6574 17.4804C21.823 17.4048 22.0185 17.4779 22.0941 17.6435Z" fill="#EEBE14"/>
<path d="M21.9652 16.1943C22.0407 16.3599 21.9677 16.5555 21.8021 16.631C21.6364 16.7066 21.4409 16.6336 21.3653 16.4679C21.2898 16.3023 21.3628 16.1067 21.5284 16.0312C21.6941 15.9556 21.8896 16.0286 21.9652 16.1943Z" fill="#EEBE14"/>
<path d="M23.471 15.8701C23.5466 16.0357 23.4736 16.2313 23.3079 16.3068C23.1423 16.3824 22.9467 16.3093 22.8712 16.1437C22.7956 15.978 22.8687 15.7825 23.0343 15.7069C23.2 15.6314 23.3955 15.7044 23.471 15.8701Z" fill="#EEBE14"/>
<path d="M23.6664 13.8115C23.7419 13.9771 23.6689 14.1727 23.5032 14.2482C23.3376 14.3238 23.1421 14.2507 23.0665 14.0851C22.9909 13.9194 23.064 13.7239 23.2296 13.6483C23.3953 13.5728 23.5908 13.6458 23.6664 13.8115Z" fill="#EEBE14"/>
<path d="M22.6449 15.1591C22.7204 15.3248 22.6474 15.5203 22.4817 15.5959C22.3161 15.6714 22.1206 15.5984 22.045 15.4327C21.9695 15.2671 22.0425 15.0716 22.2081 14.996C22.3738 14.9204 22.5693 14.9935 22.6449 15.1591Z" fill="#EEBE14"/>
<path d="M22.9144 18.5224C22.99 18.6881 22.9169 18.8836 22.7513 18.9592C22.5856 19.0347 22.3901 18.9617 22.3145 18.796C22.239 18.6304 22.312 18.4348 22.4777 18.3593C22.6433 18.2837 22.8388 18.3568 22.9144 18.5224Z" fill="#EEBE14"/>
<path d="M21.4152 20.4657C21.485 20.6188 21.4175 20.7995 21.2644 20.8694C21.1114 20.9392 20.9306 20.8717 20.8608 20.7186C20.791 20.5655 20.8585 20.3848 21.0116 20.315C21.1647 20.2451 21.3454 20.3126 21.4152 20.4657Z" fill="#EEBE14"/>
<path d="M22.1334 19.6399C22.1761 19.7336 22.1348 19.8441 22.0411 19.8869C21.9475 19.9296 21.8369 19.8883 21.7942 19.7946C21.7514 19.7009 21.7927 19.5904 21.8864 19.5476C21.9801 19.5049 22.0906 19.5462 22.1334 19.6399Z" fill="#EEBE14"/>
<path d="M20.8147 18.114C20.8728 18.2414 20.8167 18.3918 20.6892 18.4499C20.5618 18.5081 20.4114 18.4519 20.3533 18.3245C20.2952 18.197 20.3513 18.0466 20.4788 17.9885C20.6062 17.9304 20.7566 17.9866 20.8147 18.114Z" fill="#EEBE14"/>
<path d="M22.7444 14.114C22.8025 14.2414 22.7463 14.3918 22.6189 14.4499C22.4915 14.5081 22.3411 14.4519 22.283 14.3245C22.2249 14.197 22.281 14.0466 22.4085 13.9885C22.5359 13.9304 22.6863 13.9866 22.7444 14.114Z" fill="#EEBE14"/>
<path d="M23.5042 15.0476C23.5623 15.175 23.5061 15.3254 23.3787 15.3835C23.2513 15.4417 23.1009 15.3855 23.0427 15.2581C22.9846 15.1306 23.0408 14.9802 23.1682 14.9221C23.2956 14.864 23.4461 14.9202 23.5042 15.0476Z" fill="#EEBE14"/>
<path d="M20.4905 19.907C20.5486 20.0344 20.4924 20.1848 20.365 20.2429C20.2376 20.301 20.0872 20.2449 20.0291 20.1174C19.9709 19.99 20.0271 19.8396 20.1545 19.7815C20.282 19.7234 20.4324 19.7795 20.4905 19.907Z" fill="#EEBE14"/>
<path d="M20.346 21.3835C20.4041 21.5109 20.3479 21.6614 20.2205 21.7195C20.0931 21.7776 19.9427 21.7214 19.8845 21.594C19.8264 21.4666 19.8826 21.3162 20.01 21.258C20.1374 21.1999 20.2878 21.2561 20.346 21.3835Z" fill="#EEBE14"/>
<path fill-rule="evenodd" clip-rule="evenodd" d="M14.2648 10.012C15.1792 9.68048 16.1786 9.73887 17.0003 9.91465C17.7983 10.0854 18.4738 10.3336 19.054 10.7232C19.6439 11.1192 20.0522 11.6055 20.3889 12.1255C20.7891 12.7436 20.6125 13.5691 19.9944 13.9694C19.3763 14.3696 18.5507 14.193 18.1505 13.5749C17.9427 13.254 17.7695 13.0727 17.5676 12.9371C17.3562 12.7952 17.0297 12.648 16.4424 12.5223C15.8787 12.4017 15.4372 12.4235 15.1738 12.519C15.0577 12.5611 14.9931 12.6107 14.9519 12.6572C14.9122 12.702 14.8507 12.7924 14.81 12.9827C14.7693 13.1729 14.7884 13.2806 14.8063 13.3377C14.8249 13.397 14.8635 13.4687 14.9522 13.5546C15.1535 13.7495 15.5475 13.95 16.1112 14.0706C16.9328 14.2464 17.8686 14.602 18.5674 15.2787C19.3348 16.022 19.7287 17.0782 19.4621 18.3241C19.1956 19.57 18.4041 20.3726 17.3997 20.7368C16.4852 21.0684 15.4858 21.01 14.6642 20.8342C12.9511 20.4677 11.7949 19.5437 11.2349 18.5564C10.8717 17.9159 11.0965 17.1021 11.737 16.7389C12.3776 16.3756 13.1913 16.6004 13.5546 17.2409C13.6959 17.4902 14.1645 18.0003 15.222 18.2266C15.7857 18.3472 16.2272 18.3254 16.4907 18.2299C16.6068 18.1878 16.6713 18.1382 16.7126 18.0917C16.7522 18.0469 16.8138 17.9565 16.8545 17.7662C16.8952 17.576 16.876 17.4683 16.8581 17.4112C16.8395 17.3519 16.8009 17.2802 16.7122 17.1943C16.5109 16.9994 16.117 16.7989 15.5533 16.6783C14.7317 16.5025 13.7958 16.1469 13.0971 15.4702C12.3296 14.7269 11.9358 13.6707 12.2023 12.4248C12.4689 11.1789 13.2604 10.3762 14.2648 10.012Z" fill="#C37808"/>
<path fill-rule="evenodd" clip-rule="evenodd" d="M17.4464 7.83753C18.1665 7.99158 18.6254 8.70021 18.4713 9.4203L18.0529 11.376C17.8988 12.0961 17.1902 12.555 16.4701 12.4009C15.75 12.2469 15.2912 11.5383 15.4452 10.8182L15.8636 8.86242C16.0177 8.14234 16.7263 7.68348 17.4464 7.83753Z" fill="#C37808"/>
<path fill-rule="evenodd" clip-rule="evenodd" d="M15.2238 18.2282C15.9438 18.3822 16.4027 19.0908 16.2486 19.8109L15.8302 21.7667C15.6762 22.4868 14.9676 22.9456 14.2475 22.7916C13.5274 22.6375 13.0685 21.9289 13.2226 21.2088L13.641 19.253C13.795 18.533 14.5037 18.0741 15.2238 18.2282Z" fill="#C37808"/>
<path fill-rule="evenodd" clip-rule="evenodd" d="M14.5489 10.7945C15.2599 10.5367 16.085 10.5701 16.826 10.7286C17.5582 10.8852 18.1246 11.1019 18.5896 11.4141C19.0582 11.7287 19.393 12.1197 19.6894 12.5775C19.8395 12.8093 19.7733 13.1189 19.5415 13.269C19.3097 13.419 19.0001 13.3528 18.8501 13.121C18.602 12.7379 18.3553 12.4613 18.0322 12.2443C17.7055 12.025 17.2699 11.8462 16.6168 11.7065C15.9725 11.5686 15.3567 11.5653 14.8898 11.7346C14.4566 11.8917 14.1244 12.2031 13.9951 12.8074C13.8659 13.4116 14.0416 13.8317 14.3725 14.1522C14.7293 14.4977 15.2926 14.7467 15.9369 14.8845C16.6779 15.0431 17.4444 15.3502 17.9877 15.8764C18.5568 16.4275 18.8514 17.1946 18.6473 18.1488C18.4431 19.1031 17.8604 19.6824 17.1157 19.9524C16.4046 20.2103 15.5796 20.1769 14.8386 20.0184C13.3303 19.6957 12.389 18.901 11.9599 18.1444C11.8237 17.9042 11.9079 17.599 12.1482 17.4628C12.3884 17.3266 12.6935 17.4109 12.8297 17.6511C13.1019 18.131 13.7854 18.7704 15.0478 19.0405C15.6921 19.1783 16.3079 19.1816 16.7748 19.0123C17.2079 18.8553 17.5402 18.5438 17.6694 17.9396C17.7987 17.3354 17.623 16.9153 17.292 16.5947C16.9352 16.2492 16.372 16.0003 15.7277 15.8624C14.9867 15.7039 14.2202 15.3967 13.6769 14.8706C13.1078 14.3195 12.8131 13.5524 13.0173 12.5982C13.2214 11.6439 13.8041 11.0646 14.5489 10.7945Z" fill="#FFB423"/>
<path fill-rule="evenodd" clip-rule="evenodd" d="M17.2721 8.65148C17.5422 8.70925 17.7142 8.97498 17.6565 9.24501L17.2381 11.2008C17.1803 11.4708 16.9146 11.6429 16.6445 11.5851C16.3745 11.5273 16.2024 11.2616 16.2602 10.9916L16.6786 9.03581C16.7364 8.76578 17.0021 8.59371 17.2721 8.65148Z" fill="#FFB423"/>
<path fill-rule="evenodd" clip-rule="evenodd" d="M15.0475 19.0421C15.3176 19.0999 15.4896 19.3656 15.4319 19.6356L15.0135 21.5914C14.9557 21.8614 14.69 22.0335 14.4199 21.9757C14.1499 21.9179 13.9778 21.6522 14.0356 21.3822L14.454 19.4264C14.5118 19.1564 14.7775 18.9843 15.0475 19.0421Z" fill="#FFB423"/>
<path fill-rule="evenodd" clip-rule="evenodd" d="M6.51219 12.1468C6.33975 12.0823 6.25219 11.8903 6.31663 11.7179C7.4672 8.63884 10.0438 6.25593 13.2439 5.37271C13.4214 5.32373 13.6049 5.42789 13.6539 5.60535C13.7029 5.78281 13.5987 5.96637 13.4213 6.01535C10.4288 6.84128 8.01744 9.07089 6.94112 11.9512C6.87668 12.1237 6.68464 12.2112 6.51219 12.1468Z" fill="#FFCF72"/>
<path fill-rule="evenodd" clip-rule="evenodd" d="M23.9716 20.3836C24.1273 20.4819 24.1737 20.6878 24.0754 20.8434C23.2957 22.0778 22.2618 23.1354 21.0472 23.943C20.8939 24.0449 20.687 24.0033 20.5851 23.85C20.4832 23.6967 20.5248 23.4898 20.6781 23.3878C21.8146 22.6322 22.7822 21.6423 23.5118 20.4874C23.6101 20.3317 23.816 20.2853 23.9716 20.3836Z" fill="#FFCF72"/>
<path fill-rule="evenodd" clip-rule="evenodd" d="M10.1849 7.6106C10.1849 7.61065 10.185 7.61056 10.1849 7.6106L10 7.33325C10.1849 7.6106 10.1849 7.61063 10.1849 7.6106L10.1837 7.61141L10.177 7.61601C10.1707 7.62033 10.1608 7.62714 10.1477 7.63635C10.1216 7.65477 10.0826 7.68277 10.0334 7.71971C9.93477 7.79366 9.79559 7.90298 9.6362 8.04244C9.31557 8.323 8.92204 8.71784 8.61072 9.18482C8.5086 9.338 8.30164 9.37939 8.14847 9.27727C7.99529 9.17515 7.9539 8.9682 8.05602 8.81502C8.41136 8.282 8.85117 7.84351 9.1972 7.54073C9.37115 7.38852 9.52363 7.26868 9.63337 7.18638C9.68829 7.14519 9.73264 7.1133 9.76378 7.09136C9.77936 7.08038 9.79164 7.07189 9.80031 7.06595L9.81055 7.05898L9.81357 7.05695L9.81453 7.0563L9.81488 7.05607C9.81494 7.05603 9.81514 7.0559 10 7.33325L9.81488 7.05607C9.96806 6.95395 10.1753 6.99518 10.2774 7.14835C10.3795 7.30146 10.3379 7.50844 10.1849 7.6106Z" fill="#FFE9AF"/>
<path fill-rule="evenodd" clip-rule="evenodd" d="M11.517 9.27857C11.5169 9.27862 11.517 9.27853 11.517 9.27857L11.3321 9.00122C11.517 9.27857 11.5169 9.2786 11.517 9.27857L11.5158 9.27938L11.509 9.28398C11.5027 9.2883 11.4929 9.29511 11.4798 9.30431C11.4536 9.32274 11.4146 9.35074 11.3654 9.38768C11.2668 9.46163 11.1276 9.57095 10.9682 9.71041C10.6476 9.99097 10.2541 10.3858 9.94275 10.8528C9.84063 11.006 9.63368 11.0474 9.4805 10.9452C9.32732 10.8431 9.28593 10.6362 9.38805 10.483C9.74339 9.94997 10.1832 9.51148 10.5292 9.20869C10.7032 9.05649 10.8557 8.93665 10.9654 8.85435C11.0203 8.81316 11.0647 8.78127 11.0958 8.75933C11.1114 8.74835 11.1237 8.73986 11.1323 8.73392L11.1426 8.72695L11.1456 8.72492L11.1466 8.72427L11.1469 8.72404C11.147 8.724 11.1472 8.72387 11.3321 9.00122L11.1469 8.72404C11.3001 8.62192 11.5073 8.66314 11.6094 8.81632C11.7115 8.96943 11.67 9.17641 11.517 9.27857Z" fill="white"/>
</svg>
