<svg width="32" height="32" viewBox="0 0 32 32" fill="none" xmlns="http://www.w3.org/2000/svg">
<path d="M26.0607 6.88539L19.5841 15.2015C19.2752 15.5982 19.4998 16.1811 19.9951 16.2678L24.5891 17.0722C25.1982 17.1789 25.3465 17.9854 24.8152 18.3017L9.459 27.4452C8.91499 27.7691 8.26819 27.2234 8.49585 26.6327L11.7696 18.1373C11.9206 17.7455 11.6762 17.3134 11.2625 17.2409L6.16552 16.3484C5.73017 16.2722 5.48815 15.8011 5.6797 15.4028L11.2629 3.79301C11.3923 3.524 11.6847 3.37378 11.9787 3.42526L25.6497 5.81908C26.145 5.90581 26.3696 6.48869 26.0607 6.88539Z" fill="#FFB547"/>
<path fill-rule="evenodd" clip-rule="evenodd" d="M26.5858 7.29331L20.1092 15.6094L24.7032 16.4138C25.9214 16.6271 26.218 18.2401 25.1554 18.8728L9.79918 28.0163C8.71117 28.6641 7.41755 27.5728 7.87289 26.3912L11.1467 17.8959L6.04965 17.0034C5.17894 16.8509 4.69491 15.9088 5.07801 15.1122L10.6612 3.50237C10.92 2.96436 11.5048 2.66391 12.0928 2.76688L25.7638 5.1607C26.7543 5.33415 27.2036 6.49992 26.5858 7.29331ZM19.5832 15.1998L26.0598 6.88368C26.3687 6.48699 26.1441 5.9041 25.6488 5.81738L11.9778 3.42355C11.6838 3.37207 11.3914 3.5223 11.262 3.7913L5.67882 15.4011C5.48727 15.7994 5.72928 16.2705 6.16463 16.3467L11.2617 17.2392C11.6753 17.3117 11.9197 17.7438 11.7687 18.1356L8.49496 26.6309C8.2673 27.2217 8.9141 27.7674 9.45811 27.4435L24.8143 18.3C25.3456 17.9836 25.1973 17.1772 24.5882 17.0705L19.9942 16.2661C19.4989 16.1794 19.2743 15.5965 19.5832 15.1998Z" fill="#604104"/>
<path d="M11.2633 3.79184C11.3927 3.52284 11.6851 3.37261 11.9791 3.4241L17.4242 4.37754L13.1877 13.3773L7.18945 12.2631L11.2633 3.79184Z" fill="#FFC369"/>
<path fill-rule="evenodd" clip-rule="evenodd" d="M12.4993 18.0048C12.67 18.0738 12.7525 18.2681 12.6835 18.4387L9.3085 26.7929C9.23954 26.9636 9.04527 27.0461 8.87458 26.9771C8.70389 26.9082 8.62141 26.7139 8.69037 26.5432L12.0654 18.189C12.1343 18.0183 12.3286 17.9359 12.4993 18.0048Z" fill="#FFE7A9"/>
<path d="M24.8152 18.2995L9.45898 27.443L21.6707 17.1896L21.3332 16.5117L24.5891 17.07C25.1982 17.1767 25.3465 17.9832 24.8152 18.2995Z" fill="#C87719"/>
<path d="M26.0602 6.88186L19.5836 15.198C19.2759 15.5931 19.4975 16.1728 19.9886 16.2632L16.666 15.6667L22.9994 5.35156L25.6492 5.81556C26.1445 5.90228 26.3691 6.48517 26.0602 6.88186Z" fill="#C87719"/>
<path fill-rule="evenodd" clip-rule="evenodd" d="M9.88923 27.9513C9.86103 27.9752 9.8309 27.9967 9.79914 28.0156C8.71114 28.6634 7.41752 27.5721 7.87285 26.3905L11.1466 17.8952L6.04961 17.0027C5.1789 16.8502 4.69488 15.9081 5.07798 15.1115L10.6612 3.50166C10.9199 2.96365 11.5047 2.6632 12.0928 2.76616L22.1473 4.52674C23.0747 4.68912 23.5462 5.73544 23.0536 6.53774L17.7436 15.1861L20.8973 15.7595C22.0051 15.9609 22.3799 17.36 21.5211 18.0883L9.88923 27.9513ZM20.778 16.4154C21.3319 16.5161 21.5193 17.2157 21.0899 17.5798L9.45807 27.4428C8.91407 27.7667 8.26726 27.221 8.49493 26.6302L11.7687 18.1349C11.9197 17.7431 11.6752 17.3109 11.2616 17.2385L6.1646 16.346C5.72924 16.2698 5.48723 15.7987 5.67878 15.4004L11.262 3.79059C11.3914 3.52158 11.6838 3.37136 11.9778 3.42284L22.0323 5.18342C22.496 5.26461 22.7318 5.78776 22.4855 6.18892L16.6656 15.6677L20.778 16.4154Z" fill="#604104"/>
<path d="M16.6667 15.6671L22.4866 6.18829C22.7329 5.78714 22.4971 5.26398 22.0334 5.18279L20.8333 4.97266L15.5 15.3337L16.6667 15.6671Z" fill="#E78F28"/>
<path fill-rule="evenodd" clip-rule="evenodd" d="M11.8122 4.03347C11.9778 4.11379 12.047 4.31318 11.9667 4.47883L6.63335 15.4788C6.55303 15.6445 6.35364 15.7137 6.18798 15.6333C6.02233 15.553 5.95316 15.3536 6.03347 15.188L11.3668 4.18798C11.4471 4.02233 11.6465 3.95316 11.8122 4.03347Z" fill="#FFE7A9"/>
<path fill-rule="evenodd" clip-rule="evenodd" d="M7.97883 11.9397C8.14448 12.02 8.21366 12.2194 8.13335 12.3851L6.63335 15.4788C6.55303 15.6445 6.35364 15.7137 6.18798 15.6333C6.02233 15.553 5.95316 15.3536 6.03347 15.188L7.53347 12.0942C7.61379 11.9286 7.81318 11.8594 7.97883 11.9397Z" fill="#FFF5DB"/>
<path d="M22.1443 10.8082C22.0769 10.9577 21.9202 11.0328 21.7944 10.9761C21.6685 10.9193 21.6211 10.7521 21.6885 10.6027C21.7559 10.4532 21.9126 10.378 22.0384 10.4348C22.1643 10.4916 22.2117 10.6587 22.1443 10.8082Z" fill="#AD6209"/>
<path d="M21.2107 12.5543C21.1433 12.7038 20.9866 12.7789 20.8608 12.7222C20.7349 12.6654 20.6875 12.4982 20.7549 12.3488C20.8223 12.1993 20.979 12.1241 21.1049 12.1809C21.2307 12.2377 21.2781 12.4048 21.2107 12.5543Z" fill="#AD6209"/>
<path d="M21.4008 11.5248C21.3088 11.7288 21.095 11.8313 20.9232 11.7539C20.7515 11.6764 20.6868 11.4483 20.7788 11.2443C20.8707 11.0403 21.0846 10.9378 21.2563 11.0152C21.4281 11.0927 21.4927 11.3208 21.4008 11.5248Z" fill="#AD6209"/>
<path d="M23.4041 9.48399C23.3367 9.63345 23.18 9.70861 23.0541 9.65184C22.9283 9.59508 22.8809 9.42791 22.9483 9.27844C23.0157 9.12898 23.1723 9.05383 23.2982 9.11059C23.4241 9.16735 23.4715 9.33453 23.4041 9.48399Z" fill="#AD6209"/>
<path d="M22.5416 9.70793C22.4933 9.81488 22.3812 9.86866 22.2911 9.82804C22.2011 9.78742 22.1672 9.6678 22.2154 9.56084C22.2636 9.45389 22.3757 9.40011 22.4658 9.44073C22.5559 9.48135 22.5898 9.60098 22.5416 9.70793Z" fill="#AD6209"/>
<path d="M22.8677 10.5087C22.8195 10.6157 22.7074 10.6694 22.6173 10.6288C22.5273 10.5882 22.4933 10.4686 22.5416 10.3616C22.5898 10.2547 22.7019 10.2009 22.792 10.2415C22.8821 10.2821 22.916 10.4018 22.8677 10.5087Z" fill="#AD6209"/>
<path d="M21.8482 11.8837C21.8 11.9907 21.6879 12.0444 21.5978 12.0038C21.5077 11.9632 21.4738 11.8436 21.522 11.7366C21.5703 11.6297 21.6824 11.5759 21.7725 11.6165C21.8625 11.6571 21.8964 11.7768 21.8482 11.8837Z" fill="#AD6209"/>
<path d="M20.2427 13.0204C20.1945 13.1274 20.0824 13.1812 19.9923 13.1405C19.9023 13.0999 19.8683 12.9803 19.9166 12.8733C19.9648 12.7664 20.0769 12.7126 20.167 12.7532C20.2571 12.7938 20.291 12.9135 20.2427 13.0204Z" fill="#AD6209"/>
<path d="M21.8482 9.85637C21.8 9.96332 21.6879 10.0171 21.5978 9.97648C21.5077 9.93586 21.4738 9.81623 21.522 9.70928C21.5703 9.60233 21.6824 9.54855 21.7725 9.58917C21.8625 9.62978 21.8964 9.74941 21.8482 9.85637Z" fill="#AD6209"/>
<path d="M22.8677 8.1884C22.8195 8.29535 22.7074 8.34913 22.6173 8.30851C22.5273 8.26789 22.4933 8.14826 22.5416 8.04131C22.5898 7.93436 22.7019 7.88058 22.792 7.9212C22.8821 7.96182 22.916 8.08144 22.8677 8.1884Z" fill="#AD6209"/>
<path d="M24.1587 8.39543C24.1105 8.50238 23.9984 8.55616 23.9083 8.51554C23.8183 8.47492 23.7844 8.3553 23.8326 8.24834C23.8808 8.14139 23.9929 8.08761 24.083 8.12823C24.1731 8.16885 24.207 8.28848 24.1587 8.39543Z" fill="#AD6209"/>
<path fill-rule="evenodd" clip-rule="evenodd" d="M20.6853 16.8931C20.8076 17.0307 20.7953 17.2413 20.6577 17.3637L14.2619 23.0512C14.1243 23.1735 13.9136 23.1612 13.7913 23.0236C13.6689 22.886 13.6813 22.6753 13.8189 22.553L20.2147 16.8655C20.3523 16.7432 20.563 16.7555 20.6853 16.8931Z" fill="#F0A637"/>
<path fill-rule="evenodd" clip-rule="evenodd" d="M19.982 5.05911C20.1464 5.1419 20.2126 5.34231 20.1298 5.50674L15.5882 14.5276C15.5054 14.692 15.305 14.7582 15.1405 14.6754C14.9761 14.5926 14.9099 14.3922 14.9927 14.2278L19.5344 5.20695C19.6172 5.04252 19.8176 4.97633 19.982 5.05911Z" fill="#F0A637"/>
<path d="M18.214 17.1912C18.1651 17.3687 17.9995 17.4779 17.8442 17.435C17.689 17.3922 17.6027 17.2137 17.6516 17.0362C17.7006 16.8587 17.8661 16.7495 18.0214 16.7924C18.1767 16.8352 18.2629 17.0137 18.214 17.1912Z" fill="#FFC670"/>
<path d="M17.1796 18.4451C17.1464 18.5658 17.0338 18.64 16.9282 18.6109C16.8225 18.5818 16.7639 18.4604 16.7972 18.3397C16.8304 18.2189 16.943 18.1447 17.0487 18.1738C17.1543 18.2029 17.2129 18.3244 17.1796 18.4451Z" fill="#FFC670"/>
<path d="M15.8593 19.0662C15.8261 19.1869 15.7135 19.2611 15.6078 19.232C15.5022 19.2029 15.4436 19.0815 15.4769 18.9607C15.5101 18.84 15.6227 18.7658 15.7283 18.7949C15.834 18.824 15.8926 18.9455 15.8593 19.0662Z" fill="#FFC670"/>
<path d="M17.1796 17.1795C17.1464 17.3002 17.0338 17.3744 16.9282 17.3453C16.8225 17.3162 16.7639 17.1947 16.7972 17.074C16.8304 16.9533 16.943 16.8791 17.0487 16.9082C17.1543 16.9373 17.2129 17.0588 17.1796 17.1795Z" fill="#FFC670"/>
<path d="M19.3886 16.9334C19.3554 17.0541 19.2428 17.1283 19.1371 17.0992C19.0315 17.0701 18.9729 16.9486 19.0062 16.8279C19.0394 16.7072 19.152 16.633 19.2576 16.6621C19.3633 16.6912 19.4219 16.8127 19.3886 16.9334Z" fill="#FFC670"/>
<path d="M18.4366 17.8441C18.4133 17.9287 18.3345 17.9807 18.2605 17.9603C18.1865 17.9399 18.1454 17.8548 18.1687 17.7703C18.192 17.6857 18.2709 17.6337 18.3449 17.6541C18.4189 17.6745 18.4599 17.7596 18.4366 17.8441Z" fill="#FFC670"/>
<path d="M16.4679 19.5082C16.4446 19.5927 16.3657 19.6447 16.2917 19.6243C16.2178 19.604 16.1767 19.5189 16.2 19.4343C16.2233 19.3498 16.3022 19.2978 16.3761 19.3182C16.4501 19.3386 16.4912 19.4236 16.4679 19.5082Z" fill="#FFC670"/>
<path d="M16.7804 16.4183C16.7571 16.5029 16.6782 16.5549 16.6042 16.5345C16.5303 16.5141 16.4892 16.429 16.5125 16.3445C16.5358 16.2599 16.6147 16.2079 16.6886 16.2283C16.7626 16.2487 16.8037 16.3338 16.7804 16.4183Z" fill="#FFC670"/>
<path d="M18.7042 16.6488C18.6809 16.7334 18.602 16.7854 18.5281 16.765C18.4541 16.7446 18.413 16.6595 18.4363 16.575C18.4596 16.4904 18.5385 16.4384 18.6125 16.4588C18.6864 16.4792 18.7275 16.5643 18.7042 16.6488Z" fill="#FFC670"/>
<path d="M17.8722 18.1058C17.8489 18.1904 17.77 18.2424 17.696 18.222C17.6221 18.2016 17.581 18.1165 17.6043 18.032C17.6276 17.9474 17.7065 17.8954 17.7804 17.9158C17.8544 17.9362 17.8955 18.0213 17.8722 18.1058Z" fill="#FFC670"/>
<path d="M16.4679 17.3793C16.4446 17.4638 16.3657 17.5158 16.2917 17.4954C16.2178 17.475 16.1767 17.39 16.2 17.3054C16.2233 17.2209 16.3022 17.1689 16.3761 17.1893C16.4501 17.2097 16.4912 17.2947 16.4679 17.3793Z" fill="#FFC670"/>
<path d="M16.6944 17.9183C16.6711 18.0029 16.5923 18.0549 16.5183 18.0345C16.4443 18.0141 16.4032 17.929 16.4265 17.8445C16.4499 17.7599 16.5287 17.7079 16.6027 17.7283C16.6767 17.7487 16.7178 17.8338 16.6944 17.9183Z" fill="#FFC670"/>
<path d="M15.3331 20.3754C15.3098 20.4599 15.2309 20.5119 15.157 20.4915C15.083 20.4711 15.0419 20.3861 15.0652 20.3015C15.0885 20.217 15.1674 20.165 15.2414 20.1854C15.3154 20.2058 15.3564 20.2908 15.3331 20.3754Z" fill="#FFC670"/>
</svg>
