<svg width="253" height="211" viewBox="0 0 253 211" fill="none" xmlns="http://www.w3.org/2000/svg">
<rect width="253" height="211" rx="16" fill="url(#paint0_linear_723_9624)"/>
<path d="M29.811 47.5H32.971C33.1177 47.5 33.2443 47.5533 33.351 47.66C33.4577 47.7667 33.511 47.8933 33.511 48.04V60.96C33.511 61.1067 33.4577 61.2333 33.351 61.34C33.2443 61.4467 33.1177 61.5 32.971 61.5H29.351C29.2043 61.5 29.0777 61.4467 28.971 61.34C28.8643 61.2333 28.811 61.1067 28.811 60.96V55.48L27.491 57.64C27.2777 57.9733 27.031 58.14 26.751 58.14H25.351C25.071 58.14 24.8243 57.9733 24.611 57.64L23.291 55.48V60.96C23.291 61.1067 23.2377 61.2333 23.131 61.34C23.0243 61.4467 22.8977 61.5 22.751 61.5H19.131C18.9843 61.5 18.8577 61.4467 18.751 61.34C18.6443 61.2333 18.591 61.1067 18.591 60.96V48.04C18.591 47.8933 18.6443 47.7667 18.751 47.66C18.8577 47.5533 18.9843 47.5 19.131 47.5H22.291C22.6643 47.5 22.951 47.68 23.151 48.04L26.051 52.84L28.951 48.04C29.151 47.68 29.4377 47.5 29.811 47.5ZM35.5105 56.98V55.62C35.5105 54.1 36.0505 52.9333 37.1305 52.12C38.2105 51.3067 39.6039 50.9 41.3105 50.9C43.0172 50.9 44.4105 51.3067 45.4905 52.12C46.5705 52.9333 47.1105 54.1 47.1105 55.62V56.98C47.1105 58.5133 46.5905 59.6867 45.5505 60.5C44.5105 61.3 43.0972 61.7 41.3105 61.7C39.5239 61.7 38.1105 61.3 37.0705 60.5C36.0305 59.6867 35.5105 58.5133 35.5105 56.98ZM42.2105 57.14V55.46C42.2105 54.9533 42.1439 54.6 42.0105 54.4C41.8772 54.2 41.6439 54.1 41.3105 54.1C40.9772 54.1 40.7439 54.2 40.6105 54.4C40.4772 54.6 40.4105 54.9533 40.4105 55.46V57.14C40.4105 57.6733 40.4772 58.0333 40.6105 58.22C40.7439 58.4067 40.9772 58.5 41.3105 58.5C41.6439 58.5 41.8772 58.4 42.0105 58.2C42.1439 58 42.2105 57.6467 42.2105 57.14ZM53.1984 51.64V52.34C54.1317 51.5133 55.1717 51.1 56.3184 51.1H57.2784C57.425 51.1 57.5517 51.1533 57.6584 51.26C57.765 51.3667 57.8184 51.4933 57.8184 51.64V54.76C57.8184 54.9067 57.765 55.0333 57.6584 55.14C57.5517 55.2467 57.425 55.3 57.2784 55.3H54.6984C54.3384 55.3 54.0517 55.3867 53.8384 55.56C53.6384 55.72 53.525 55.94 53.4984 56.22V60.96C53.4984 61.1067 53.445 61.2333 53.3384 61.34C53.2317 61.4467 53.105 61.5 52.9584 61.5H49.1584C49.0117 61.5 48.885 61.4467 48.7784 61.34C48.6717 61.2333 48.6184 61.1067 48.6184 60.96V51.64C48.6184 51.4933 48.6717 51.3667 48.7784 51.26C48.885 51.1533 49.0117 51.1 49.1584 51.1H52.6584C52.805 51.1 52.9317 51.1533 53.0384 51.26C53.145 51.3667 53.1984 51.4933 53.1984 51.64ZM69.9838 57.48H64.0238V57.58C64.0238 58.3933 64.2838 58.8 64.8038 58.8C64.9505 58.8 65.1305 58.6933 65.3438 58.48C65.5572 58.2667 65.7905 58.16 66.0438 58.16H69.8238C70.1172 58.16 70.2638 58.3067 70.2638 58.6C70.2638 59.2533 69.7705 59.9333 68.7838 60.64C67.8105 61.3467 66.4838 61.7 64.8038 61.7C63.1372 61.7 61.7705 61.2667 60.7038 60.4C59.6505 59.52 59.1238 58.3133 59.1238 56.78V55.82C59.1238 54.3667 59.6638 53.1867 60.7438 52.28C61.8238 51.36 63.2372 50.9 64.9838 50.9C66.7438 50.9 68.1038 51.4133 69.0638 52.44C70.0372 53.4667 70.5238 54.7667 70.5238 56.34V56.94C70.5238 57.0867 70.4705 57.2133 70.3638 57.32C70.2572 57.4267 70.1305 57.48 69.9838 57.48ZM65.6238 54.9C65.6238 54.1 65.3572 53.7 64.8238 53.7C64.2905 53.7 64.0238 54.1 64.0238 54.9V54.98H65.6238V54.9ZM85.4976 53.06H90.9976C91.1442 53.06 91.2709 53.1133 91.3776 53.22C91.4842 53.3267 91.5376 53.4533 91.5376 53.6V56.2C91.5376 57.96 90.9109 59.32 89.6576 60.28C88.4042 61.2267 86.7309 61.7 84.6376 61.7C82.5576 61.7 80.9176 61.24 79.7176 60.32C78.5176 59.3867 77.9176 57.9933 77.9176 56.14V52.78C77.9176 51.0067 78.5309 49.6533 79.7576 48.72C80.9842 47.7733 82.6176 47.3 84.6576 47.3C86.7109 47.3 88.3709 47.7333 89.6376 48.6C90.9042 49.4533 91.5376 50.5067 91.5376 51.76C91.5376 51.88 91.4909 51.9867 91.3976 52.08C91.3176 52.16 91.2176 52.2 91.0976 52.2H86.6776C86.4109 52.2 86.2176 52.1267 86.0976 51.98C85.8309 51.6333 85.6309 51.4333 85.4976 51.38C85.1909 51.26 84.9109 51.2 84.6576 51.2C83.6309 51.2 83.1176 51.7 83.1176 52.7V56.1C83.1176 57.2333 83.6642 57.8 84.7576 57.8C85.8776 57.8 86.4376 57.32 86.4376 56.36H85.4976C85.3509 56.36 85.2242 56.3067 85.1176 56.2C85.0109 56.0933 84.9576 55.9667 84.9576 55.82V53.6C84.9576 53.4533 85.0109 53.3267 85.1176 53.22C85.2242 53.1133 85.3509 53.06 85.4976 53.06ZM93.1473 58.52C93.1473 56.72 94.6073 55.5667 97.5273 55.06L99.6473 54.72C99.6473 54.32 99.6139 54.0533 99.5473 53.92C99.4806 53.7733 99.3206 53.7 99.0673 53.7C98.8273 53.7 98.5873 53.8067 98.3473 54.02C98.1073 54.2333 97.8806 54.34 97.6673 54.34H94.2673C93.9739 54.34 93.8273 54.2 93.8273 53.92C93.8273 53.6267 93.9273 53.32 94.1273 53C94.3406 52.6667 94.6406 52.34 95.0273 52.02C95.4273 51.7 95.9806 51.4333 96.6873 51.22C97.4073 51.0067 98.2073 50.9 99.0873 50.9C100.874 50.9 102.214 51.2733 103.107 52.02C104.001 52.7667 104.447 53.8333 104.447 55.22V60.96C104.447 61.1067 104.394 61.2333 104.287 61.34C104.181 61.4467 104.054 61.5 103.907 61.5H100.407C100.261 61.5 100.134 61.4467 100.027 61.34C99.9206 61.2333 99.8673 61.1067 99.8673 60.96V60.4C99.2406 61.2667 98.3273 61.7 97.1273 61.7C95.9273 61.7 94.9606 61.4 94.2273 60.8C93.5073 60.1867 93.1473 59.4267 93.1473 58.52ZM98.4073 58.74C99.2739 58.74 99.7073 58.22 99.7073 57.18L98.5273 57.44C97.9406 57.5733 97.6473 57.82 97.6473 58.18C97.6473 58.34 97.7139 58.4733 97.8473 58.58C97.9806 58.6867 98.1673 58.74 98.4073 58.74ZM117.998 54.48C117.785 54.48 117.598 54.56 117.438 54.72C117.291 54.88 117.218 55.12 117.218 55.44V60.96C117.218 61.1067 117.165 61.2333 117.058 61.34C116.951 61.4467 116.825 61.5 116.678 61.5H113.158C113.011 61.5 112.885 61.4467 112.778 61.34C112.671 61.2333 112.618 61.1067 112.618 60.96V55.58C112.618 54.8467 112.351 54.48 111.818 54.48C111.591 54.48 111.398 54.5667 111.238 54.74C111.091 54.9 111.018 55.1267 111.018 55.42V60.96C111.018 61.1067 110.965 61.2333 110.858 61.34C110.751 61.4467 110.625 61.5 110.478 61.5H106.878C106.731 61.5 106.605 61.4467 106.498 61.34C106.391 61.2333 106.338 61.1067 106.338 60.96V51.64C106.338 51.4933 106.391 51.3667 106.498 51.26C106.605 51.1533 106.731 51.1 106.878 51.1H110.178C110.325 51.1 110.451 51.1533 110.558 51.26C110.665 51.3667 110.718 51.4933 110.718 51.64V52.3C110.985 51.9533 111.365 51.64 111.858 51.36C112.405 51.0533 113.018 50.9 113.698 50.9C115.165 50.9 116.151 51.4467 116.658 52.54C116.978 52.0733 117.418 51.6867 117.978 51.38C118.538 51.06 119.118 50.9 119.718 50.9C120.798 50.9 121.678 51.28 122.358 52.04C123.051 52.8 123.398 53.9333 123.398 55.44V60.96C123.398 61.1067 123.345 61.2333 123.238 61.34C123.131 61.4467 123.005 61.5 122.858 61.5H119.338C119.191 61.5 119.065 61.4467 118.958 61.34C118.851 61.2333 118.798 61.1067 118.798 60.96V55.58C118.798 54.8467 118.531 54.48 117.998 54.48ZM135.863 57.48H129.903V57.58C129.903 58.3933 130.163 58.8 130.683 58.8C130.829 58.8 131.009 58.6933 131.223 58.48C131.436 58.2667 131.669 58.16 131.923 58.16H135.703C135.996 58.16 136.143 58.3067 136.143 58.6C136.143 59.2533 135.649 59.9333 134.663 60.64C133.689 61.3467 132.363 61.7 130.683 61.7C129.016 61.7 127.649 61.2667 126.583 60.4C125.529 59.52 125.003 58.3133 125.003 56.78V55.82C125.003 54.3667 125.543 53.1867 126.623 52.28C127.703 51.36 129.116 50.9 130.863 50.9C132.623 50.9 133.983 51.4133 134.943 52.44C135.916 53.4667 136.403 54.7667 136.403 56.34V56.94C136.403 57.0867 136.349 57.2133 136.243 57.32C136.136 57.4267 136.009 57.48 135.863 57.48ZM131.503 54.9C131.503 54.1 131.236 53.7 130.703 53.7C130.169 53.7 129.903 54.1 129.903 54.9V54.98H131.503V54.9ZM143.636 58.62C143.636 58.4867 143.602 58.38 143.536 58.3C143.362 58.0867 142.722 57.88 141.616 57.68C140.509 57.4667 139.609 57.1 138.916 56.58C138.236 56.0467 137.896 55.3067 137.896 54.36C137.896 53.4133 138.349 52.6 139.256 51.92C140.162 51.24 141.382 50.9 142.916 50.9C144.462 50.9 145.729 51.22 146.716 51.86C147.702 52.5 148.196 53.1467 148.196 53.8C148.196 53.9467 148.149 54.0733 148.056 54.18C147.976 54.2867 147.876 54.34 147.756 54.34H144.396C144.196 54.34 143.949 54.2333 143.656 54.02C143.362 53.8067 143.142 53.7 142.996 53.7C142.689 53.7 142.536 53.8067 142.536 54.02C142.536 54.1533 142.569 54.26 142.636 54.34C142.809 54.54 143.536 54.7333 144.816 54.92C146.096 55.1067 147.049 55.52 147.676 56.16C148.316 56.7867 148.636 57.4867 148.636 58.26C148.636 59.34 148.149 60.1867 147.176 60.8C146.202 61.4133 144.822 61.72 143.036 61.72C142.089 61.72 141.249 61.6133 140.516 61.4C139.782 61.1867 139.222 60.92 138.836 60.6C138.076 59.9733 137.696 59.3867 137.696 58.84C137.696 58.6933 137.742 58.5667 137.836 58.46C137.929 58.3533 138.042 58.3 138.176 58.3H141.656C141.842 58.3 142.082 58.4067 142.376 58.62C142.682 58.82 142.969 58.92 143.236 58.92C143.502 58.92 143.636 58.82 143.636 58.62ZM161.067 52.82V56.18C161.067 57.26 161.56 57.8 162.547 57.8C163.307 57.8 163.807 57.44 164.047 56.72C164.113 56.4933 164.193 56.34 164.287 56.26C164.393 56.18 164.56 56.14 164.787 56.14H168.867C168.987 56.14 169.087 56.1867 169.167 56.28C169.26 56.36 169.307 56.46 169.307 56.58C169.307 57.74 168.973 58.7133 168.307 59.5C167.08 60.9667 165.167 61.7 162.567 61.7C160.527 61.7 158.9 61.2533 157.687 60.36C156.473 59.4533 155.867 58.0667 155.867 56.2V52.8C155.867 50.9733 156.487 49.6 157.727 48.68C158.967 47.76 160.58 47.3 162.567 47.3C165.167 47.3 167.08 48.0333 168.307 49.5C168.973 50.2867 169.307 51.26 169.307 52.42C169.307 52.54 169.26 52.6467 169.167 52.74C169.087 52.82 168.987 52.86 168.867 52.86H164.787C164.573 52.86 164.413 52.82 164.307 52.74C164.213 52.66 164.127 52.5067 164.047 52.28C163.793 51.56 163.293 51.2 162.547 51.2C161.56 51.2 161.067 51.74 161.067 52.82ZM170.608 56.98V55.62C170.608 54.1 171.148 52.9333 172.228 52.12C173.308 51.3067 174.702 50.9 176.408 50.9C178.115 50.9 179.508 51.3067 180.588 52.12C181.668 52.9333 182.208 54.1 182.208 55.62V56.98C182.208 58.5133 181.688 59.6867 180.648 60.5C179.608 61.3 178.195 61.7 176.408 61.7C174.622 61.7 173.208 61.3 172.168 60.5C171.128 59.6867 170.608 58.5133 170.608 56.98ZM177.308 57.14V55.46C177.308 54.9533 177.242 54.6 177.108 54.4C176.975 54.2 176.742 54.1 176.408 54.1C176.075 54.1 175.842 54.2 175.708 54.4C175.575 54.6 175.508 54.9533 175.508 55.46V57.14C175.508 57.6733 175.575 58.0333 175.708 58.22C175.842 58.4067 176.075 58.5 176.408 58.5C176.742 58.5 176.975 58.4 177.108 58.2C177.242 58 177.308 57.6467 177.308 57.14ZM195.576 54.48C195.363 54.48 195.176 54.56 195.016 54.72C194.869 54.88 194.796 55.12 194.796 55.44V60.96C194.796 61.1067 194.743 61.2333 194.636 61.34C194.529 61.4467 194.403 61.5 194.256 61.5H190.736C190.589 61.5 190.463 61.4467 190.356 61.34C190.249 61.2333 190.196 61.1067 190.196 60.96V55.58C190.196 54.8467 189.929 54.48 189.396 54.48C189.169 54.48 188.976 54.5667 188.816 54.74C188.669 54.9 188.596 55.1267 188.596 55.42V60.96C188.596 61.1067 188.543 61.2333 188.436 61.34C188.329 61.4467 188.203 61.5 188.056 61.5H184.456C184.309 61.5 184.183 61.4467 184.076 61.34C183.969 61.2333 183.916 61.1067 183.916 60.96V51.64C183.916 51.4933 183.969 51.3667 184.076 51.26C184.183 51.1533 184.309 51.1 184.456 51.1H187.756C187.903 51.1 188.029 51.1533 188.136 51.26C188.243 51.3667 188.296 51.4933 188.296 51.64V52.3C188.563 51.9533 188.943 51.64 189.436 51.36C189.983 51.0533 190.596 50.9 191.276 50.9C192.743 50.9 193.729 51.4467 194.236 52.54C194.556 52.0733 194.996 51.6867 195.556 51.38C196.116 51.06 196.696 50.9 197.296 50.9C198.376 50.9 199.256 51.28 199.936 52.04C200.629 52.8 200.976 53.9333 200.976 55.44V60.96C200.976 61.1067 200.923 61.2333 200.816 61.34C200.709 61.4467 200.583 61.5 200.436 61.5H196.916C196.769 61.5 196.643 61.4467 196.536 61.34C196.429 61.2333 196.376 61.1067 196.376 60.96V55.58C196.376 54.8467 196.109 54.48 195.576 54.48ZM207.001 61.5H203.421C203.274 61.5 203.148 61.4467 203.041 61.34C202.934 61.2333 202.881 61.1067 202.881 60.96V51.64C202.881 51.4933 202.934 51.3667 203.041 51.26C203.148 51.1533 203.274 51.1 203.421 51.1H207.001C207.148 51.1 207.274 51.1533 207.381 51.26C207.488 51.3667 207.541 51.4933 207.541 51.64V60.96C207.541 61.1067 207.488 61.2333 207.381 61.34C207.274 61.4467 207.148 61.5 207.001 61.5ZM207.441 47.24V49.66C207.441 49.8067 207.388 49.9333 207.281 50.04C207.174 50.1467 207.048 50.2 206.901 50.2H203.521C203.374 50.2 203.248 50.1467 203.141 50.04C203.034 49.9333 202.981 49.8067 202.981 49.66V47.24C202.981 47.0933 203.034 46.9667 203.141 46.86C203.248 46.7533 203.374 46.7 203.521 46.7H206.901C207.048 46.7 207.174 46.7533 207.281 46.86C207.388 46.9667 207.441 47.0933 207.441 47.24ZM221.321 55.44V60.96C221.321 61.1067 221.268 61.2333 221.161 61.34C221.054 61.4467 220.928 61.5 220.781 61.5H216.961C216.814 61.5 216.688 61.4467 216.581 61.34C216.474 61.2333 216.421 61.1067 216.421 60.96V55.58C216.421 54.8467 216.088 54.48 215.421 54.48C214.754 54.48 214.421 54.8467 214.421 55.58V60.96C214.421 61.1067 214.368 61.2333 214.261 61.34C214.154 61.4467 214.028 61.5 213.881 61.5H210.081C209.934 61.5 209.808 61.4467 209.701 61.34C209.594 61.2333 209.541 61.1067 209.541 60.96V51.64C209.541 51.4933 209.594 51.3667 209.701 51.26C209.808 51.1533 209.934 51.1 210.081 51.1H213.581C213.728 51.1 213.854 51.1533 213.961 51.26C214.068 51.3667 214.121 51.4933 214.121 51.64V52.3C214.468 51.8867 214.934 51.5533 215.521 51.3C216.121 51.0333 216.761 50.9 217.441 50.9C218.534 50.9 219.454 51.2867 220.201 52.06C220.948 52.82 221.321 53.9467 221.321 55.44ZM222.913 56.52V55.5C222.913 54.0067 223.313 52.8667 224.113 52.08C224.913 51.2933 225.933 50.9 227.173 50.9C228.413 50.9 229.393 51.3533 230.113 52.26V51.64C230.113 51.4933 230.166 51.3667 230.273 51.26C230.38 51.1533 230.506 51.1 230.653 51.1H234.153C234.3 51.1 234.426 51.1533 234.533 51.26C234.64 51.3667 234.693 51.4933 234.693 51.64L234.713 61.16C234.713 62.76 234.193 63.9467 233.153 64.72C232.113 65.5067 230.746 65.9 229.053 65.9C228 65.9 227.06 65.7533 226.233 65.46C225.406 65.18 224.786 64.8333 224.373 64.42C223.533 63.5933 223.113 62.8933 223.113 62.32C223.113 62.1733 223.166 62.0467 223.273 61.94C223.38 61.8333 223.506 61.78 223.653 61.78H227.553C227.793 61.78 227.986 61.9267 228.133 62.22C228.293 62.5267 228.566 62.68 228.953 62.68C229.526 62.68 229.813 62.32 229.813 61.6V60.18C229.16 60.7533 228.233 61.04 227.033 61.04C225.846 61.04 224.86 60.68 224.073 59.96C223.3 59.24 222.913 58.0933 222.913 56.52ZM228.813 57.56C229.44 57.56 229.773 57.2267 229.813 56.56V55.48C229.773 54.8133 229.44 54.48 228.813 54.48C228.146 54.48 227.813 54.8667 227.813 55.64V56.4C227.813 57.1733 228.146 57.56 228.813 57.56ZM94.1099 77.9C94.1099 76.54 94.6699 75.4333 95.7899 74.58C96.9233 73.7267 98.4033 73.3 100.23 73.3C102.07 73.3 103.57 73.7467 104.73 74.64C105.903 75.5333 106.49 76.4667 106.49 77.44C106.49 77.56 106.443 77.6667 106.35 77.76C106.27 77.84 106.177 77.88 106.07 77.88H102.07C101.763 77.88 101.483 77.7667 101.23 77.54C100.977 77.3133 100.637 77.2 100.21 77.2C99.5699 77.2 99.2499 77.3867 99.2499 77.76C99.2499 77.96 99.4033 78.1267 99.7099 78.26C100.03 78.3933 100.617 78.5133 101.47 78.62C103.457 78.8733 104.87 79.34 105.71 80.02C106.563 80.6867 106.99 81.7067 106.99 83.08C106.99 84.44 106.363 85.5533 105.11 86.42C103.87 87.2733 102.243 87.7 100.23 87.7C98.2166 87.7 96.6366 87.2867 95.4899 86.46C94.3433 85.6333 93.7699 84.6267 93.7699 83.44C93.7699 83.32 93.8099 83.22 93.8899 83.14C93.9833 83.0467 94.0899 83 94.2099 83H98.0099C98.2899 83 98.5966 83.1333 98.9299 83.4C99.2766 83.6667 99.7499 83.8 100.35 83.8C101.35 83.8 101.85 83.6133 101.85 83.24C101.85 83 101.67 82.82 101.31 82.7C100.95 82.5667 100.27 82.4333 99.2699 82.3C95.8299 81.8467 94.1099 80.38 94.1099 77.9ZM108.284 82.98V81.62C108.284 80.1 108.824 78.9333 109.904 78.12C110.984 77.3067 112.377 76.9 114.084 76.9C115.791 76.9 117.184 77.3067 118.264 78.12C119.344 78.9333 119.884 80.1 119.884 81.62V82.98C119.884 84.5133 119.364 85.6867 118.324 86.5C117.284 87.3 115.871 87.7 114.084 87.7C112.297 87.7 110.884 87.3 109.844 86.5C108.804 85.6867 108.284 84.5133 108.284 82.98ZM114.984 83.14V81.46C114.984 80.9533 114.917 80.6 114.784 80.4C114.651 80.2 114.417 80.1 114.084 80.1C113.751 80.1 113.517 80.2 113.384 80.4C113.251 80.6 113.184 80.9533 113.184 81.46V83.14C113.184 83.6733 113.251 84.0333 113.384 84.22C113.517 84.4067 113.751 84.5 114.084 84.5C114.417 84.5 114.651 84.4 114.784 84.2C114.917 84 114.984 83.6467 114.984 83.14ZM121.292 82.98V81.62C121.292 80.1 121.832 78.9333 122.912 78.12C123.992 77.3067 125.385 76.9 127.092 76.9C128.798 76.9 130.192 77.3067 131.272 78.12C132.352 78.9333 132.892 80.1 132.892 81.62V82.98C132.892 84.5133 132.372 85.6867 131.332 86.5C130.292 87.3 128.878 87.7 127.092 87.7C125.305 87.7 123.892 87.3 122.852 86.5C121.812 85.6867 121.292 84.5133 121.292 82.98ZM127.992 83.14V81.46C127.992 80.9533 127.925 80.6 127.792 80.4C127.658 80.2 127.425 80.1 127.092 80.1C126.758 80.1 126.525 80.2 126.392 80.4C126.258 80.6 126.192 80.9533 126.192 81.46V83.14C126.192 83.6733 126.258 84.0333 126.392 84.22C126.525 84.4067 126.758 84.5 127.092 84.5C127.425 84.5 127.658 84.4 127.792 84.2C127.925 84 127.992 83.6467 127.992 83.14ZM146.38 81.44V86.96C146.38 87.1067 146.326 87.2333 146.22 87.34C146.113 87.4467 145.986 87.5 145.84 87.5H142.02C141.873 87.5 141.746 87.4467 141.64 87.34C141.533 87.2333 141.48 87.1067 141.48 86.96V81.58C141.48 80.8467 141.146 80.48 140.48 80.48C139.813 80.48 139.48 80.8467 139.48 81.58V86.96C139.48 87.1067 139.426 87.2333 139.32 87.34C139.213 87.4467 139.086 87.5 138.94 87.5H135.14C134.993 87.5 134.866 87.4467 134.76 87.34C134.653 87.2333 134.6 87.1067 134.6 86.96V77.64C134.6 77.4933 134.653 77.3667 134.76 77.26C134.866 77.1533 134.993 77.1 135.14 77.1H138.64C138.786 77.1 138.913 77.1533 139.02 77.26C139.126 77.3667 139.18 77.4933 139.18 77.64V78.3C139.526 77.8867 139.993 77.5533 140.58 77.3C141.18 77.0333 141.82 76.9 142.5 76.9C143.593 76.9 144.513 77.2867 145.26 78.06C146.006 78.82 146.38 79.9467 146.38 81.44ZM154.712 82.94H158.192C158.339 82.94 158.466 82.9933 158.572 83.1C158.679 83.2067 158.732 83.3333 158.732 83.48V86.96C158.732 87.1067 158.679 87.2333 158.572 87.34C158.466 87.4467 158.339 87.5 158.192 87.5H154.712C154.566 87.5 154.439 87.4467 154.332 87.34C154.226 87.2333 154.172 87.1067 154.172 86.96V83.48C154.172 83.3333 154.226 83.2067 154.332 83.1C154.439 82.9933 154.566 82.94 154.712 82.94ZM154.712 73.5H158.192C158.339 73.5 158.466 73.5533 158.572 73.66C158.679 73.7667 158.732 73.8933 158.732 74.04V81.6C158.732 81.7467 158.679 81.8733 158.572 81.98C158.466 82.0867 158.339 82.14 158.192 82.14H154.712C154.566 82.14 154.439 82.0867 154.332 81.98C154.226 81.8733 154.172 81.7467 154.172 81.6V74.04C154.172 73.8933 154.226 73.7667 154.332 73.66C154.439 73.5533 154.566 73.5 154.712 73.5Z" fill="white"/>
<rect x="25" y="122.5" width="203" height="46" rx="8" fill="#0D1017"/>
<path d="M88.068 150.5C87.9613 150.5 87.8707 150.468 87.796 150.404C87.732 150.329 87.7 150.239 87.7 150.132V139.508C87.7 139.401 87.732 139.316 87.796 139.252C87.8707 139.177 87.9613 139.14 88.068 139.14H88.82C88.9373 139.14 89.028 139.177 89.092 139.252C89.156 139.316 89.188 139.401 89.188 139.508V150.132C89.188 150.239 89.156 150.329 89.092 150.404C89.028 150.468 88.9373 150.5 88.82 150.5H88.068ZM94.8866 150.66C93.788 150.66 92.9133 150.324 92.2626 149.652C91.612 148.969 91.2546 148.041 91.1906 146.868C91.18 146.729 91.1746 146.553 91.1746 146.34C91.1746 146.116 91.18 145.935 91.1906 145.796C91.2333 145.039 91.4093 144.377 91.7186 143.812C92.028 143.236 92.4493 142.793 92.9826 142.484C93.5266 142.175 94.1613 142.02 94.8866 142.02C95.6973 142.02 96.3746 142.191 96.9186 142.532C97.4733 142.873 97.8946 143.359 98.1826 143.988C98.4706 144.617 98.6146 145.353 98.6146 146.196V146.468C98.6146 146.585 98.5773 146.676 98.5026 146.74C98.4386 146.804 98.3533 146.836 98.2466 146.836H92.7106C92.7106 146.847 92.7106 146.868 92.7106 146.9C92.7106 146.932 92.7106 146.959 92.7106 146.98C92.732 147.417 92.828 147.828 92.9986 148.212C93.1693 148.585 93.4146 148.889 93.7346 149.124C94.0546 149.359 94.4386 149.476 94.8866 149.476C95.2706 149.476 95.5906 149.417 95.8466 149.3C96.1026 149.183 96.3106 149.055 96.4706 148.916C96.6306 148.767 96.7373 148.655 96.7906 148.58C96.8866 148.441 96.9613 148.361 97.0146 148.34C97.068 148.308 97.1533 148.292 97.2706 148.292H98.0386C98.1453 148.292 98.2306 148.324 98.2946 148.388C98.3693 148.441 98.4013 148.521 98.3906 148.628C98.38 148.788 98.2946 148.985 98.1346 149.22C97.9746 149.444 97.7453 149.668 97.4466 149.892C97.148 150.116 96.7853 150.303 96.3586 150.452C95.932 150.591 95.4413 150.66 94.8866 150.66ZM92.7106 145.732H97.0946V145.684C97.0946 145.204 97.004 144.777 96.8226 144.404C96.652 144.031 96.4013 143.737 96.0706 143.524C95.74 143.3 95.3453 143.188 94.8866 143.188C94.428 143.188 94.0333 143.3 93.7026 143.524C93.3826 143.737 93.1373 144.031 92.9666 144.404C92.796 144.777 92.7106 145.204 92.7106 145.684V145.732ZM102.848 150.66C102.314 150.66 101.829 150.553 101.392 150.34C100.954 150.127 100.602 149.839 100.336 149.476C100.069 149.113 99.9358 148.703 99.9358 148.244C99.9358 147.508 100.234 146.921 100.832 146.484C101.429 146.047 102.208 145.759 103.168 145.62L105.552 145.284V144.82C105.552 144.308 105.402 143.908 105.104 143.62C104.816 143.332 104.341 143.188 103.68 143.188C103.2 143.188 102.81 143.284 102.512 143.476C102.224 143.668 102.021 143.913 101.904 144.212C101.84 144.372 101.728 144.452 101.568 144.452H100.848C100.73 144.452 100.64 144.42 100.576 144.356C100.522 144.281 100.496 144.196 100.496 144.1C100.496 143.94 100.554 143.743 100.672 143.508C100.8 143.273 100.992 143.044 101.248 142.82C101.504 142.596 101.829 142.409 102.224 142.26C102.629 142.1 103.12 142.02 103.696 142.02C104.336 142.02 104.874 142.105 105.312 142.276C105.749 142.436 106.09 142.655 106.336 142.932C106.592 143.209 106.773 143.524 106.88 143.876C106.997 144.228 107.056 144.585 107.056 144.948V150.132C107.056 150.239 107.018 150.329 106.944 150.404C106.88 150.468 106.794 150.5 106.688 150.5H105.952C105.834 150.5 105.744 150.468 105.68 150.404C105.616 150.329 105.584 150.239 105.584 150.132V149.444C105.445 149.636 105.258 149.828 105.024 150.02C104.789 150.201 104.496 150.356 104.144 150.484C103.792 150.601 103.36 150.66 102.848 150.66ZM103.184 149.46C103.621 149.46 104.021 149.369 104.384 149.188C104.746 148.996 105.029 148.703 105.232 148.308C105.445 147.913 105.552 147.417 105.552 146.82V146.372L103.696 146.644C102.938 146.751 102.368 146.932 101.984 147.188C101.6 147.433 101.408 147.748 101.408 148.132C101.408 148.431 101.493 148.681 101.664 148.884C101.845 149.076 102.069 149.22 102.336 149.316C102.613 149.412 102.896 149.46 103.184 149.46ZM109.724 150.5C109.617 150.5 109.527 150.468 109.452 150.404C109.388 150.329 109.356 150.239 109.356 150.132V142.564C109.356 142.457 109.388 142.367 109.452 142.292C109.527 142.217 109.617 142.18 109.724 142.18H110.46C110.567 142.18 110.657 142.217 110.732 142.292C110.807 142.367 110.844 142.457 110.844 142.564V143.268C111.057 142.905 111.351 142.633 111.724 142.452C112.097 142.271 112.545 142.18 113.068 142.18H113.708C113.815 142.18 113.9 142.217 113.964 142.292C114.028 142.356 114.06 142.441 114.06 142.548V143.204C114.06 143.311 114.028 143.396 113.964 143.46C113.9 143.524 113.815 143.556 113.708 143.556H112.748C112.172 143.556 111.719 143.727 111.388 144.068C111.057 144.399 110.892 144.852 110.892 145.428V150.132C110.892 150.239 110.855 150.329 110.78 150.404C110.705 150.468 110.615 150.5 110.508 150.5H109.724ZM115.802 150.5C115.695 150.5 115.605 150.468 115.53 150.404C115.466 150.329 115.434 150.239 115.434 150.132V142.548C115.434 142.441 115.466 142.356 115.53 142.292C115.605 142.217 115.695 142.18 115.802 142.18H116.554C116.661 142.18 116.746 142.217 116.81 142.292C116.885 142.356 116.922 142.441 116.922 142.548V143.252C117.199 142.889 117.546 142.596 117.962 142.372C118.389 142.137 118.933 142.02 119.594 142.02C120.287 142.02 120.874 142.175 121.354 142.484C121.845 142.783 122.213 143.204 122.458 143.748C122.703 144.281 122.826 144.905 122.826 145.62V150.132C122.826 150.239 122.794 150.329 122.73 150.404C122.666 150.468 122.581 150.5 122.474 150.5H121.674C121.567 150.5 121.477 150.468 121.402 150.404C121.338 150.329 121.306 150.239 121.306 150.132V145.7C121.306 144.953 121.125 144.372 120.762 143.956C120.399 143.529 119.866 143.316 119.162 143.316C118.501 143.316 117.967 143.529 117.562 143.956C117.167 144.372 116.97 144.953 116.97 145.7V150.132C116.97 150.239 116.933 150.329 116.858 150.404C116.794 150.468 116.709 150.5 116.602 150.5H115.802ZM129.427 150.5C129.32 150.5 129.23 150.468 129.155 150.404C129.091 150.329 129.059 150.239 129.059 150.132V142.548C129.059 142.441 129.091 142.356 129.155 142.292C129.23 142.217 129.32 142.18 129.427 142.18H130.147C130.254 142.18 130.339 142.217 130.403 142.292C130.478 142.356 130.515 142.441 130.515 142.548V143.108C130.76 142.777 131.07 142.516 131.443 142.324C131.816 142.121 132.264 142.02 132.787 142.02C133.992 142.009 134.846 142.5 135.347 143.492C135.592 143.044 135.95 142.687 136.419 142.42C136.888 142.153 137.422 142.02 138.019 142.02C138.574 142.02 139.075 142.148 139.523 142.404C139.982 142.66 140.339 143.049 140.595 143.572C140.862 144.084 140.995 144.729 140.995 145.508V150.132C140.995 150.239 140.958 150.329 140.883 150.404C140.819 150.468 140.734 150.5 140.627 150.5H139.875C139.768 150.5 139.678 150.468 139.603 150.404C139.539 150.329 139.507 150.239 139.507 150.132V145.652C139.507 145.055 139.422 144.585 139.251 144.244C139.08 143.903 138.851 143.663 138.563 143.524C138.275 143.385 137.96 143.316 137.619 143.316C137.342 143.316 137.059 143.385 136.771 143.524C136.483 143.663 136.243 143.903 136.051 144.244C135.87 144.585 135.779 145.055 135.779 145.652V150.132C135.779 150.239 135.742 150.329 135.667 150.404C135.603 150.468 135.518 150.5 135.411 150.5H134.659C134.552 150.5 134.462 150.468 134.387 150.404C134.323 150.329 134.291 150.239 134.291 150.132V145.652C134.291 145.055 134.2 144.585 134.019 144.244C133.838 143.903 133.603 143.663 133.315 143.524C133.027 143.385 132.723 143.316 132.403 143.316C132.126 143.316 131.843 143.385 131.555 143.524C131.267 143.663 131.027 143.903 130.835 144.244C130.654 144.585 130.563 145.049 130.563 145.636V150.132C130.563 150.239 130.526 150.329 130.451 150.404C130.387 150.468 130.302 150.5 130.195 150.5H129.427ZM146.686 150.66C145.875 150.66 145.198 150.505 144.654 150.196C144.11 149.887 143.694 149.46 143.406 148.916C143.118 148.361 142.958 147.732 142.926 147.028C142.915 146.847 142.91 146.617 142.91 146.34C142.91 146.052 142.915 145.823 142.926 145.652C142.958 144.937 143.118 144.308 143.406 143.764C143.704 143.22 144.126 142.793 144.67 142.484C145.214 142.175 145.886 142.02 146.686 142.02C147.486 142.02 148.158 142.175 148.702 142.484C149.246 142.793 149.662 143.22 149.95 143.764C150.248 144.308 150.414 144.937 150.446 145.652C150.456 145.823 150.462 146.052 150.462 146.34C150.462 146.617 150.456 146.847 150.446 147.028C150.414 147.732 150.254 148.361 149.966 148.916C149.678 149.46 149.262 149.887 148.718 150.196C148.174 150.505 147.496 150.66 146.686 150.66ZM146.686 149.428C147.347 149.428 147.875 149.22 148.27 148.804C148.664 148.377 148.878 147.759 148.91 146.948C148.92 146.788 148.926 146.585 148.926 146.34C148.926 146.095 148.92 145.892 148.91 145.732C148.878 144.921 148.664 144.308 148.27 143.892C147.875 143.465 147.347 143.252 146.686 143.252C146.024 143.252 145.491 143.465 145.086 143.892C144.691 144.308 144.483 144.921 144.462 145.732C144.451 145.892 144.446 146.095 144.446 146.34C144.446 146.585 144.451 146.788 144.462 146.948C144.483 147.759 144.691 148.377 145.086 148.804C145.491 149.22 146.024 149.428 146.686 149.428ZM152.833 150.5C152.727 150.5 152.636 150.468 152.561 150.404C152.497 150.329 152.465 150.239 152.465 150.132V142.564C152.465 142.457 152.497 142.367 152.561 142.292C152.636 142.217 152.727 142.18 152.833 142.18H153.569C153.676 142.18 153.767 142.217 153.841 142.292C153.916 142.367 153.953 142.457 153.953 142.564V143.268C154.167 142.905 154.46 142.633 154.833 142.452C155.207 142.271 155.655 142.18 156.177 142.18H156.817C156.924 142.18 157.009 142.217 157.073 142.292C157.137 142.356 157.169 142.441 157.169 142.548V143.204C157.169 143.311 157.137 143.396 157.073 143.46C157.009 143.524 156.924 143.556 156.817 143.556H155.857C155.281 143.556 154.828 143.727 154.497 144.068C154.167 144.399 154.001 144.852 154.001 145.428V150.132C154.001 150.239 153.964 150.329 153.889 150.404C153.815 150.468 153.724 150.5 153.617 150.5H152.833ZM161.699 150.66C160.6 150.66 159.726 150.324 159.075 149.652C158.424 148.969 158.067 148.041 158.003 146.868C157.992 146.729 157.987 146.553 157.987 146.34C157.987 146.116 157.992 145.935 158.003 145.796C158.046 145.039 158.222 144.377 158.531 143.812C158.84 143.236 159.262 142.793 159.795 142.484C160.339 142.175 160.974 142.02 161.699 142.02C162.51 142.02 163.187 142.191 163.731 142.532C164.286 142.873 164.707 143.359 164.995 143.988C165.283 144.617 165.427 145.353 165.427 146.196V146.468C165.427 146.585 165.39 146.676 165.315 146.74C165.251 146.804 165.166 146.836 165.059 146.836H159.523C159.523 146.847 159.523 146.868 159.523 146.9C159.523 146.932 159.523 146.959 159.523 146.98C159.544 147.417 159.64 147.828 159.811 148.212C159.982 148.585 160.227 148.889 160.547 149.124C160.867 149.359 161.251 149.476 161.699 149.476C162.083 149.476 162.403 149.417 162.659 149.3C162.915 149.183 163.123 149.055 163.283 148.916C163.443 148.767 163.55 148.655 163.603 148.58C163.699 148.441 163.774 148.361 163.827 148.34C163.88 148.308 163.966 148.292 164.083 148.292H164.851C164.958 148.292 165.043 148.324 165.107 148.388C165.182 148.441 165.214 148.521 165.203 148.628C165.192 148.788 165.107 148.985 164.947 149.22C164.787 149.444 164.558 149.668 164.259 149.892C163.96 150.116 163.598 150.303 163.171 150.452C162.744 150.591 162.254 150.66 161.699 150.66ZM159.523 145.732H163.907V145.684C163.907 145.204 163.816 144.777 163.635 144.404C163.464 144.031 163.214 143.737 162.883 143.524C162.552 143.3 162.158 143.188 161.699 143.188C161.24 143.188 160.846 143.3 160.515 143.524C160.195 143.737 159.95 144.031 159.779 144.404C159.608 144.777 159.523 145.204 159.523 145.684V145.732Z" fill="white"/>
<defs>
<linearGradient id="paint0_linear_723_9624" x1="253" y1="105.5" x2="82.7554" y2="173.326" gradientUnits="userSpaceOnUse">
<stop stop-color="#F59E0B"/>
<stop offset="1" stop-color="#10B981"/>
</linearGradient>
</defs>
</svg>
