<svg width="49" height="48" viewBox="0 0 49 48" fill="none" xmlns="http://www.w3.org/2000/svg">
<path fill-rule="evenodd" clip-rule="evenodd" d="M12.1062 4C9.71015 4 8.28098 6.67043 9.61009 8.6641L19.834 24L8.57364 40.8906C7.68756 42.2197 8.64035 44 10.2377 44H38.7637C40.3611 44 41.3138 42.2197 40.4278 40.8906L29.1674 24L39.3913 8.6641C40.7204 6.67044 39.2912 4 36.8951 4H12.1062Z" fill="#D7FDFF"/>
<path fill-rule="evenodd" clip-rule="evenodd" d="M8.77776 9.2188C7.00562 6.56058 8.91119 3 12.106 3H36.8949C40.0896 3 41.9952 6.56058 40.2231 9.2188L30.3689 24L41.2596 40.3359C42.5887 42.3296 41.1595 45 38.7634 45H10.2375C7.84138 45 6.4122 42.3296 7.74132 40.3359L18.6319 24L8.77776 9.2188ZM29.1671 24L39.391 8.6641C40.7201 6.67044 39.291 4 36.8949 4H12.106C9.70988 4 8.28071 6.67043 9.60982 8.6641L19.8338 24L8.57337 40.8906C7.68729 42.2197 8.64008 44 10.2375 44H38.7634C40.3608 44 41.3136 42.2197 40.4275 40.8906L29.1671 24Z" fill="#03265B"/>
<path d="M12.1062 4C9.71015 4 8.28098 6.67043 9.61009 8.6641L19.834 24L8.57364 40.8906C7.68756 42.2197 8.64035 44 10.2377 44H20.5007L24.5007 24L20.5007 4H12.1062Z" fill="#A4F3F8"/>
<path d="M12.1062 4C9.71015 4 8.28098 6.67043 9.61009 8.6641L19.834 24L8.57364 40.8906C7.68756 42.2197 8.64035 44 10.2377 44H16.5007L24.5007 24L16.5007 4H12.1062Z" fill="#F8FFFF"/>
<path d="M40.4271 40.8906C41.3131 42.2197 40.3604 44 38.763 44H32.5L24.5 24L32.5 4H36.8944C39.2905 4 40.7197 6.67044 39.3906 8.6641L29.1667 24L40.4271 40.8906Z" fill="#A4F3F8"/>
<path fill-rule="evenodd" clip-rule="evenodd" d="M9.61009 8.6641C8.28098 6.67043 9.71015 4 12.1062 4H15.1062C12.7102 4 11.281 6.67043 12.6101 8.6641L22.834 24L11.5736 40.8906C10.6876 42.2197 11.6403 44 13.2377 44H10.2377C8.64035 44 7.68756 42.2197 8.57364 40.8906L19.834 24L9.61009 8.6641Z" fill="#86F8FF"/>
<path fill-rule="evenodd" clip-rule="evenodd" d="M35.7633 44H38.7633C40.3607 44 41.3134 42.2197 40.4274 40.8906L29.167 24L39.3909 8.6641C40.72 6.67044 39.2908 4 36.8947 4H33.8948C36.2909 4 37.72 6.67044 36.3909 8.6641L26.167 24L37.4274 40.8906C38.3135 42.2197 37.3607 44 35.7633 44Z" fill="#15D6E2"/>
<path d="M10.2377 44C8.64035 44 7.68756 42.2197 8.57364 40.8906L14.2038 32.4453L17.0189 28.2227L31.9825 28.2227L34.7976 32.4453L40.4278 40.8906C41.3138 42.2197 40.3611 44 38.7637 44H10.2377Z" fill="#C25FFF"/>
<path fill-rule="evenodd" clip-rule="evenodd" d="M17 28.75C17 28.4739 17.2239 28.25 17.5 28.25H31.5C31.7761 28.25 32 28.4739 32 28.75C32 29.0261 31.7761 29.25 31.5 29.25H17.5C17.2239 29.25 17 29.0261 17 28.75Z" fill="#8232B2"/>
<path d="M26.0287 36.6711C26.0287 37.0498 25.7217 37.3568 25.3429 37.3568C24.9642 37.3568 24.6572 37.0498 24.6572 36.6711C24.6572 36.2924 24.9642 35.9854 25.3429 35.9854C25.7217 35.9854 26.0287 36.2924 26.0287 36.6711Z" fill="#FD89FF"/>
<path d="M31.3714 36.1857C31.3714 36.5644 31.0644 36.8714 30.6857 36.8714C30.307 36.8714 30 36.5644 30 36.1857C30 35.807 30.307 35.5 30.6857 35.5C31.0644 35.5 31.3714 35.807 31.3714 36.1857Z" fill="#FD89FF"/>
<path d="M21.2288 33.9289C21.2288 34.3076 20.9218 34.6146 20.5431 34.6146C20.1644 34.6146 19.8574 34.3076 19.8574 33.9289C19.8574 33.5502 20.1644 33.2432 20.5431 33.2432C20.9218 33.2432 21.2288 33.5502 21.2288 33.9289Z" fill="#FD89FF"/>
<path d="M19.1712 38.3576C19.1712 38.7363 18.8642 39.0433 18.4855 39.0433C18.1068 39.0433 17.7998 38.7363 17.7998 38.3576C17.7998 37.9789 18.1068 37.6719 18.4855 37.6719C18.8642 37.6719 19.1712 37.9789 19.1712 38.3576Z" fill="#FD89FF"/>
<path d="M15.057 35.3C15.057 35.6787 14.75 35.9857 14.3713 35.9857C13.9926 35.9857 13.6855 35.6787 13.6855 35.3C13.6855 34.9213 13.9926 34.6143 14.3713 34.6143C14.75 34.6143 15.057 34.9213 15.057 35.3Z" fill="#FD89FF"/>
<path d="M21.9144 40.9142C21.9144 41.2929 21.6074 41.5999 21.2287 41.5999C20.85 41.5999 20.543 41.2929 20.543 40.9142C20.543 40.5355 20.85 40.2285 21.2287 40.2285C21.6074 40.2285 21.9144 40.5355 21.9144 40.9142Z" fill="#FD89FF"/>
<path d="M26.3714 40.1857C26.3714 40.5644 26.0644 40.8714 25.6857 40.8714C25.307 40.8714 25 40.5644 25 40.1857C25 39.807 25.307 39.5 25.6857 39.5C26.0644 39.5 26.3714 39.807 26.3714 40.1857Z" fill="#FD89FF"/>
<path d="M32.1996 32.5568C32.1996 32.9355 31.8925 33.2425 31.5138 33.2425C31.1351 33.2425 30.8281 32.9355 30.8281 32.5568C30.8281 32.1781 31.1351 31.8711 31.5138 31.8711C31.8925 31.8711 32.1996 32.1781 32.1996 32.5568Z" fill="#FD89FF"/>
<path d="M33.8714 37.6857C33.8714 38.0644 33.5644 38.3714 33.1857 38.3714C32.807 38.3714 32.5 38.0644 32.5 37.6857C32.5 37.307 32.807 37 33.1857 37C33.5644 37 33.8714 37.307 33.8714 37.6857Z" fill="#FD89FF"/>
<path d="M37.0003 38.0431C37.0003 38.4218 36.6933 38.7289 36.3146 38.7289C35.9359 38.7289 35.6289 38.4218 35.6289 38.0431C35.6289 37.6644 35.9359 37.3574 36.3146 37.3574C36.6933 37.3574 37.0003 37.6644 37.0003 38.0431Z" fill="#FD89FF"/>
<path d="M16.2425 39.0431C16.2425 39.4218 15.9355 39.7289 15.5568 39.7289C15.1781 39.7289 14.8711 39.4218 14.8711 39.0431C14.8711 38.6644 15.1781 38.3574 15.5568 38.3574C15.9355 38.3574 16.2425 38.6644 16.2425 39.0431Z" fill="#FD89FF"/>
<path d="M22.3714 37.6857C22.3714 38.0644 22.0644 38.3714 21.6857 38.3714C21.307 38.3714 21 38.0644 21 37.6857C21 37.307 21.307 37 21.6857 37C22.0644 37 22.3714 37.307 22.3714 37.6857Z" fill="#FD89FF"/>
<path d="M28.0571 33.5286C28.0571 34.0966 27.5966 34.5571 27.0286 34.5571C26.4605 34.5571 26 34.0966 26 33.5286C26 32.9605 26.4605 32.5 27.0286 32.5C27.5966 32.5 28.0571 32.9605 28.0571 33.5286Z" fill="#FD89FF"/>
<path d="M24.6576 34.6144C24.6576 34.9931 24.3506 35.3001 23.9718 35.3001C23.5931 35.3001 23.2861 34.9931 23.2861 34.6144C23.2861 34.2357 23.5931 33.9287 23.9718 33.9287C24.3506 33.9287 24.6576 34.2357 24.6576 34.6144Z" fill="#FD89FF"/>
<path d="M22.5998 32.214C22.5998 32.4033 22.4463 32.5568 22.2569 32.5568C22.0676 32.5568 21.9141 32.4033 21.9141 32.214C21.9141 32.0246 22.0676 31.8711 22.2569 31.8711C22.4463 31.8711 22.5998 32.0246 22.5998 32.214Z" fill="#FD89FF"/>
<path d="M16.4289 32.9005C16.4289 33.0898 16.2754 33.2433 16.086 33.2433C15.8967 33.2433 15.7432 33.0898 15.7432 32.9005C15.7432 32.7111 15.8967 32.5576 16.086 32.5576C16.2754 32.5576 16.4289 32.7111 16.4289 32.9005Z" fill="#FD89FF"/>
<path d="M19.1712 35.3C19.1712 35.6787 18.8642 35.9857 18.4855 35.9857C18.1068 35.9857 17.7998 35.6787 17.7998 35.3C17.7998 34.9213 18.1068 34.6143 18.4855 34.6143C18.8642 34.6143 19.1712 34.9213 19.1712 35.3Z" fill="#FD89FF"/>
<path d="M16.4289 34.9571C16.4289 35.1465 16.2754 35.3 16.086 35.3C15.8967 35.3 15.7432 35.1465 15.7432 34.9571C15.7432 34.7678 15.8967 34.6143 16.086 34.6143C16.2754 34.6143 16.4289 34.7678 16.4289 34.9571Z" fill="#FD89FF"/>
<path d="M19.1711 32.214C19.1711 32.4033 19.0176 32.5568 18.8282 32.5568C18.6389 32.5568 18.4854 32.4033 18.4854 32.214C18.4854 32.0246 18.6389 31.8711 18.8282 31.8711C19.0176 31.8711 19.1711 32.0246 19.1711 32.214Z" fill="#FD89FF"/>
<path d="M25.3429 32.214C25.3429 32.4033 25.1894 32.5568 25.0001 32.5568C24.8107 32.5568 24.6572 32.4033 24.6572 32.214C24.6572 32.0246 24.8107 31.8711 25.0001 31.8711C25.1894 31.8711 25.3429 32.0246 25.3429 32.214Z" fill="#FD89FF"/>
<path d="M26.714 30.8429C26.714 31.0322 26.5605 31.1857 26.3712 31.1857C26.1818 31.1857 26.0283 31.0322 26.0283 30.8429C26.0283 30.6535 26.1818 30.5 26.3712 30.5C26.5605 30.5 26.714 30.6535 26.714 30.8429Z" fill="#FD89FF"/>
<path d="M27.6857 38.8429C27.6857 39.0322 27.5322 39.1857 27.3429 39.1857C27.1535 39.1857 27 39.0322 27 38.8429C27 38.6535 27.1535 38.5 27.3429 38.5C27.5322 38.5 27.6857 38.6535 27.6857 38.8429Z" fill="#FD89FF"/>
<path d="M31.6857 39.3429C31.6857 39.5322 31.5322 39.6857 31.3429 39.6857C31.1535 39.6857 31 39.5322 31 39.3429C31 39.1535 31.1535 39 31.3429 39C31.5322 39 31.6857 39.1535 31.6857 39.3429Z" fill="#FD89FF"/>
<path d="M13.6857 37.7003C13.6857 37.8896 13.5322 38.0431 13.3429 38.0431C13.1535 38.0431 13 37.8896 13 37.7003C13 37.5109 13.1535 37.3574 13.3429 37.3574C13.5322 37.3574 13.6857 37.5109 13.6857 37.7003Z" fill="#FD89FF"/>
<path d="M17.3 40.5714C17.3 40.7607 17.1465 40.9142 16.9571 40.9142C16.7678 40.9142 16.6143 40.7607 16.6143 40.5714C16.6143 40.382 16.7678 40.2285 16.9571 40.2285C17.1465 40.2285 17.3 40.382 17.3 40.5714Z" fill="#FD89FF"/>
<path d="M24.1857 38.8429C24.1857 39.0322 24.0322 39.1857 23.8429 39.1857C23.6535 39.1857 23.5 39.0322 23.5 38.8429C23.5 38.6535 23.6535 38.5 23.8429 38.5C24.0322 38.5 24.1857 38.6535 24.1857 38.8429Z" fill="#FD89FF"/>
<path d="M30.1857 40.3429C30.1857 40.5322 30.0322 40.6857 29.8429 40.6857C29.6535 40.6857 29.5 40.5322 29.5 40.3429C29.5 40.1535 29.6535 40 29.8429 40C30.0322 40 30.1857 40.1535 30.1857 40.3429Z" fill="#FD89FF"/>
<path d="M29.3714 37.6857C29.3714 38.0644 29.0644 38.3714 28.6857 38.3714C28.307 38.3714 28 38.0644 28 37.6857C28 37.307 28.307 37 28.6857 37C29.0644 37 29.3714 37.307 29.3714 37.6857Z" fill="#FD89FF"/>
<path d="M34.6857 39.8429C34.6857 40.0322 34.5322 40.1857 34.3429 40.1857C34.1535 40.1857 34 40.0322 34 39.8429C34 39.6535 34.1535 39.5 34.3429 39.5C34.5322 39.5 34.6857 39.6535 34.6857 39.8429Z" fill="#FD89FF"/>
<path d="M34.9426 36.3282C34.9426 36.5176 34.789 36.6711 34.5997 36.6711C34.4103 36.6711 34.2568 36.5176 34.2568 36.3282C34.2568 36.1389 34.4103 35.9854 34.5997 35.9854C34.789 35.9854 34.9426 36.1389 34.9426 36.3282Z" fill="#FD89FF"/>
<path d="M32.2004 34.2716C32.2004 34.4609 32.0469 34.6144 31.8575 34.6144C31.6682 34.6144 31.5146 34.4609 31.5146 34.2716C31.5146 34.0822 31.6682 33.9287 31.8575 33.9287C32.0469 33.9287 32.2004 34.0822 32.2004 34.2716Z" fill="#FD89FF"/>
<path d="M29.4572 32.214C29.4572 32.4033 29.3037 32.5568 29.1143 32.5568C28.925 32.5568 28.7715 32.4033 28.7715 32.214C28.7715 32.0246 28.925 31.8711 29.1143 31.8711C29.3037 31.8711 29.4572 32.0246 29.4572 32.214Z" fill="#FD89FF"/>
<path d="M28.0861 35.6427C28.0861 35.832 27.9326 35.9855 27.7432 35.9855C27.5539 35.9855 27.4004 35.832 27.4004 35.6427C27.4004 35.4533 27.5539 35.2998 27.7432 35.2998C27.9326 35.2998 28.0861 35.4533 28.0861 35.6427Z" fill="#FD89FF"/>
<path fill-rule="evenodd" clip-rule="evenodd" d="M13.5739 37.8906C12.6878 39.2197 13.6406 41 15.238 41H40.496C41.2615 42.3152 40.3176 44 38.7637 44H10.2377C8.64035 44 7.68756 42.2197 8.57364 40.8906L14.2038 32.4453L17.0189 28.2227L20.0192 28.2227L19.2041 29.4453L13.5739 37.8906Z" fill="#E56CEF"/>
<path fill-rule="evenodd" clip-rule="evenodd" d="M8.5054 41C7.73987 42.3152 8.68379 44 10.2377 44H38.7637C40.3611 44 41.3138 42.2197 40.4278 40.8906L34.7976 32.4453L31.9825 28.2227L28.9827 28.2227L29.7978 29.4453L35.428 37.8906C36.3141 39.2197 35.3613 41 33.7639 41H8.5054Z" fill="#A12CFD"/>
<path d="M18.5 22L19.3125 23.2188C20.0544 24.3316 21.3033 25 22.6407 25H26.3593C27.6967 25 28.9456 24.3316 29.6875 23.2188L30.5 22H18.5Z" fill="#C25FFF"/>
<path fill-rule="evenodd" clip-rule="evenodd" d="M19.5 22.5C19.5 22.2239 19.7239 22 20 22H29C29.2761 22 29.5 22.2239 29.5 22.5C29.5 22.7761 29.2761 23 29 23H20C19.7239 23 19.5 22.7761 19.5 22.5Z" fill="#8232B2"/>
<path fill-rule="evenodd" clip-rule="evenodd" d="M26.3594 25C26.5684 25 26.7752 24.9837 26.9782 24.9519L26.3594 25ZM26.9782 24.9519C28.0747 24.7803 29.0616 24.1577 29.6876 23.2188L26.9782 24.9519ZM29.6876 23.2188L29.6876 23.2188L29.6876 23.2188ZM29.6876 23.2188L30.5001 22L29.6876 23.2188ZM26.6876 23.2188L27.5001 22H30.5001M26.6876 23.2188C25.9457 24.3316 24.6968 25 23.3594 25L26.6876 23.2188ZM23.3594 25H26.3594H23.3594Z" fill="#A12CFD"/>
<path fill-rule="evenodd" clip-rule="evenodd" d="M21.5 22H18.5L19.3125 23.2188C20.008 24.262 21.1492 24.9147 22.3911 24.9922C22.4739 24.9974 22.5571 25 22.6407 25H25.6407C24.3033 25 23.0544 24.3316 22.3125 23.2188L21.5 22Z" fill="#E56CEF"/>
<path d="M26 25.25C26 26.2165 25.2165 27 24.25 27C23.2835 27 22.5 26.2165 22.5 25.25C22.5 24.2835 23.2835 23.5 24.25 23.5C25.2165 23.5 26 24.2835 26 25.25Z" fill="#C25FFF"/>
<path fill-rule="evenodd" clip-rule="evenodd" d="M9.98115 40.9215C10.214 41.07 10.5231 41.0017 10.6716 40.7688L19.9216 26.2688C20.0701 26.036 20.0018 25.7269 19.769 25.5784C19.5362 25.4299 19.227 25.4982 19.0785 25.731L9.82853 40.231C9.68002 40.4638 9.74835 40.773 9.98115 40.9215Z" fill="#A8FFEF"/>
<path fill-rule="evenodd" clip-rule="evenodd" d="M12.2937 37.2965C12.5265 37.445 12.8356 37.3767 12.9841 37.1438L15.2966 33.5188C15.4451 33.286 15.3768 32.9769 15.144 32.8284C14.9112 32.6799 14.602 32.7482 14.4535 32.981L12.141 36.606C11.9925 36.8388 12.0608 37.148 12.2937 37.2965Z" fill="white"/>
<path fill-rule="evenodd" clip-rule="evenodd" d="M9.98115 7.07853C10.214 6.93002 10.5231 6.99835 10.6716 7.23115L19.9216 21.7312C20.0701 21.964 20.0018 22.2731 19.769 22.4216C19.5362 22.5701 19.227 22.5018 19.0785 22.269L9.82853 7.76897C9.68002 7.53617 9.74835 7.22705 9.98115 7.07853Z" fill="#A8FFEF"/>
<path fill-rule="evenodd" clip-rule="evenodd" d="M12.2937 10.7035C12.5265 10.555 12.8356 10.6233 12.9841 10.8562L15.2966 14.4812C15.4451 14.714 15.3768 15.0231 15.144 15.1716C14.9112 15.3201 14.602 15.2518 14.4535 15.019L12.141 11.394C11.9925 11.1612 12.0608 10.852 12.2937 10.7035Z" fill="white"/>
<path fill-rule="evenodd" clip-rule="evenodd" d="M10.5 5.5C10.5 5.22386 10.7239 5 11 5H38C38.2761 5 38.5 5.22386 38.5 5.5C38.5 5.77614 38.2761 6 38 6H11C10.7239 6 10.5 5.77614 10.5 5.5Z" fill="#15D6E2"/>
<path fill-rule="evenodd" clip-rule="evenodd" d="M9.5 42.5C9.5 42.2239 9.72386 42 10 42H39C39.2761 42 39.5 42.2239 39.5 42.5C39.5 42.7761 39.2761 43 39 43H10C9.72386 43 9.5 42.7761 9.5 42.5Z" fill="#C25FFF"/>
</svg>
