<svg width="25" height="24" viewBox="0 0 25 24" fill="none" xmlns="http://www.w3.org/2000/svg">
<path d="M18.2764 7.41504C18.5995 7.15597 19.071 7.2081 19.3301 7.53125C20.5308 9.0291 21.25 10.9315 21.25 13C21.25 17.8325 17.3325 21.75 12.5 21.75C7.66751 21.75 3.75 17.8325 3.75 13C3.75 10.9315 4.4692 9.0291 5.66992 7.53125C5.92901 7.20809 6.40046 7.15597 6.72363 7.41504C7.0467 7.67406 7.09869 8.14558 6.83984 8.46875C5.84476 9.71008 5.25001 11.2848 5.25 13C5.25 17.0041 8.49594 20.25 12.5 20.25C16.5041 20.25 19.75 17.0041 19.75 13C19.75 11.2848 19.1552 9.71008 18.1602 8.46875C17.9013 8.14558 17.9533 7.67406 18.2764 7.41504ZM12.5 0.25C12.9142 0.250019 13.25 0.585798 13.25 1V13.1895L15.9697 10.4697C16.2626 10.1768 16.7374 10.1768 17.0303 10.4697C17.3232 10.7626 17.3232 11.2374 17.0303 11.5303L13.0303 15.5303C12.8896 15.6709 12.6989 15.75 12.5 15.75C12.3011 15.75 12.1104 15.6709 11.9697 15.5303L7.96973 11.5303C7.67684 11.2374 7.67683 10.7626 7.96973 10.4697C8.26262 10.1768 8.73738 10.1768 9.03027 10.4697L11.75 13.1895V1C11.75 0.585786 12.0858 0.25 12.5 0.25Z" fill="white"/>
</svg>
