<svg width="25" height="22" viewBox="0 0 25 22" fill="none" xmlns="http://www.w3.org/2000/svg">
<g clip-path="url(#clip0_723_9613)">
<path d="M17.1667 0.5H7.83333C6.72917 0.5 5.82917 1.39414 5.87083 2.47695C5.87917 2.69434 5.8875 2.91172 5.9 3.125H1.5C0.945833 3.125 0.5 3.56387 0.5 4.10938C0.5 7.90742 1.89583 10.5488 3.77083 12.3412C5.61667 14.109 7.86667 14.999 9.525 15.4502C10.5 15.7168 11.1667 16.5166 11.1667 17.3205C11.1667 18.1777 10.4583 18.875 9.5875 18.875H8.5C7.7625 18.875 7.16667 19.4615 7.16667 20.1875C7.16667 20.9135 7.7625 21.5 8.5 21.5H16.5C17.2375 21.5 17.8333 20.9135 17.8333 20.1875C17.8333 19.4615 17.2375 18.875 16.5 18.875H15.4125C14.5417 18.875 13.8333 18.1777 13.8333 17.3205C13.8333 16.5166 14.4958 15.7127 15.475 15.4502C17.1375 14.999 19.3875 14.109 21.2333 12.3412C23.1042 10.5488 24.5 7.90742 24.5 4.10938C24.5 3.56387 24.0542 3.125 23.5 3.125H19.1C19.1125 2.91172 19.1208 2.69844 19.1292 2.47695C19.1708 1.39414 18.2708 0.5 17.1667 0.5ZM2.5375 5.09375H6.05417C6.43333 8.78926 7.27083 11.2584 8.21667 12.9113C7.17917 12.4602 6.1 11.8244 5.16667 10.9303C3.83333 9.65469 2.75 7.81309 2.54167 5.09375H2.5375ZM19.8375 10.9303C18.9042 11.8244 17.825 12.4602 16.7875 12.9113C17.7333 11.2584 18.5708 8.78926 18.95 5.09375H22.4667C22.2542 7.81309 21.1708 9.65469 19.8417 10.9303H19.8375Z" fill="white"/>
</g>
<defs>
<clipPath id="clip0_723_9613">
<path d="M0.5 0.5H24.5V21.5H0.5V0.5Z" fill="white"/>
</clipPath>
</defs>
</svg>
