<svg width="36" height="36" viewBox="0 0 36 36" fill="none" xmlns="http://www.w3.org/2000/svg">
<path d="M36 36H0V0H36V36Z" stroke="#E5E7EB"/>
<path d="M4.5 2.25C2.01797 2.25 0 4.26797 0 6.75V29.25C0 31.732 2.01797 33.75 4.5 33.75H31.5C33.982 33.75 36 31.732 36 29.25V13.5C36 11.018 33.982 9 31.5 9H5.625C5.00625 9 4.5 8.49375 4.5 7.875C4.5 7.25625 5.00625 6.75 5.625 6.75H31.5C32.7445 6.75 33.75 5.74453 33.75 4.5C33.75 3.25547 32.7445 2.25 31.5 2.25H4.5ZM29.25 19.125C29.8467 19.125 30.419 19.3621 30.841 19.784C31.2629 20.206 31.5 20.7783 31.5 21.375C31.5 21.9717 31.2629 22.544 30.841 22.966C30.419 23.3879 29.8467 23.625 29.25 23.625C28.6533 23.625 28.081 23.3879 27.659 22.966C27.2371 22.544 27 21.9717 27 21.375C27 20.7783 27.2371 20.206 27.659 19.784C28.081 19.3621 28.6533 19.125 29.25 19.125Z" fill="#F59E0B"/>
</svg>
