<svg width="41" height="36" viewBox="0 0 41 36" fill="none" xmlns="http://www.w3.org/2000/svg">
<g clip-path="url(#clip0_779_10358)">
<path d="M28.375 0H12.625C10.7617 0 9.24297 1.53281 9.31328 3.38906C9.32734 3.76172 9.34141 4.13438 9.3625 4.5H1.9375C1.00234 4.5 0.25 5.25234 0.25 6.1875C0.25 12.6984 2.60547 17.2266 5.76953 20.2992C8.88437 23.3297 12.6813 24.8555 15.4797 25.6289C17.125 26.0859 18.25 27.457 18.25 28.8352C18.25 30.3047 17.0547 31.5 15.5852 31.5H13.75C12.5055 31.5 11.5 32.5055 11.5 33.75C11.5 34.9945 12.5055 36 13.75 36H27.25C28.4945 36 29.5 34.9945 29.5 33.75C29.5 32.5055 28.4945 31.5 27.25 31.5H25.4148C23.9453 31.5 22.75 30.3047 22.75 28.8352C22.75 27.457 23.868 26.0789 25.5203 25.6289C28.3258 24.8555 32.1227 23.3297 35.2375 20.2992C38.3945 17.2266 40.75 12.6984 40.75 6.1875C40.75 5.25234 39.9977 4.5 39.0625 4.5H31.6375C31.6586 4.13438 31.6727 3.76875 31.6867 3.38906C31.757 1.53281 30.2383 0 28.375 0ZM3.68828 7.875H9.62266C10.2625 14.2102 11.6758 18.443 13.2719 21.2766C11.5211 20.5031 9.7 19.4133 8.125 17.8805C5.875 15.6938 4.04688 12.5367 3.69531 7.875H3.68828ZM32.882 17.8805C31.307 19.4133 29.4859 20.5031 27.7352 21.2766C29.3312 18.443 30.7445 14.2102 31.3844 7.875H37.3188C36.9602 12.5367 35.132 15.6938 32.8891 17.8805H32.882Z" fill="#F59E0B"/>
</g>
<defs>
<clipPath id="clip0_779_10358">
<path d="M0.25 0H40.75V36H0.25V0Z" fill="white"/>
</clipPath>
</defs>
</svg>
