<svg width="33" height="32" viewBox="0 0 33 32" fill="none" xmlns="http://www.w3.org/2000/svg">
<rect width="33" height="32" fill="#1E1E1E"/>
<rect width="27828" height="37364" transform="translate(-11681 -533)" fill="#E0E0E0"/>
<g clip-path="url(#clip0_0_1)">
<rect width="1440" height="2580" transform="translate(-1092 -26)" fill="#0D1017"/>
<g clip-path="url(#clip1_0_1)">
<rect x="0.75" width="32" height="32" rx="16" fill="#FEF5E7"/>
<path d="M17.3126 0.111424C18.0956 0.390826 18.0956 0.390827 18.3751 0.623381C18.6638 0.81799 18.8478 0.848265 19.2288 0.8968C19.3492 0.913094 19.4697 0.929389 19.5938 0.946177C19.7216 0.962489 19.8494 0.978802 19.9811 0.995608C23.3994 1.47186 23.3994 1.47186 24.2972 2.19657C24.4214 2.4743 24.4756 2.68139 24.5106 2.96843C24.5274 3.10291 24.5274 3.10291 24.5445 3.2401C24.556 3.33712 24.5676 3.43413 24.5795 3.53409C24.598 3.68587 24.598 3.68587 24.617 3.84071C24.6432 4.05588 24.6691 4.27107 24.6949 4.48628C24.7335 4.80913 24.7731 5.13192 24.8128 5.4547C24.9292 6.4098 25.0403 7.36527 25.1252 8.32225C25.1377 8.46098 25.1502 8.59971 25.163 8.74264C25.1765 9.39536 25.0449 10.0236 24.88 10.6644C24.9949 10.6791 25.1098 10.6938 25.2282 10.7089C25.6484 10.7797 25.7811 10.8523 26.0455 11.0986C26.3646 11.5743 26.2946 12.1054 26.1912 12.6185C25.7826 13.4915 25.1561 14.3381 24.2972 15.0069C23.8146 15.0476 23.8146 15.0476 23.4231 15.0069C23.393 15.1412 23.363 15.2755 23.332 15.414C23.0485 16.3406 22.5663 17.1294 21.5473 17.7141C21.0232 18.0634 20.9052 18.3232 20.8627 18.8311C20.8506 19.4035 20.8851 19.973 20.9463 20.5435C21.0425 20.5077 21.1386 20.4719 21.2377 20.4349C22.0039 20.391 22.4692 20.4717 23.1317 20.7606C23.1317 20.9039 23.1317 21.0472 23.1317 21.1949C23.2271 21.2133 23.3225 21.2318 23.4208 21.2509C24.1604 21.3972 24.8859 21.5563 25.6084 21.7445C26.1843 21.8916 26.7377 21.9974 27.3385 22.0702C27.9451 22.1453 28.4425 22.2342 28.9593 22.4976C28.9704 22.5658 28.9814 22.6339 28.9929 22.7041C29.0854 22.9696 29.0854 22.9696 29.5346 23.1062C29.7159 23.164 29.8974 23.2212 30.0793 23.2779C31.6302 23.8131 32.0321 24.6175 32.6328 25.7634C32.7939 26.2095 32.7939 26.2095 32.6015 26.5144C29.5407 29.4949 24.2026 31.3861 19.2982 31.8954C13.5012 32.3636 7.78591 31.2611 3.2118 28.5357C0.889515 27.1256 0.889515 27.1256 0.75 26.6162C0.971285 25.5774 1.65772 24.3987 2.76007 23.7117C3.35286 23.4042 3.92355 23.1752 4.629 23.0404C4.64253 22.9128 4.64253 22.9128 4.65632 22.7826C4.69538 22.6885 4.73445 22.5945 4.77469 22.4976C5.28296 22.3019 5.70246 22.2606 6.26802 22.2534C7.21325 22.2086 8.02093 21.9962 8.8977 21.7467C9.69262 21.5206 9.69262 21.5206 10.1652 21.5206C10.2133 21.3414 10.2614 21.1623 10.3109 20.9778C10.4071 20.9778 10.5032 20.9778 10.6023 20.9778C10.6023 20.8703 10.6023 20.7628 10.6023 20.6521C10.9451 20.5244 11.159 20.529 11.5402 20.5299C11.6542 20.5297 11.7682 20.5294 11.8856 20.5291C12.2049 20.5435 12.2049 20.5435 12.642 20.6521C12.642 19.8639 12.642 19.0758 12.642 18.2637C12.4016 18.1921 12.1612 18.1204 11.9135 18.0466C10.6505 17.213 10.226 16.1997 9.87385 15.0069C9.73695 15.0119 9.60004 15.0169 9.45898 15.0221C8.99971 15.0069 8.99971 15.0069 8.64459 14.7626C7.5777 13.6759 6.7566 12.5856 6.96005 11.2072C7.14216 10.8747 7.14216 10.8747 7.39712 10.6644C7.71582 10.5762 7.71582 10.5762 7.97988 10.5558C7.95622 10.5011 7.93255 10.4464 7.90817 10.39C7.80735 10.0242 7.815 9.67375 7.81598 9.30058C7.81513 9.19111 7.81513 9.19111 7.81427 9.07943C7.81516 8.74556 7.83712 8.48661 7.97988 8.16747C8.01776 7.97953 8.05024 7.79097 8.07947 7.60218C8.09722 7.48803 8.11497 7.37388 8.13325 7.25627C8.15175 7.13378 8.17025 7.01129 8.18931 6.88508C8.20875 6.75958 8.22819 6.63408 8.24821 6.50477C8.34198 5.88826 8.42817 5.27211 8.49492 4.65363C8.5124 4.49342 8.5124 4.49342 8.53024 4.32998C8.55127 4.1299 8.57078 3.92972 8.5885 3.72945C8.66171 3.02852 8.78198 2.46103 9.48516 1.94934C10.6151 1.40569 11.8142 1.1976 13.1246 1.06346C14.0149 0.971489 14.6619 0.871573 15.3361 0.394702C15.9165 -0.00750049 16.5654 -0.10306 17.3126 0.111424Z" fill="#72402F"/>
<path d="M21.7021 20.408C22.2904 20.4367 22.6278 20.541 23.1317 20.7608C23.1317 20.9041 23.1317 21.0474 23.1317 21.195C23.2271 21.2135 23.3225 21.232 23.4208 21.251C24.1604 21.3973 24.8859 21.5565 25.6084 21.7446C26.1843 21.8918 26.7377 21.9975 27.3385 22.0703C27.9451 22.1454 28.4425 22.2343 28.9593 22.4978C28.9704 22.5659 28.9814 22.6341 28.9929 22.7043C29.0854 22.9697 29.0854 22.9697 29.5346 23.1063C29.7159 23.1641 29.8974 23.2213 30.0793 23.2781C31.6302 23.8133 32.0321 24.6176 32.6328 25.7635C32.7939 26.2096 32.7939 26.2096 32.6015 26.5146C29.5407 29.495 24.2026 31.3863 19.2982 31.8956C13.5012 32.3637 7.78591 31.2612 3.2118 28.5358C0.889515 27.1257 0.889515 27.1257 0.75 26.6163C0.971285 25.5775 1.65772 24.3989 2.76007 23.7119C3.35286 23.4043 3.92355 23.1754 4.629 23.0406C4.63802 22.9555 4.64703 22.8704 4.65632 22.7827C4.69538 22.6887 4.73445 22.5947 4.77469 22.4978C5.28296 22.3021 5.70246 22.2607 6.26802 22.2535C7.21325 22.2088 8.02093 21.9964 8.8977 21.7469C9.69262 21.5207 9.69262 21.5207 10.1652 21.5207C10.2133 21.3416 10.2614 21.1625 10.3109 20.9779C10.4071 20.9779 10.5032 20.9779 10.6023 20.9779C10.6023 20.8704 10.6023 20.763 10.6023 20.6522C10.947 20.5238 11.1658 20.5292 11.5493 20.5301C11.7228 20.5297 11.7228 20.5297 11.8999 20.5292C12.2049 20.5437 12.2049 20.5437 12.4963 20.6522C12.4482 20.7955 12.4001 20.9388 12.3506 21.0865C12.2544 21.0865 12.1583 21.0865 12.0592 21.0865C12.0642 22.0809 12.3681 22.7038 13.2919 23.4235C13.9773 23.85 14.8197 23.9717 15.6713 24.127C16.1191 24.2303 16.385 24.3207 16.7213 24.5604C16.8306 24.8522 16.8306 24.8522 16.867 25.1033C16.9631 25.1033 17.0593 25.1033 17.1584 25.1033C17.2064 24.7808 17.2545 24.4584 17.3041 24.1262C17.4727 24.0999 17.6414 24.0736 17.8151 24.0465C18.0394 24.0098 18.2636 23.973 18.4878 23.9362C18.5986 23.9191 18.7094 23.9021 18.8236 23.8845C19.657 23.7453 20.3064 23.5448 20.8951 23.0598C21.1317 22.7758 21.1411 22.6178 21.1296 22.2862C21.1275 22.1852 21.1254 22.0842 21.1233 21.9802C21.119 21.8756 21.1147 21.771 21.1102 21.6632C21.1039 21.4547 21.0982 21.2462 21.0931 21.0377C21.0896 20.9455 21.0861 20.8533 21.0824 20.7584C21.0986 20.3957 21.2058 20.437 21.7021 20.408Z" fill="#17181A"/>
<path d="M17.3126 0.111424C18.0956 0.390826 18.0956 0.390827 18.3751 0.623381C18.6638 0.81799 18.8478 0.848265 19.2288 0.8968C19.3492 0.913094 19.4697 0.929389 19.5938 0.946177C19.7216 0.962489 19.8494 0.978802 19.9811 0.995608C23.3994 1.47186 23.3994 1.47186 24.2972 2.19657C24.4214 2.4743 24.4756 2.68139 24.5106 2.96843C24.5274 3.10291 24.5274 3.10291 24.5445 3.2401C24.556 3.33712 24.5676 3.43413 24.5795 3.53409C24.5919 3.63527 24.6042 3.73646 24.617 3.84071C24.6432 4.05588 24.6691 4.27107 24.6949 4.48628C24.7335 4.80913 24.7731 5.13192 24.8128 5.4547C24.9298 6.41446 25.0411 7.37456 25.1258 8.33625C25.1384 8.47757 25.151 8.6189 25.1639 8.7645C25.171 9.12485 25.1225 9.44364 25.0256 9.79589C24.9776 9.79589 24.9295 9.79589 24.88 9.79589C24.883 9.67946 24.886 9.56303 24.8891 9.44307C24.7962 9.03979 24.7962 9.03979 24.4787 8.89644C23.7196 8.6377 22.9297 8.49691 22.1118 8.38459C21.9978 8.36514 21.8838 8.34569 21.7664 8.32564C21.326 8.26859 20.9107 8.26166 20.4637 8.26246C20.2302 8.26204 20.2302 8.26204 19.9919 8.26161C19.4853 8.26963 19.4853 8.26963 18.9719 8.3315C18.2389 8.4015 17.5152 8.39018 16.7776 8.37993C16.4754 8.37749 16.1731 8.37516 15.8708 8.37293C15.4016 8.36894 14.9325 8.3643 14.4633 8.35779C11.0319 8.2197 11.0319 8.2197 7.97988 9.14452C7.81598 8.53386 7.81598 8.53386 7.97988 8.16747C8.01776 7.97953 8.05024 7.79097 8.07948 7.60218C8.09722 7.48803 8.11497 7.37388 8.13326 7.25627C8.15175 7.13378 8.17025 7.01129 8.18931 6.88508C8.20875 6.75958 8.22819 6.63408 8.24821 6.50477C8.34199 5.88826 8.42817 5.27211 8.49492 4.65363C8.50658 4.54683 8.51823 4.44002 8.53024 4.32998C8.55128 4.1299 8.57079 3.92972 8.5885 3.72945C8.66171 3.02852 8.78199 2.46103 9.48516 1.94934C10.6151 1.40569 11.8142 1.1976 13.1246 1.06346C14.0149 0.971489 14.6619 0.871573 15.3361 0.394702C15.9165 -0.00750049 16.5654 -0.10306 17.3126 0.111424Z" fill="#C00A0D"/>
<path d="M10.3109 8.49329C10.2693 8.78061 10.2266 9.06781 10.1834 9.35499C10.172 9.43483 10.1605 9.51467 10.1487 9.59693C10.0853 10.0131 10.001 10.4139 9.86758 10.821C9.20802 12.9476 9.9752 15.1317 11.4764 16.9611C11.6686 17.1074 11.8624 17.2525 12.0592 17.3953C12.0592 17.467 12.0592 17.5386 12.0592 17.6125C12.1553 17.6125 12.2515 17.6125 12.3506 17.6125C12.3987 17.6841 12.4467 17.7558 12.4963 17.8296C12.5105 17.7196 12.5248 17.6096 12.5395 17.4963C12.5614 17.3495 12.5834 17.2028 12.6055 17.0561C12.6145 16.9839 12.6236 16.9117 12.6328 16.8373C12.717 16.3044 12.9161 15.9641 13.3704 15.5498C13.6515 15.3988 13.6515 15.3988 13.935 15.3055C14.0352 15.2719 14.1355 15.2384 14.2389 15.2038C14.6245 15.0892 15.0124 14.9873 15.4101 14.8984C15.2658 14.8402 15.1216 14.782 14.973 14.722C14.5359 14.4642 14.5359 14.4642 14.4722 14.1249C14.5359 13.8128 14.5359 13.8128 14.6816 13.5957C14.8259 13.6494 14.8259 13.6494 14.973 13.7042C14.9249 13.955 14.8768 14.2058 14.8273 14.4642C14.9325 14.4373 15.0376 14.4104 15.146 14.3828C15.2812 14.3738 15.4164 14.3648 15.5558 14.3556C15.6699 14.4273 15.7841 14.4989 15.9018 14.5727C16.2754 14.8323 16.2754 14.8323 16.8214 14.7763C17.3116 14.7121 17.3116 14.7121 17.5954 14.4642C17.8851 14.421 18.1766 14.3841 18.4696 14.3556C18.5176 14.1765 18.5657 13.9974 18.6153 13.8128C18.6633 13.8128 18.7114 13.8128 18.7609 13.8128C18.8156 14.1114 18.8156 14.1114 18.7609 14.4642C18.3239 14.722 18.3239 14.722 17.8868 14.8984C18.0634 14.9496 18.0634 14.9496 18.2436 15.0019C18.3993 15.0484 18.555 15.0948 18.7154 15.1427C18.8692 15.188 19.023 15.2334 19.1815 15.2801C19.6434 15.4442 19.9893 15.6162 20.3635 15.8755C20.4978 16.1757 20.5264 16.3513 20.5235 16.6604C20.5228 16.7911 20.5228 16.7911 20.522 16.9244C20.5202 17.0601 20.5202 17.0601 20.5183 17.1986C20.5177 17.2903 20.517 17.382 20.5163 17.4766C20.5146 17.7028 20.512 17.929 20.5092 18.1553C20.6054 18.1553 20.7015 18.1553 20.8006 18.1553C20.8087 18.2254 20.8167 18.2954 20.825 18.3676C20.8619 18.6859 20.8996 19.0041 20.9372 19.3223C20.9499 19.4326 20.9625 19.5429 20.9756 19.6565C20.9883 19.7628 21.001 19.8692 21.014 19.9788C21.0255 20.0766 21.0369 20.1743 21.0487 20.2751C21.0879 20.5184 21.1571 20.741 21.2377 20.9779C21.4307 22.7787 21.4307 22.7787 20.8643 23.2984C19.8337 23.9671 18.616 24.0109 17.304 24.1262C17.256 24.4486 17.2079 24.771 17.1584 25.1032C17.0622 25.1032 16.966 25.1032 16.867 25.1032C16.8219 24.979 16.8219 24.979 16.7759 24.8522C16.508 24.462 16.2355 24.4079 15.7015 24.2347C15.3933 24.1675 15.0836 24.1042 14.7727 24.0448C13.6662 23.7975 12.9348 23.3943 12.2777 22.6877C11.9285 22.1889 12.0115 21.6327 12.0592 21.0864C12.1553 21.0506 12.2515 21.0148 12.3506 20.9779C12.4924 20.6609 12.5244 20.4292 12.5424 20.0979C12.5515 19.9379 12.5515 19.9379 12.5609 19.7746C12.5666 19.6634 12.5723 19.5522 12.5782 19.4377C12.5877 19.269 12.5877 19.269 12.5973 19.0969C12.6127 18.8192 12.6276 18.5416 12.642 18.2638C12.5274 18.2317 12.4129 18.1996 12.2948 18.1666C11.4174 17.8908 10.825 17.1872 10.4338 16.5591C10.1851 16.0545 10.0286 15.5312 9.87384 15.007C9.73693 15.012 9.60002 15.0171 9.45896 15.0223C8.9997 15.007 8.9997 15.007 8.64458 14.7627C7.57768 13.6761 6.75658 12.5857 6.96003 11.2073C7.14215 10.8749 7.14215 10.8749 7.3971 10.6645C7.7158 10.5763 7.7158 10.5763 7.97987 10.556C7.94381 10.4754 7.94381 10.4754 7.90702 10.3931C7.80341 10.0071 7.745 9.64187 7.83418 9.25322C8.20311 8.85804 8.54426 8.69116 9.15449 8.56792C9.72815 8.49329 9.72815 8.49329 10.3109 8.49329Z" fill="#31201A"/>
<path d="M21.7021 20.4351C22.2904 20.4638 22.6278 20.5681 23.1317 20.7879C23.1317 20.9312 23.1317 21.0745 23.1317 21.2221C23.2759 21.2759 23.2759 21.2759 23.423 21.3307C23.2307 21.3307 23.0384 21.3307 22.8403 21.3307C22.8989 21.5322 22.8989 21.5322 22.9587 21.7378C23.073 22.5205 22.6338 23.2117 22.0378 23.8433C21.2218 24.5175 20.0835 24.8562 18.9066 25.0218C18.9051 25.1072 18.9036 25.1927 18.9021 25.2807C18.8878 26.0843 18.8729 26.8878 18.8572 27.6914C18.8492 28.1046 18.8414 28.5177 18.8342 28.9309C18.8273 29.3293 18.8196 29.7277 18.8115 30.1261C18.8085 30.2784 18.8058 30.4308 18.8033 30.5831C18.7998 30.7957 18.7954 31.0084 18.7909 31.221C18.7886 31.3423 18.7863 31.4635 18.784 31.5885C18.761 31.8612 18.761 31.8612 18.6153 31.9697C18.3239 31.9792 18.0322 31.9814 17.7406 31.9803C17.475 31.9798 17.475 31.9798 17.2042 31.9793C17.0178 31.9784 16.8314 31.9775 16.6393 31.9765C16.4524 31.976 16.2654 31.9755 16.0728 31.975C15.6091 31.9738 15.1453 31.972 14.6816 31.9697C14.6816 31.9339 14.6816 31.8981 14.6816 31.8612C14.922 31.8612 15.1624 31.8612 15.4101 31.8612C15.383 31.7447 15.356 31.6283 15.3281 31.5084C15.271 31.1436 15.294 31.002 15.4101 30.667C15.3707 30.4489 15.3236 30.2313 15.2644 30.0156C15.3605 30.0156 15.4567 30.0156 15.5558 30.0156C15.5047 29.9373 15.4536 29.8589 15.401 29.7782C15.2492 29.4389 15.2803 29.2685 15.4101 28.93C15.5062 28.93 15.6024 28.93 15.7015 28.93C15.5561 28.6051 15.4462 28.5014 15.1187 28.2786C15.2149 28.0995 15.311 27.9204 15.4101 27.7358C15.3139 27.7358 15.2178 27.7358 15.1187 27.7358C15.2149 27.4851 15.311 27.2343 15.4101 26.9759C15.3139 26.9401 15.2178 26.9043 15.1187 26.8673C15.1397 26.8091 15.1608 26.7509 15.1824 26.6909C15.2782 26.3898 15.3448 26.0873 15.4101 25.7817C15.3139 25.7817 15.2178 25.7817 15.1187 25.7817C15.1668 25.5668 15.2149 25.3518 15.2644 25.1304C15.0954 25.1045 15.0954 25.1045 14.9229 25.0782C13.1608 24.7841 12.0066 24.2389 11.0149 23.0872C10.6943 22.6049 10.6425 22.0746 10.748 21.5478C10.8441 21.4403 10.9403 21.3329 11.0394 21.2221C11.4946 21.2018 11.4946 21.2018 11.9135 21.2221C11.9244 21.2892 11.9353 21.3562 11.9465 21.4253C12.1296 22.3039 12.5843 23.0136 13.5161 23.5901C14.1652 23.9064 14.9263 24.0182 15.6713 24.1541C16.1191 24.2574 16.385 24.3478 16.7213 24.5875C16.8306 24.8793 16.8306 24.8793 16.867 25.1304C16.9631 25.1304 17.0593 25.1304 17.1584 25.1304C17.2064 24.8079 17.2545 24.4855 17.3041 24.1533C17.4727 24.127 17.6413 24.1007 17.8151 24.0736C18.0394 24.0369 18.2636 24.0001 18.4878 23.9633C18.654 23.9377 18.654 23.9377 18.8236 23.9116C19.657 23.7724 20.3064 23.5719 20.8951 23.0869C21.1317 22.8029 21.1411 22.6449 21.1296 22.3133C21.1275 22.2123 21.1254 22.1113 21.1233 22.0073C21.119 21.9027 21.1147 21.7981 21.1102 21.6903C21.1039 21.4818 21.0982 21.2733 21.0931 21.0648C21.0896 20.9726 21.086 20.8804 21.0824 20.7855C21.0986 20.4228 21.2058 20.4641 21.7021 20.4351Z" fill="#17181A"/>
<path d="M12.642 18.3723C12.9572 18.6052 13.2641 18.8391 13.5616 19.0848C14.5418 19.7471 15.5704 19.7375 16.8397 19.7429C17.0855 19.7503 17.0855 19.7503 17.3362 19.7577C18.7601 19.7664 19.5512 19.4021 20.5495 18.6728C20.6324 18.6095 20.7153 18.5461 20.8006 18.4809C20.8087 18.5411 20.8168 18.6013 20.8251 18.6633C20.862 18.9373 20.8996 19.2112 20.9372 19.4851C20.9562 19.6272 20.9562 19.6272 20.9756 19.7722C20.9946 19.9097 20.9946 19.9097 21.014 20.0499C21.0312 20.1761 21.0312 20.1761 21.0487 20.3049C21.0857 20.5424 21.0857 20.5424 21.1669 20.7653C21.3964 21.4542 21.4572 22.4396 21.0784 23.102C20.1312 23.971 18.6973 24.0037 17.3041 24.1261C17.256 24.4485 17.2079 24.7709 17.1584 25.1031C17.0622 25.1031 16.9661 25.1031 16.867 25.1031C16.8369 25.0203 16.8069 24.9374 16.7759 24.8521C16.508 24.4619 16.2355 24.4078 15.7015 24.2346C15.3934 24.1674 15.0837 24.1041 14.7727 24.0447C13.6662 23.7974 12.9349 23.3942 12.2777 22.6876C11.9285 22.1888 12.0115 21.6327 12.0592 21.0864C12.1554 21.0505 12.2515 21.0147 12.3506 20.9778C12.4892 20.6678 12.524 20.4448 12.5424 20.1216C12.5485 20.0198 12.5546 19.918 12.5609 19.8131C12.5695 19.6541 12.5695 19.6541 12.5782 19.4919C12.5845 19.3846 12.5908 19.2773 12.5973 19.1668C12.6127 18.902 12.6276 18.6372 12.642 18.3723Z" fill="#6F3D2D"/>
<path d="M8.27126 22.1723C8.27126 22.2798 8.27126 22.3872 8.27126 22.498C8.13304 22.5248 7.99481 22.5517 7.8524 22.5794C7.38446 22.681 7.38446 22.681 7.1968 22.9458C7.16675 23.013 7.1367 23.0801 7.10574 23.1493C6.75818 23.0868 6.42583 23.0166 6.08591 22.9322C6.18206 23.1113 6.27822 23.2905 6.37729 23.475C6.79503 23.4716 6.79503 23.4716 7.25143 23.3665C7.60185 23.0474 7.60185 23.0474 7.83419 22.7151C9.06309 23.2201 9.06309 23.2201 9.26492 23.5789C9.3002 23.7871 9.3002 23.7871 9.29109 24.1264C8.5869 24.4464 8.19763 24.4713 7.39712 24.3435C7.23185 24.3234 7.06659 24.3032 6.89631 24.2824C6.77311 24.2668 6.64991 24.2511 6.52298 24.235C6.37875 24.4141 6.23451 24.5932 6.08591 24.7778C6.23014 24.7419 6.37437 24.7061 6.52298 24.6692C6.57106 24.5975 6.61913 24.5259 6.66867 24.4521C8.27126 24.6692 8.27126 24.6692 8.70833 24.9949C8.70833 25.1984 8.70833 25.1984 8.56264 25.4291C8.41841 25.4985 8.27418 25.568 8.12557 25.6395C7.65756 25.8302 7.65756 25.8302 7.56102 26.1619C7.55501 26.2425 7.549 26.3231 7.54281 26.4062C7.62695 26.4331 7.71108 26.4599 7.79777 26.4876C8.12557 26.6233 8.12557 26.6233 8.70833 27.0576C8.46794 27.4516 8.22756 27.8457 7.97988 28.2517C7.78757 28.2517 7.59526 28.2517 7.39712 28.2517C7.39712 28.395 7.39712 28.5383 7.39712 28.686C6.96442 28.7397 6.96442 28.7397 6.52298 28.7945C6.4749 28.293 6.42682 27.7914 6.37729 27.2747C6.32921 27.7404 6.28113 28.2061 6.2316 28.686C5.80872 28.3709 5.77261 27.9966 5.65794 27.5732C5.63301 27.4832 5.60808 27.3931 5.58239 27.3003C5.25869 26.0903 4.92039 24.8201 4.92039 23.5836C4.82423 23.5836 4.72807 23.5836 4.629 23.5836C4.7806 24.8093 5.05555 26.0013 5.40451 27.2047C5.56877 27.7834 5.69158 28.3113 5.64884 28.9031C5.55268 28.9031 5.45653 28.9031 5.35746 28.9031C5.00657 28.6118 4.77745 28.3922 4.76957 27.9909C4.80698 27.7492 4.855 27.513 4.92039 27.2747C4.70404 27.2209 4.70404 27.2209 4.48331 27.1661C4.43524 27.3452 4.38716 27.5244 4.33762 27.7089C3.73022 27.5581 3.65924 27.3307 3.36332 26.9151C3.27261 26.7901 3.1819 26.6651 3.08844 26.5364C2.88072 26.1891 2.88072 26.1891 2.88072 25.7548C3.31342 25.7011 3.31342 25.7011 3.75486 25.6463C3.75486 25.4671 3.75486 25.288 3.75486 25.1034C3.64669 25.1572 3.53851 25.2109 3.42706 25.2663C3.02641 25.4291 3.02641 25.4291 2.44365 25.4291C2.44365 25.3217 2.44365 25.2142 2.44365 25.1034C2.29942 25.1034 2.15518 25.1034 2.00658 25.1034C2.03663 25.2423 2.06668 25.3811 2.09764 25.5241C2.14886 25.7608 2.14886 25.7608 2.15227 25.9719C1.86089 26.1891 1.86089 26.1891 1.40561 26.2026C1.26738 26.1982 1.12916 26.1937 0.986748 26.1891C1.12863 25.2891 1.74038 24.351 2.65308 23.7396C3.20087 23.434 3.92586 23.0408 4.629 23.0408C4.63802 22.9557 4.64703 22.8706 4.65632 22.7829C4.69539 22.6889 4.73445 22.5949 4.7747 22.498C5.29718 22.2974 5.77729 22.2434 6.35908 22.213C6.5112 22.205 6.66332 22.197 6.82005 22.1888C7.3057 22.1702 7.7852 22.164 8.27126 22.1723Z" fill="#17181A"/>
<path d="M27.7511 22.1368C28.2281 22.1871 28.5654 22.2923 28.9593 22.4977C28.9707 22.5661 28.9822 22.6346 28.994 22.7051C29.0854 22.9698 29.0854 22.9698 29.5346 23.1062C29.7159 23.164 29.8974 23.2213 30.0793 23.278C31.6302 23.8132 32.032 24.6176 32.6328 25.7635C32.7939 26.2096 32.7939 26.2096 32.6015 26.5145C31.334 27.7488 29.6122 28.7985 27.7938 29.5542C27.6976 29.5542 27.6014 29.5542 27.5024 29.5542C27.4599 28.5593 27.6245 27.5937 27.7938 26.6095C27.8219 26.4418 27.85 26.2742 27.878 26.1065C27.9461 25.6996 28.0153 25.2928 28.0851 24.8861C27.7967 24.9935 27.7967 24.9935 27.5024 25.1032C27.5024 25.3898 27.5024 25.6764 27.5024 25.9717C27.3101 25.9717 27.1177 25.9717 26.9196 25.9717C26.9196 25.7926 26.9196 25.6134 26.9196 25.4289C26.535 25.4289 26.1504 25.4289 25.7541 25.4289C25.706 25.2856 25.6579 25.1423 25.6084 24.9946C26.3837 24.877 27.1578 24.7609 27.9394 24.6689C27.8433 24.5615 27.7471 24.454 27.6481 24.3433C27.6778 23.7559 27.8829 23.3889 28.3765 22.932C28.4727 22.932 28.5688 22.932 28.6679 22.932C28.6679 22.7887 28.6679 22.6454 28.6679 22.4977C28.5101 22.5011 28.5101 22.5011 28.3492 22.5045C27.9512 22.4979 27.5982 22.4551 27.211 22.3891C27.1635 22.4518 27.116 22.5145 27.067 22.5791C26.9715 22.7 26.9715 22.7 26.8741 22.8234C26.8115 22.904 26.749 22.9846 26.6846 23.0677C26.6179 23.1304 26.5512 23.193 26.4825 23.2576C26.3383 23.2576 26.1941 23.2576 26.0455 23.2576C26.3699 22.4394 26.5609 22.0949 27.7511 22.1368Z" fill="#17181A"/>
<path d="M11.0394 21.195C11.4946 21.1746 11.4946 21.1746 11.9135 21.195C11.9244 21.262 11.9353 21.329 11.9465 21.3981C12.1296 22.2768 12.5843 22.9864 13.5161 23.563C14.1652 23.8793 14.9263 23.991 15.6713 24.127C16.1202 24.2305 16.3847 24.3197 16.7213 24.5604C16.8817 24.9191 16.8845 25.1831 16.8835 25.5608C16.8835 25.6999 16.8835 25.839 16.8835 25.9823C16.8827 26.1341 16.882 26.2859 16.8812 26.4377C16.8809 26.593 16.8807 26.7483 16.8806 26.9036C16.88 27.3122 16.8786 27.7207 16.877 28.1292C16.8755 28.5462 16.8748 28.9632 16.8741 29.3801C16.8725 30.1981 16.87 31.016 16.867 31.834C17.4439 31.834 18.0208 31.834 18.6153 31.834C18.6153 31.8698 18.6153 31.9057 18.6153 31.9426C17.3172 31.9426 16.0191 31.9426 14.6816 31.9426C14.6816 31.9067 14.6816 31.8709 14.6816 31.834C14.922 31.834 15.1624 31.834 15.4101 31.834C15.383 31.7176 15.356 31.6011 15.3281 31.4812C15.271 31.1164 15.294 30.9749 15.4101 30.6398C15.3707 30.4217 15.3236 30.2041 15.2644 29.9885C15.3605 29.9885 15.4567 29.9885 15.5558 29.9885C15.5047 29.9101 15.4536 29.8317 15.401 29.751C15.2492 29.4117 15.2803 29.2414 15.4101 28.9028C15.5062 28.9028 15.6024 28.9028 15.7015 28.9028C15.5561 28.5779 15.4462 28.4743 15.1187 28.2515C15.2149 28.0723 15.311 27.8932 15.4101 27.7087C15.3139 27.7087 15.2178 27.7087 15.1187 27.7087C15.2149 27.4579 15.311 27.2071 15.4101 26.9487C15.3139 26.9129 15.2178 26.8771 15.1187 26.8402C15.1397 26.7819 15.1608 26.7237 15.1824 26.6638C15.2782 26.3626 15.3448 26.0601 15.4101 25.7545C15.3139 25.7545 15.2178 25.7545 15.1187 25.7545C15.1668 25.5396 15.2149 25.3246 15.2644 25.1032C15.0954 25.0774 15.0954 25.0774 14.9229 25.051C13.1608 24.7569 12.0066 24.2117 11.0149 23.06C10.6943 22.5777 10.6425 22.0474 10.748 21.5206C10.8441 21.4132 10.9403 21.3057 11.0394 21.195Z" fill="#17181A"/>
<path d="M19.6351 15.9838C19.912 16.1901 19.8125 16.5367 19.8172 16.8116C19.8088 17.4242 19.8027 17.8592 19.3437 18.3722C18.7684 18.6675 18.29 18.7766 17.5954 18.6978C17.2494 18.4807 17.2494 18.4807 17.0127 18.2636C17.2626 17.7607 17.5447 17.6799 18.1782 17.2865C17.2166 17.2865 16.2551 17.2865 15.2644 17.2865C15.5529 17.4298 15.8413 17.5731 16.1385 17.7208C16.2347 17.7924 16.3308 17.8641 16.4299 17.9379C16.4026 18.155 16.4026 18.155 16.2842 18.3722C15.6975 18.6636 15.2253 18.6633 14.5359 18.5893C14.0138 18.3575 13.7281 18.142 13.5161 17.7208C13.4958 17.4359 13.4885 17.1636 13.4979 16.8794C13.4992 16.8037 13.5005 16.728 13.5019 16.65C13.5053 16.4641 13.5105 16.2782 13.5161 16.0924C15.2916 15.4126 17.7962 15.4101 19.6351 15.9838Z" fill="#6D3E2D"/>
<path d="M4.62901 23.5834C4.72516 23.5834 4.82132 23.5834 4.92039 23.5834C4.93499 23.6581 4.94959 23.7328 4.96463 23.8097C5.27294 25.375 5.61681 26.9254 6.08591 28.4687C6.09305 28.385 6.10018 28.3013 6.10753 28.2151C6.11843 28.1062 6.12932 27.9973 6.14054 27.8851C6.15068 27.7768 6.16083 27.6685 6.17127 27.5569C6.2316 27.2745 6.2316 27.2745 6.52298 27.0573C6.52298 27.6306 6.52298 28.2038 6.52298 28.7943C6.95568 28.7406 6.95568 28.7406 7.39712 28.6858C7.39712 28.5425 7.39712 28.3992 7.39712 28.2515C7.58943 28.2515 7.78174 28.2515 7.97988 28.2515C7.99491 28.1956 8.00993 28.1396 8.02541 28.0819C8.12557 27.8173 8.12557 27.8173 8.36232 27.4305C8.61959 27.0678 8.61959 27.0678 8.41695 26.7317C8.27272 26.6958 8.12849 26.66 7.97988 26.6231C7.97988 26.5873 7.97988 26.5515 7.97988 26.5145C8.39412 26.4895 8.62987 26.4756 8.9815 26.6502C9.1454 26.8402 9.1454 26.8402 9.10614 27.0349C8.9377 27.4141 8.67625 27.7541 8.42549 28.1061C8.24124 28.3631 8.24124 28.3631 8.27126 28.6858C9.06507 28.8235 9.06507 28.8235 9.80101 28.6451C10.1197 28.2295 10.0678 27.8509 10.0195 27.383C9.87531 27.3293 9.87531 27.3293 9.72817 27.2745C9.72817 27.2028 9.72817 27.1312 9.72817 27.0573C10.0013 27.0913 10.0013 27.0913 10.3109 27.1659C10.6716 27.5691 10.6808 27.8928 10.6023 28.3601C10.4097 28.7 10.2208 28.8674 9.84654 29.1065C9.25443 29.2829 8.89493 29.2175 8.27126 29.12C8.12703 29.0484 7.9828 28.9767 7.83419 28.9029C7.42793 28.9459 7.42793 28.9459 7.10574 29.12C7.07212 29.2663 7.04578 29.4135 7.02379 29.5611C7.00276 29.7021 6.98172 29.8432 6.96005 29.9885C6.7009 30.0551 6.7009 30.0551 6.37729 30.0971C5.98434 29.9474 5.63307 29.7951 5.2664 29.6153C5.11016 29.5404 5.11016 29.5404 4.95076 29.464C3.46195 28.7401 2.0981 27.8855 0.841059 26.9488C0.822847 26.5553 0.822847 26.5553 0.841059 26.1889C1.00633 26.1732 1.17159 26.1575 1.34187 26.1414C1.83288 26.1224 1.83288 26.1224 2.00658 25.9717C2.017 25.8249 2.01882 25.6777 2.01569 25.5307C2.01268 25.3896 2.00968 25.2486 2.00658 25.1032C2.15081 25.1032 2.29505 25.1032 2.44365 25.1032C2.49173 25.2107 2.53981 25.3182 2.58934 25.4289C2.67348 25.3953 2.75761 25.3618 2.8443 25.3271C3.14922 25.2199 3.42638 25.1557 3.75486 25.1032C3.75486 25.2824 3.75486 25.4615 3.75486 25.646C3.4664 25.6819 3.17793 25.7177 2.88072 25.7546C3.13281 26.2094 3.40263 26.6554 3.69112 27.0981C3.75141 27.1907 3.81169 27.2833 3.87381 27.3788C4.0223 27.6161 4.0223 27.6161 4.33763 27.7087C4.3857 27.5296 4.43378 27.3505 4.48332 27.1659C4.67563 27.2017 4.86794 27.2376 5.06608 27.2745C5.05049 27.34 5.0349 27.4055 5.01884 27.4729C4.88736 28.0164 4.88736 28.0164 5.12982 28.5161C5.20494 28.5721 5.28006 28.6281 5.35746 28.6858C5.35746 28.7574 5.35746 28.8291 5.35746 28.9029C5.45361 28.9029 5.54977 28.9029 5.64884 28.9029C5.6283 28.8149 5.60776 28.7269 5.58659 28.6363C5.50879 28.3027 5.43115 27.969 5.35362 27.6353C5.30418 27.4228 5.25456 27.2103 5.20494 26.9978C4.58305 24.3196 4.58305 24.3196 4.62901 23.5834Z" fill="#C77F04"/>
<path d="M12.642 18.3723C12.9547 18.6053 13.2654 18.8401 13.5616 19.0848C14.5418 19.7471 15.5704 19.7375 16.8397 19.7429C17.0855 19.7503 17.0855 19.7503 17.3362 19.7577C18.5765 19.7653 19.2988 19.5305 20.2179 18.9151C20.4102 18.7718 20.6025 18.6285 20.8006 18.4809C20.8006 19.1257 20.8006 19.7706 20.8006 20.435C20.6053 20.4865 20.41 20.538 20.2088 20.591C19.2428 20.9759 19.022 21.7027 18.675 22.4281C18.4696 22.8233 18.4696 22.8233 18.1782 22.9319C18.2739 22.5213 18.4288 22.1483 18.6244 21.7581C18.6771 21.6521 18.7299 21.5462 18.7843 21.4371C18.8247 21.3572 18.865 21.2772 18.9067 21.1949C18.7376 21.2012 18.5686 21.2075 18.3945 21.214C16.944 21.2512 15.8411 21.1818 14.5359 20.6521C14.4398 20.6163 14.3436 20.5805 14.2446 20.5435C14.5119 21.1685 14.8129 21.7766 15.1523 22.3819C15.2644 22.6062 15.2644 22.6062 15.2644 22.8233C15.048 22.7696 15.048 22.7696 14.8273 22.7148C14.6614 22.4385 14.5213 22.1723 14.3903 21.887C14.0078 20.8578 14.0078 20.8578 13.1974 20.0618C13.1103 20.0417 13.0231 20.0215 12.9333 20.0007C12.8372 20.1082 12.741 20.2157 12.642 20.3264C12.642 19.6816 12.642 19.0367 12.642 18.3723Z" fill="#582819"/>
<path d="M23.1317 8.49329C23.3414 8.54242 23.5507 8.59233 23.76 8.64256C23.8766 8.67027 23.9932 8.69798 24.1134 8.72652C24.4429 8.81897 24.4429 8.81897 24.88 9.03609C24.9122 9.32128 24.921 9.57987 24.9073 9.86388C24.9053 9.94057 24.9033 10.0173 24.9013 10.0963C24.8961 10.2857 24.8883 10.4751 24.88 10.6645C24.9949 10.6792 25.1098 10.6939 25.2282 10.709C25.6484 10.7798 25.7811 10.8525 26.0455 11.0988C26.3646 11.5744 26.2946 12.1056 26.1912 12.6186C25.7854 13.4857 25.1626 14.35 24.2972 15.007C23.9711 15.0706 23.9711 15.0706 23.6689 15.0477C23.4916 15.0343 23.3143 15.0208 23.1317 15.007C23.2421 14.1979 23.2421 14.1979 23.4241 13.8912C23.6886 13.3508 23.6176 12.7809 23.6143 12.2115C23.6141 12.0808 23.6139 11.9501 23.6137 11.8154C23.6006 10.9037 23.4891 10.0411 23.2273 9.15144C23.1317 8.81897 23.1317 8.81897 23.1317 8.49329Z" fill="#572D1E"/>
<path d="M19.0523 29.5542C20.69 29.5542 20.69 29.5542 21.4135 29.6216C21.65 29.6429 21.65 29.6429 21.8913 29.6647C22.1312 29.6872 22.1312 29.6872 22.3759 29.7103C22.6955 29.7398 23.0151 29.7691 23.3348 29.798C23.4916 29.8123 23.6483 29.8266 23.8098 29.8412C24.482 29.8945 25.1552 29.9235 25.8302 29.9495C25.9493 29.9623 26.0684 29.9752 26.1912 29.9884C26.2633 30.0959 26.2633 30.0959 26.3369 30.2056C23.9963 31.0289 21.634 31.6249 19.0523 31.834C19.0523 31.0817 19.0523 30.3293 19.0523 29.5542Z" fill="#17181A"/>
<path d="M22.986 22.0635C23.0341 22.0635 23.0821 22.0635 23.1317 22.0635C23.2328 22.7721 22.9675 23.2301 22.4032 23.8005C21.6667 24.4013 20.8404 24.8737 19.7808 25.1032C19.5885 25.1032 19.3962 25.1032 19.198 25.1032C19.1988 25.1736 19.1996 25.244 19.2003 25.3165C19.213 26.6629 19.2024 27.995 19.0523 29.3371C19.7735 29.3729 20.4947 29.4088 21.2377 29.4457C21.2377 29.2665 21.2377 29.0874 21.2377 28.9029C21.454 28.8491 21.454 28.8491 21.6748 28.7943C21.6898 28.7316 21.7048 28.6689 21.7203 28.6043C21.8798 28.2154 22.2675 28.061 22.6946 27.8172C22.6107 27.5583 22.5165 27.3106 22.4032 27.0573C22.986 27.1659 22.986 27.1659 23.2682 27.2541C23.6041 27.302 23.6041 27.302 23.933 27.0709C24.0532 26.9948 24.1734 26.9186 24.2972 26.8402C24.6341 26.7588 24.6341 26.7588 24.8799 26.7316C24.8799 26.5525 24.8799 26.3734 24.8799 26.1888C25.0242 26.1888 25.1684 26.1888 25.317 26.1888C25.317 26.2605 25.317 26.3321 25.317 26.4059C25.5153 26.3522 25.5153 26.3522 25.7177 26.2974C26.1912 26.1888 26.1912 26.1888 26.7739 26.1888C26.7258 26.3321 26.6778 26.4754 26.6282 26.6231C26.2676 26.6768 26.2676 26.6768 25.8998 26.7316C25.9719 26.7988 26.044 26.866 26.1183 26.9352C26.3369 27.1659 26.3369 27.1659 26.3369 27.383C26.0965 27.383 25.8561 27.383 25.6084 27.383C25.5122 27.2397 25.4161 27.0964 25.317 26.9488C24.631 27.1782 24.631 27.1782 24.1515 27.6001C24.0073 27.636 23.863 27.6718 23.7144 27.7087C23.7625 27.7669 23.8106 27.8251 23.8601 27.8851C24.0389 28.2015 24.0265 28.4544 24.0058 28.7943C23.8616 28.7585 23.7173 28.7227 23.5687 28.6857C23.3957 28.4076 23.3957 28.4076 23.2774 28.1429C22.8159 28.3148 22.5878 28.4092 22.3577 28.7604C22.3246 28.8432 22.2916 28.9261 22.2575 29.0114C22.7024 29.4635 23.1642 29.5338 23.8687 29.6229C24.5108 29.6827 25.1537 29.7168 25.7996 29.7446C26.1912 29.7714 26.1912 29.7714 26.4825 29.8799C26.4825 29.9516 26.4825 30.0232 26.4825 30.097C24.0012 29.9462 21.5269 29.7575 19.0523 29.5542C19.0523 30.3066 19.0523 31.0589 19.0523 31.834C18.9562 31.834 18.86 31.834 18.761 31.834C18.761 29.577 18.761 27.32 18.761 24.9946C19.3379 24.8334 19.3379 24.8334 19.9265 24.669C21.372 24.2235 22.0663 23.7438 22.6764 22.6674C22.7815 22.4666 22.8854 22.2655 22.986 22.0635Z" fill="#C77F04"/>
<path d="M27.7505 22.1352C28.2107 22.1859 28.5657 22.3173 28.9593 22.4978C28.9384 22.6493 28.9171 22.8009 28.8955 22.9524C28.8837 23.0368 28.8719 23.1211 28.8597 23.2081C28.8136 23.4748 28.8136 23.4748 28.7395 23.7181C28.6575 24.0612 28.6468 24.3858 28.6423 24.7343C28.5825 27.4486 28.5825 27.4486 28.249 28.6179C28.2255 28.7023 28.202 28.7866 28.1777 28.8735C28.1045 29.1022 28.1045 29.1022 27.9394 29.4457C27.7231 29.4995 27.7231 29.4995 27.5024 29.5543C27.4599 28.5593 27.6245 27.5937 27.7938 26.6095C27.8219 26.4419 27.85 26.2742 27.878 26.1066C27.9461 25.6997 28.0153 25.2929 28.0851 24.8861C27.7967 24.9936 27.7967 24.9936 27.5024 25.1032C27.5024 25.3898 27.5024 25.6765 27.5024 25.9717C27.3101 25.9717 27.1177 25.9717 26.9196 25.9717C26.9196 25.7926 26.9196 25.6135 26.9196 25.4289C26.535 25.4289 26.1504 25.4289 25.7541 25.4289C25.706 25.2856 25.6579 25.1423 25.6084 24.9947C26.3837 24.8771 27.1578 24.761 27.9394 24.669C27.8433 24.5615 27.7471 24.454 27.6481 24.3433C27.6778 23.7559 27.8829 23.389 28.3765 22.932C28.4727 22.932 28.5688 22.932 28.6679 22.932C28.6679 22.7887 28.6679 22.6454 28.6679 22.4978C28.5101 22.5011 28.5101 22.5011 28.3492 22.5045C27.9512 22.498 27.5982 22.4551 27.211 22.3892C27.1635 22.4519 27.116 22.5146 27.067 22.5792C26.9715 22.7001 26.9715 22.7001 26.8741 22.8234C26.8115 22.9041 26.749 22.9847 26.6846 23.0677C26.6179 23.1304 26.5512 23.1931 26.4825 23.2577C26.3383 23.2577 26.1941 23.2577 26.0455 23.2577C26.3708 22.4373 26.5606 22.099 27.7505 22.1352Z" fill="#C77F04"/>
<path d="M10.3109 8.49329C10.118 9.91935 9.79886 11.3199 9.43679 12.7272C9.20044 12.3802 8.99623 12.0293 8.79939 11.6687C8.58341 11.2752 8.35775 10.9 8.08005 10.5288C7.772 10.0763 7.73427 9.7579 7.8342 9.25322C8.20313 8.85804 8.54428 8.69116 9.15451 8.56792C9.72817 8.49329 9.72817 8.49329 10.3109 8.49329Z" fill="#1F1814"/>
<path d="M14.0243 7.9283C14.1861 7.92784 14.1861 7.92784 14.3511 7.92737C14.9216 7.92575 15.4921 7.92474 16.0627 7.92427C16.6475 7.92367 17.2323 7.92106 17.8171 7.91798C18.271 7.91594 18.7248 7.91539 19.1787 7.91522C19.3941 7.9149 19.6095 7.91404 19.8249 7.9126C21.5563 7.90185 22.9853 8.12836 24.5886 8.60172C24.5405 8.7092 24.4924 8.81667 24.4429 8.9274C24.1724 8.85687 24.1724 8.85687 23.8965 8.78492C22.2371 8.37918 20.7287 8.14155 18.976 8.33175C18.232 8.40208 17.4956 8.39215 16.7469 8.38375C16.4406 8.38185 16.1344 8.38001 15.8281 8.37823C15.3512 8.37489 14.8743 8.37104 14.3974 8.36599C12.0629 8.32593 12.0629 8.32593 9.78347 8.65012C9.41171 8.71463 9.21008 8.69518 8.85402 8.60172C9.12027 8.51211 9.3876 8.42425 9.65532 8.3371C9.80406 8.28798 9.9528 8.23886 10.106 8.18825C11.3599 7.86146 12.7121 7.93083 14.0243 7.9283Z" fill="#7F0D0C"/>
<path d="M0.841053 26.1888C0.889131 26.2963 0.937208 26.4038 0.986743 26.5145C1.70145 26.5453 2.04231 26.5324 2.58934 26.1888C2.7851 26.4506 2.97906 26.713 3.1721 26.9759C3.22769 27.0499 3.28328 27.124 3.34055 27.2002C3.39314 27.2723 3.44572 27.3444 3.4999 27.4186C3.54873 27.4846 3.59756 27.5505 3.64787 27.6185C3.75486 27.8173 3.75486 27.8173 3.75486 28.2515C3.87806 28.2672 4.00126 28.2829 4.12819 28.299C4.85515 28.5452 5.20093 28.9658 5.64883 29.4457C5.55268 29.5173 5.45652 29.589 5.35745 29.6628C4.34499 29.1627 3.36982 28.6476 2.44365 28.0615C2.36689 28.013 2.29014 27.9645 2.21106 27.9145C0.851234 27.0413 0.851234 27.0413 0.795525 26.5349C0.810549 26.4207 0.825573 26.3065 0.841053 26.1888Z" fill="#17181A"/>
<path d="M19.6351 15.9838C19.7072 16.145 19.7072 16.145 19.7808 16.3095C19.082 16.5166 18.4585 16.5542 17.7161 16.544C17.6048 16.5435 17.4936 16.5429 17.379 16.5423C17.0262 16.5404 16.6734 16.537 16.3207 16.5334C15.9658 16.5304 15.611 16.5277 15.2561 16.5257C15.0359 16.5244 14.8157 16.5225 14.5955 16.5199C14.0375 16.5079 14.0375 16.5079 13.5161 16.6352C13.5161 16.4561 13.5161 16.2769 13.5161 16.0924C15.1686 15.4598 17.9433 15.3193 19.6351 15.9838Z" fill="#552C20"/>
<path d="M8.85402 22.2806C8.99826 22.2806 9.14249 22.2806 9.29109 22.2806C9.32114 22.3836 9.35119 22.4866 9.38215 22.5928C9.53998 22.9637 9.53998 22.9637 10.0378 23.0813C10.176 23.1037 10.3142 23.1261 10.4566 23.1491C10.4566 23.2566 10.4566 23.3641 10.4566 23.4748C10.2162 23.4748 9.97584 23.4748 9.72816 23.4748C9.77624 23.5823 9.82432 23.6898 9.87385 23.8005C9.97001 23.8363 10.0662 23.8722 10.1652 23.9091C10.1652 23.9807 10.1652 24.0524 10.1652 24.1262C10.0691 24.162 9.97292 24.1978 9.87385 24.2348C9.87385 24.3064 9.87385 24.3781 9.87385 24.4519C10.0181 24.5235 10.1623 24.5952 10.3109 24.669C10.2628 24.8123 10.2148 24.9556 10.1652 25.1032C9.91647 24.9642 9.67371 24.8191 9.43678 24.669C9.43678 24.5973 9.43678 24.5257 9.43678 24.4519C9.31058 24.5056 9.18438 24.5594 9.05435 24.6147C8.45507 24.8132 8.03488 24.8683 7.40679 24.7038C7.15752 24.6253 6.91264 24.5391 6.66867 24.4519C6.62059 24.5594 6.57251 24.6668 6.52298 24.7776C6.37874 24.7776 6.23451 24.7776 6.08591 24.7776C6.29677 24.2669 6.29677 24.2669 6.63225 24.133C6.96005 24.1262 6.96005 24.1262 7.37891 24.2348C7.89981 24.359 8.18232 24.3285 8.70833 24.2348C8.82252 24.2146 8.9367 24.1944 9.05435 24.1737C9.13247 24.158 9.2106 24.1423 9.29109 24.1262C9.16693 23.6451 9.08631 23.4198 8.57175 23.1016C8.14417 22.9073 8.14417 22.9073 7.6885 22.932C7.59385 23.063 7.59385 23.063 7.49728 23.1966C7.25143 23.4748 7.25143 23.4748 6.80525 23.5766C6.59341 23.58 6.59341 23.58 6.37729 23.5834C6.28113 23.5117 6.18498 23.4401 6.08591 23.3663C6.08591 23.223 6.08591 23.0797 6.08591 22.932C6.42245 22.9678 6.759 23.0037 7.10574 23.0406C7.16283 22.951 7.21992 22.8614 7.27875 22.7692C7.54281 22.4978 7.54281 22.4978 7.89793 22.4435C8.3215 22.5051 8.53433 22.6117 8.85402 22.8234C8.85402 22.6443 8.85402 22.4652 8.85402 22.2806Z" fill="#C77F04"/>
<path d="M24.5886 21.6293C24.9492 21.683 24.9492 21.683 25.317 21.7378C25.1728 22.0244 25.0286 22.311 24.88 22.6063C25.0242 22.6422 25.1684 22.678 25.317 22.7149C25.1728 22.7507 25.0286 22.7865 24.88 22.8235C24.8884 22.8996 24.8969 22.9757 24.9056 23.0541C24.9549 23.8271 24.8031 24.2809 24.1515 24.8861C24.3438 24.8861 24.5361 24.8861 24.7343 24.8861C24.7343 24.9936 24.7343 25.1011 24.7343 25.2118C24.4909 25.2286 24.4909 25.2286 24.2426 25.2457C24.0683 25.2704 23.894 25.295 23.7144 25.3204C23.6183 25.4278 23.5221 25.5353 23.4231 25.6461C23.3269 25.6461 23.2307 25.6461 23.1317 25.6461C23.1798 25.7894 23.2278 25.9327 23.2774 26.0803C23.1722 26.0713 23.067 26.0624 22.9587 26.0532C22.4282 26.0883 22.2253 26.2685 21.8205 26.5145C21.6762 26.4787 21.532 26.4429 21.3834 26.406C21.5006 26.3231 21.6178 26.2403 21.7385 26.1549C22.1363 25.8855 22.1363 25.8855 22.2575 25.5375C22.6309 25.4086 22.6309 25.4086 22.986 25.3204C23.0167 24.8976 23.0167 24.8976 22.8403 24.5604C23.0807 24.5963 23.3211 24.6321 23.5687 24.669C23.6108 24.6018 23.6529 24.5347 23.6962 24.4654C23.8601 24.2348 23.8601 24.2348 24.1515 24.0176C24.2183 23.8035 24.2183 23.8035 24.2426 23.5698C24.2606 23.431 24.2786 23.2922 24.2972 23.1491C24.0568 23.185 23.8164 23.2208 23.5687 23.2577C23.5207 23.1144 23.4726 22.9711 23.4231 22.8235C23.6304 22.7395 23.6304 22.7395 23.8419 22.6538C24.3867 22.3372 24.4606 22.1251 24.5886 21.6293Z" fill="#C77F04"/>
<path d="M26.0455 11.3159C26.0936 11.3159 26.1416 11.3159 26.1912 11.3159C26.4054 12.4868 25.862 13.3898 25.0256 14.3556C24.7933 14.5818 24.5506 14.7934 24.2972 15.007C24.1049 14.9712 23.9126 14.9354 23.7144 14.8985C23.7311 14.7242 23.7497 14.5501 23.7691 14.376C23.7843 14.2305 23.7843 14.2305 23.7998 14.0821C23.8601 13.8128 23.8601 13.8128 24.1515 13.4872C24.5339 13.4125 24.5339 13.4125 24.88 13.3786C24.891 12.9742 24.8779 12.6105 24.7798 12.2116C24.7343 11.8587 24.7343 11.8587 24.8982 11.6484C25.2494 11.5001 25.5025 11.509 25.8998 11.533C25.9479 11.4614 25.9959 11.3897 26.0455 11.3159Z" fill="#6C3D2B"/>
<path d="M7.6885 29.4457C7.93124 29.441 8.17421 29.4412 8.41695 29.4457C8.46503 29.4815 8.51311 29.5173 8.56264 29.5542C8.74894 29.5632 8.93524 29.5721 9.12719 29.5814C9.68889 29.6271 9.68889 29.6271 10.0195 29.9274C10.1652 30.2056 10.1652 30.2056 10.1652 30.4227C10.2794 30.4294 10.3936 30.4361 10.5112 30.4431C10.6375 30.4722 10.7637 30.5013 10.8937 30.5313C11.0849 30.8095 11.0849 30.8095 11.1851 31.0741C11.3083 31.0024 11.4315 30.9308 11.5584 30.857C12.1357 30.6067 12.4228 30.5583 13.079 30.6398C13.4932 30.9168 13.6487 31.073 13.6982 31.488C13.6862 31.5663 13.6742 31.6447 13.6618 31.7254C12.581 31.7657 11.6356 31.641 10.6023 31.3998C10.4566 31.2912 10.4566 31.2912 10.4475 31.013C10.4505 30.9257 10.4535 30.8384 10.4566 30.7484C10.3124 30.7484 10.1681 30.7484 10.0195 30.7484C9.97147 30.6432 9.92339 30.5379 9.87385 30.4295C9.6171 30.0526 9.6171 30.0526 9.02703 30.002C8.82387 29.9939 8.6204 29.9893 8.41695 29.9885C8.24868 29.9862 8.08041 29.984 7.90703 29.9817C7.78684 29.9839 7.66665 29.9862 7.54281 29.9885C7.59089 29.8093 7.63896 29.6302 7.6885 29.4457Z" fill="#17181A"/>
<path d="M7.54281 11.3159C8.01061 11.345 8.23021 11.3966 8.58085 11.6348C8.88879 12.0096 9.03022 12.3577 9.17329 12.7815C9.27767 13.0596 9.27767 13.0596 9.50223 13.3044C9.78687 13.6714 9.91364 14.0509 10.056 14.4574C10.4571 15.5342 10.9664 16.6025 12.0592 17.3954C12.0592 17.467 12.0592 17.5387 12.0592 17.6125C12.1554 17.6125 12.2515 17.6125 12.3506 17.6125C12.4467 17.7916 12.5429 17.9708 12.642 18.1553C12.052 18.1553 11.8674 17.9881 11.4429 17.7011C10.5082 16.9862 9.87385 15.9001 9.87385 14.8985C9.7777 14.8985 9.68154 14.8985 9.58247 14.8985C9.56867 14.7903 9.56867 14.7903 9.55459 14.6801C9.46859 14.1049 9.46859 14.1049 9.04979 13.6428C8.86751 13.5585 8.6839 13.4757 8.4989 13.3947C8.27126 13.27 8.27126 13.27 8.11646 12.9308C8.12557 12.6187 8.12557 12.6187 8.41695 12.293C8.36653 12.045 8.27606 11.8659 8.12557 11.6416C7.8306 11.5708 7.8306 11.5708 7.54281 11.533C7.54281 11.4614 7.54281 11.3897 7.54281 11.3159Z" fill="#592D1E"/>
<path d="M31.2903 25.1031C31.3865 25.1031 31.4826 25.1031 31.5817 25.1031C31.5502 25.1938 31.5502 25.1938 31.518 25.2863C31.432 25.5498 31.3598 25.8141 31.2903 26.0802C31.4346 26.1519 31.5788 26.2235 31.7274 26.2973C31.7274 26.4406 31.7274 26.5839 31.7274 26.7316C31.2352 26.6661 30.9519 26.5251 30.5619 26.2973C30.4844 26.4711 30.4089 26.6453 30.3342 26.8198C30.292 26.9168 30.2497 27.0137 30.2062 27.1137C30.0884 27.3951 30.0884 27.3951 30.2705 27.7086C30.5641 27.7882 30.5641 27.7882 30.8533 27.8172C30.5983 28.0411 30.5983 28.0411 30.2705 28.2514C29.8308 28.2322 29.7114 28.1605 29.3963 27.9258C29.2611 28.0836 29.2611 28.0836 29.1232 28.2447C28.8136 28.5771 28.8136 28.5771 28.5222 28.6857C28.4858 28.4482 28.4858 28.4482 28.5222 28.1429C28.6214 28.0556 28.7205 27.9682 28.8227 27.8783C29.1595 27.6101 29.1595 27.6101 29.0685 27.2405C29.0325 27.1442 28.9964 27.0479 28.9593 26.9487C29.1997 26.9845 29.4401 27.0203 29.6877 27.0573C29.7298 26.9789 29.7719 26.9005 29.8152 26.8198C29.967 26.5371 30.1187 26.2544 30.2705 25.9716C29.9339 25.9 29.5974 25.8283 29.2507 25.7545C29.2507 25.647 29.2507 25.5396 29.2507 25.4288C29.7555 25.3751 29.7555 25.3751 30.2705 25.3203C30.2705 25.3919 30.2705 25.4636 30.2705 25.5374C30.4628 25.5732 30.6551 25.609 30.8533 25.646C30.8983 25.5765 30.9434 25.5071 30.9898 25.4356C31.1446 25.2117 31.1446 25.2117 31.2903 25.1031Z" fill="#C77F04"/>
<path d="M23.1317 8.49329C23.3414 8.54242 23.5507 8.59233 23.76 8.64256C23.8766 8.67027 23.9932 8.69798 24.1134 8.72652C24.4429 8.81897 24.4429 8.81897 24.88 9.03609C25.1979 10.1839 24.5691 11.2499 24.0058 12.2929C23.9577 12.2929 23.9097 12.2929 23.8601 12.2929C23.756 11.8042 23.6522 11.3154 23.5489 10.8266C23.5137 10.6603 23.4783 10.494 23.4429 10.3278C23.392 10.0888 23.3414 9.84976 23.291 9.61071C23.2751 9.5364 23.2591 9.46209 23.2427 9.38553C23.1794 9.08384 23.1317 8.79927 23.1317 8.49329Z" fill="#1F1815"/>
<path d="M17.3041 24.1261C17.3521 24.1261 17.4002 24.1261 17.4497 24.1261C17.4017 26.6697 17.3536 29.2133 17.3041 31.834C17.1598 31.834 17.0156 31.834 16.867 31.834C16.867 29.6128 16.867 27.3916 16.867 25.1032C16.9631 25.1032 17.0593 25.1032 17.1584 25.1032C17.2064 24.7807 17.2545 24.4583 17.3041 24.1261Z" fill="#212122"/>
<path d="M10.4566 21.4121C10.5528 21.4121 10.6489 21.4121 10.748 21.4121C10.7589 21.5027 10.7698 21.5932 10.781 21.6865C10.9607 22.8327 11.452 23.5989 12.6744 24.3204C13.3953 24.6864 14.1533 24.8242 14.9992 24.9268C15.0867 24.9492 15.1742 24.9716 15.2644 24.9946C15.4101 25.3203 15.4101 25.3203 15.2735 25.5578C15.2224 25.6227 15.1713 25.6877 15.1187 25.7546C15.2149 25.7546 15.311 25.7546 15.4101 25.7546C15.4101 26.9759 15.4101 26.9759 15.2644 27.4916C15.1682 27.4916 15.0721 27.4916 14.973 27.4916C14.6007 26.8904 14.7369 26.4722 14.973 25.8631C14.7567 25.8094 14.7567 25.8094 14.5359 25.7546C14.5359 25.6471 14.5359 25.5396 14.5359 25.4289C14.6321 25.4289 14.7283 25.4289 14.8273 25.4289C14.8273 25.3572 14.8273 25.2856 14.8273 25.2118C14.6891 25.2051 14.5509 25.1983 14.4085 25.1914C13.1803 25.0562 12.0678 24.5372 11.3308 23.8005C10.7616 23.1039 10.3314 22.4524 10.3109 21.6292C10.359 21.5576 10.4071 21.4859 10.4566 21.4121Z" fill="#C77F04"/>
<path d="M25.6084 28.4686C25.8488 28.5045 26.0892 28.5403 26.3369 28.5772C26.3369 28.6488 26.3369 28.7205 26.3369 28.7943C26.433 28.7943 26.5292 28.7943 26.6282 28.7943C26.6282 28.7227 26.6282 28.651 26.6282 28.5772C26.7244 28.5772 26.8206 28.5772 26.9196 28.5772C26.9478 28.6374 26.976 28.6975 27.005 28.7595C27.0619 28.8775 27.0619 28.8775 27.1199 28.9979C27.1571 29.076 27.1943 29.154 27.2326 29.2345C27.3478 29.4654 27.3478 29.4654 27.6481 29.6628C27.0711 29.8778 27.0711 29.8778 26.4825 30.0971C26.4825 30.0254 26.4825 29.9538 26.4825 29.8799C25.8575 29.8083 25.2325 29.7366 24.5886 29.6628C24.5405 29.412 24.4924 29.1613 24.4429 28.9029C24.8275 28.8312 25.2121 28.7596 25.6084 28.6858C25.6084 28.6141 25.6084 28.5424 25.6084 28.4686Z" fill="#17181A"/>
<path d="M21.5291 10.6645C21.5291 10.7362 21.5291 10.8078 21.5291 10.8816C21.6673 10.9287 21.8055 10.9757 21.9479 11.0241C22.4032 11.2073 22.4032 11.2073 22.6946 11.533C22.2396 11.4803 21.8211 11.4246 21.3834 11.3159C21.3864 11.4032 21.3894 11.4905 21.3925 11.5805C21.3834 11.8587 21.3834 11.8587 21.2377 11.9673C20.746 12.008 20.746 12.008 20.2179 11.9673C19.9356 11.6959 19.9356 11.6959 19.7808 11.4244C19.6456 11.5319 19.6456 11.5319 19.5076 11.6416C19.198 11.8587 19.198 11.8587 18.9066 11.8587C18.9066 11.787 18.9066 11.7154 18.9066 11.6416C19.0028 11.6416 19.099 11.6416 19.198 11.6416C19.1499 11.4983 19.1019 11.355 19.0523 11.2073C19.9055 10.6599 20.4397 10.651 21.5291 10.6645Z" fill="#5B3324"/>
<path d="M22.3577 9.60608C22.757 9.81249 22.9387 10.0074 23.1317 10.3389C23.0055 10.2851 22.8793 10.2314 22.7492 10.176C21.8468 9.88528 20.5926 9.86908 19.6755 10.123C19.566 10.1584 19.4565 10.1938 19.3437 10.2303C18.8611 10.2439 18.8611 10.2439 18.4696 10.2303C18.4696 10.087 18.4696 9.94371 18.4696 9.79606C19.5164 9.21103 21.2269 9.10208 22.3577 9.60608Z" fill="#231B16"/>
<path d="M14.5359 9.57906C14.6802 9.65071 14.8244 9.72236 14.973 9.79618C14.973 9.93948 14.973 10.0828 14.973 10.2304C14.7635 10.215 14.5541 10.1991 14.3447 10.1829C14.2281 10.1741 14.1115 10.1653 13.9913 10.1562C13.6618 10.1219 13.6618 10.1219 13.2247 10.0133C12.8942 10.0001 12.5632 9.99426 12.2322 9.99295C11.9694 9.99064 11.9694 9.99064 11.7012 9.98828C11.1879 10.0132 10.7886 10.0925 10.3109 10.2304C10.5645 9.78067 10.8455 9.64322 11.4269 9.4442C12.4194 9.20469 13.5607 9.33831 14.5359 9.57906Z" fill="#251C17"/>
<path d="M9.58247 29.9883C9.87385 30.1919 9.87385 30.1919 10.0195 30.4226C10.0195 30.5301 10.0195 30.6375 10.0195 30.7483C10.1638 30.7483 10.308 30.7483 10.4566 30.7483C10.4566 30.9274 10.4566 31.1065 10.4566 31.2911C9.43547 31.1033 8.48938 30.8742 7.54281 30.5311C7.59687 30.3229 7.59687 30.3229 7.6885 30.0969C8.32394 29.7956 8.87966 29.8701 9.58247 29.9883Z" fill="#17181A"/>
<path d="M23.1317 15.1155C23.4119 15.6996 23.0252 16.2089 22.6946 16.7439C22.2012 17.362 21.5569 17.8236 20.8006 18.2638C20.7045 18.2279 20.6083 18.1921 20.5092 18.1552C20.5092 17.6537 20.5092 17.1521 20.5092 16.6353C20.5573 16.6353 20.6054 16.6353 20.6549 16.6353C20.703 16.9936 20.7511 17.3519 20.8006 17.721C21.6052 17.0457 22.2464 16.4149 22.6986 15.573C22.8403 15.3326 22.8403 15.3326 23.1317 15.1155Z" fill="#582B1B"/>
<path d="M19.6169 7.92336C19.806 7.92112 19.9951 7.91888 20.19 7.91657C21.7954 7.91174 23.1087 8.16495 24.5886 8.60187C24.5405 8.70934 24.4924 8.81682 24.4429 8.92755C24.2626 8.88053 24.0823 8.83351 23.8965 8.78507C23.642 8.72305 23.387 8.66205 23.1317 8.60187C23.0078 8.57261 22.8838 8.54335 22.7562 8.51321C21.5203 8.25211 20.3336 8.24129 19.0614 8.26261C18.7585 8.26644 18.4556 8.26978 18.1527 8.27253C17.8806 8.27518 17.6086 8.27922 17.3365 8.28334C16.9151 8.27692 16.5471 8.24115 16.1385 8.16762C16.1385 8.1318 16.1385 8.09597 16.1385 8.05906C17.2988 7.94176 18.4469 7.9268 19.6169 7.92336Z" fill="#840E0B"/>
<path d="M13.3704 10.9903C13.4666 11.0261 13.5627 11.0619 13.6618 11.0988C13.6618 11.1705 13.6618 11.2421 13.6618 11.3159C13.5656 11.3159 13.4695 11.3159 13.3704 11.3159C13.3794 11.401 13.3884 11.4861 13.3977 11.5738C13.3842 11.7148 13.3842 11.7148 13.3704 11.8588C12.9333 12.0759 12.9333 12.0759 12.5691 12.0759C12.2049 11.9673 12.2049 11.9673 11.9408 11.6348C11.8837 11.5296 11.8266 11.4244 11.7678 11.3159C11.6807 11.3518 11.5935 11.3876 11.5038 11.4245C11.1851 11.5331 11.1851 11.5331 10.748 11.5331C10.8867 11.2607 11.0395 11.0987 11.3216 10.8953C12.0227 10.7034 12.6626 10.851 13.3704 10.9903Z" fill="#28211F"/>
<path d="M7.97989 10.4474C8.39525 10.7153 8.5804 10.9977 8.7994 11.3702C8.86138 11.4743 8.92335 11.5784 8.9872 11.6857C9.14542 11.9673 9.14542 11.9673 9.29111 12.2929C9.38726 12.2213 9.48342 12.1496 9.58249 12.0758C9.58249 12.5057 9.58249 12.9356 9.58249 13.3786C9.07403 12.9735 8.88088 12.6024 8.66623 12.0856C8.54204 11.8135 8.40477 11.6242 8.12558 11.4244C7.82048 11.338 7.82048 11.338 7.54282 11.3159C7.52479 11.3853 7.50676 11.4547 7.48819 11.5262C7.45814 11.6001 7.42809 11.674 7.39713 11.7501C7.2529 11.8039 7.2529 11.8039 7.10575 11.8587C7.03425 11.0595 7.03425 11.0595 7.37892 10.7256C7.68851 10.5559 7.68851 10.5559 7.97989 10.4474Z" fill="#663928"/>
<path d="M10.1652 25.3203C10.7895 25.534 11.313 25.8362 11.864 26.1388C12.1997 26.3261 12.1997 26.3261 12.642 26.2974C12.6901 26.2257 12.7381 26.1541 12.7877 26.0802C12.98 26.1161 13.1723 26.1519 13.3704 26.1888C13.3249 26.3991 13.3249 26.3991 13.2247 26.6231C13.0805 26.6589 12.9363 26.6947 12.7877 26.7316C13.0787 26.9562 13.358 27.1592 13.6982 27.3423C13.7824 27.3915 13.8665 27.4408 13.9532 27.4915C13.9532 27.5632 13.9532 27.6348 13.9532 27.7087C13.4435 27.6399 13.1022 27.4859 12.6784 27.2676C12.562 27.2082 12.4455 27.1487 12.3256 27.0874C12.2377 27.0416 12.1498 26.9959 12.0592 26.9487C12.0592 27.0204 12.0592 27.092 12.0592 27.1659C11.915 27.13 11.7707 27.0942 11.6221 27.0573C11.6221 26.9498 11.6221 26.8423 11.6221 26.7316C11.7183 26.7316 11.8145 26.7316 11.9135 26.7316C11.5541 26.4562 11.203 26.1991 10.7935 25.9649C10.4632 25.7587 10.3208 25.6153 10.1652 25.3203Z" fill="#C77F04"/>
<path d="M14.973 29.0115C15.1173 29.0115 15.2615 29.0115 15.4101 29.0115C15.4071 29.0921 15.4041 29.1727 15.401 29.2557C15.3952 29.548 15.3952 29.548 15.492 29.7985C15.5131 29.8612 15.5341 29.9239 15.5558 29.9885C15.5077 30.0244 15.4596 30.0602 15.4101 30.0971C15.4483 30.3145 15.4869 30.5318 15.5279 30.7489C15.5591 30.9917 15.5098 31.1687 15.4101 31.3998C15.4101 31.5431 15.4101 31.6864 15.4101 31.8341C15.2178 31.8341 15.0255 31.8341 14.8273 31.8341C14.8273 31.44 14.8273 31.0459 14.8273 30.6399C14.635 30.5682 14.4427 30.4966 14.2446 30.4228C13.9532 30.0971 13.9532 30.0971 14.0078 29.8596C14.0379 29.7947 14.0679 29.7297 14.0989 29.6628C14.5359 29.88 14.5359 29.88 14.6816 30.2057C14.7778 30.2415 14.8739 30.2773 14.973 30.3142C14.9608 30.2293 14.9486 30.1443 14.936 30.0568C14.9138 29.892 14.9138 29.892 14.8911 29.7239C14.8759 29.6143 14.8606 29.5048 14.845 29.3919C14.8391 29.3022 14.8333 29.2125 14.8273 29.12C14.8754 29.0842 14.9235 29.0484 14.973 29.0115Z" fill="#C77F04"/>
<path d="M30.5619 26.2974C30.6483 26.3307 30.7347 26.364 30.8237 26.3983C31.2114 26.5387 31.6084 26.6343 32.0188 26.7316C32.0188 27.1289 31.9157 27.1865 31.5544 27.4644C31.0644 27.814 31.0644 27.814 30.5892 27.8376C30.2003 27.6803 30.1188 27.5845 29.9791 27.2744C30.0781 27.0183 30.0781 27.0183 30.2523 26.7588C30.309 26.672 30.3657 26.5852 30.4241 26.4958C30.4696 26.4303 30.515 26.3648 30.5619 26.2974Z" fill="#17181A"/>
<path d="M22.986 22.0635C23.0341 22.0635 23.0821 22.0635 23.1317 22.0635C23.2328 22.7721 22.9675 23.2301 22.4032 23.8005C21.6713 24.3976 20.84 24.8843 19.7808 25.1032C19.5404 25.1032 19.3 25.1032 19.0523 25.1032C19.0523 25.8555 19.0523 26.6079 19.0523 27.383C19.0043 27.383 18.9562 27.383 18.9066 27.383C18.9066 26.559 18.9066 25.735 18.9066 24.8861C19.3874 24.7786 19.8682 24.6711 20.3635 24.5604C21.884 23.9529 22.3841 23.2428 22.986 22.0635Z" fill="#C77F04"/>
<path d="M11.5493 20.53C11.7228 20.5296 11.7228 20.5296 11.8999 20.5292C12.2049 20.5436 12.2049 20.5436 12.4963 20.6522C12.4482 20.7955 12.4001 20.9388 12.3506 21.0864C12.2544 21.0864 12.1583 21.0864 12.0592 21.0864C12.0592 21.4088 12.0592 21.7313 12.0592 22.0635C12.0111 22.0635 11.9631 22.0635 11.9135 22.0635C11.9135 21.7769 11.9135 21.4903 11.9135 21.195C11.261 21.2435 11.261 21.2435 10.748 21.5206C10.6038 21.4848 10.4595 21.449 10.3109 21.4121C10.3109 21.2688 10.3109 21.1255 10.3109 20.9778C10.4071 20.9778 10.5032 20.9778 10.6023 20.9778C10.6023 20.8704 10.6023 20.7629 10.6023 20.6522C10.947 20.5237 11.1658 20.5291 11.5493 20.53Z" fill="#17181A"/>
<path d="M24.5886 10.6645C24.9892 10.6374 24.9892 10.6374 25.4627 10.6645C25.8087 10.8816 25.8087 10.8816 26.0455 11.0988C25.9012 11.26 25.9012 11.26 25.7541 11.4245C25.6399 11.4401 25.5257 11.4558 25.4081 11.4719C24.9136 11.5509 24.7529 11.6725 24.4429 11.9673C24.2582 12.3074 24.2582 12.3074 24.1515 12.6186C24.1034 12.6186 24.0553 12.6186 24.0058 12.6186C24.0802 11.9198 24.2578 11.3203 24.5886 10.6645Z" fill="#6D3D2C"/>
<path d="M13.079 28.0344C13.2233 28.0702 13.3675 28.1061 13.5161 28.143C13.6254 28.3601 13.6254 28.3601 13.6618 28.5772C13.6137 28.6131 13.5656 28.6489 13.5161 28.6858C13.4733 29.0789 13.5379 29.3238 13.8075 29.6628C13.6633 29.6628 13.519 29.6628 13.3704 29.6628C13.3704 29.7345 13.3704 29.8062 13.3704 29.88C13.2262 29.8441 13.082 29.8083 12.9334 29.7714C12.9334 29.449 12.9334 29.1266 12.9334 28.7944C12.7891 28.9018 12.6449 29.0093 12.4963 29.12C12.352 29.12 12.2078 29.12 12.0592 29.12C12.1093 28.772 12.2006 28.6885 12.5691 28.4551C12.6893 28.3879 12.8095 28.3208 12.9334 28.2515C12.9814 28.1799 13.0295 28.1082 13.079 28.0344Z" fill="#C77F04"/>
<path d="M18.761 24.9946C18.9052 25.0305 19.0494 25.0663 19.198 25.1032C19.2281 27.9001 19.2281 27.9001 19.0523 29.2285C18.9562 29.2285 18.86 29.2285 18.761 29.2285C18.761 27.8313 18.761 26.4342 18.761 24.9946Z" fill="#C77F04"/>
<path d="M8.70833 25.1031C8.54709 25.4199 8.44453 25.5254 8.04362 25.7002C7.62009 25.8519 7.62009 25.8519 7.54281 26.2973C7.11011 26.2615 6.67741 26.2257 6.2316 26.1888C6.2316 26.0813 6.2316 25.9738 6.2316 25.8631C6.42391 25.8273 6.61622 25.7914 6.81436 25.7545C6.81436 25.5754 6.81436 25.3963 6.81436 25.2117C7.00667 25.2117 7.19898 25.2117 7.39712 25.2117C7.39712 25.3192 7.39712 25.4267 7.39712 25.5374C7.53234 25.4657 7.66756 25.3941 7.80687 25.3203C8.27126 25.1031 8.27126 25.1031 8.70833 25.1031Z" fill="#C77F04"/>
<path d="M3.31779 28.1429C3.46203 28.1788 3.60626 28.2146 3.75487 28.2515C3.88708 28.2694 4.01929 28.2873 4.15551 28.3058C4.86316 28.5492 5.21152 28.9771 5.64884 29.4457C5.55268 29.5173 5.45653 29.589 5.35746 29.6628C5.11634 29.5467 4.87686 29.4288 4.63811 29.31C4.50458 29.2445 4.37106 29.179 4.23348 29.1115C3.86947 28.8834 3.84512 28.7999 3.75487 28.4686C3.61063 28.4328 3.4664 28.397 3.31779 28.3601C3.31779 28.2884 3.31779 28.2168 3.31779 28.1429Z" fill="#17181A"/>
<path d="M20.2179 10.9902C20.6025 10.9902 20.9871 10.9902 21.3834 10.9902C21.3834 11.0977 21.3834 11.2052 21.3834 11.3159C21.3864 11.41 21.3894 11.504 21.3925 11.6009C21.3834 11.8587 21.3834 11.8587 21.2377 11.9673C20.7369 11.9876 20.7369 11.9876 20.2179 11.9673C20.1217 11.8956 20.0256 11.824 19.9265 11.7502C19.9265 11.6427 19.9265 11.5352 19.9265 11.4245C20.3592 11.4782 20.3592 11.4782 20.8006 11.533C20.8006 11.4614 20.8006 11.3897 20.8006 11.3159C20.5602 11.3159 20.3198 11.3159 20.0722 11.3159C20.1203 11.2084 20.1683 11.101 20.2179 10.9902Z" fill="#11100C"/>
<path d="M12.4963 30.9181C12.9333 30.9656 12.9333 30.9656 13.2065 31.1624C13.3704 31.3998 13.3704 31.3998 13.3704 31.7255C12.5498 31.7515 11.8341 31.6588 11.0394 31.5084C11.1314 31.4762 11.2234 31.444 11.3182 31.4109C11.6308 31.3059 11.6308 31.3059 11.8225 31.1149C12.0592 30.9656 12.0592 30.9656 12.4963 30.9181Z" fill="#17181A"/>
<path d="M18.3239 10.1217C18.5643 10.1575 18.8047 10.1934 19.0524 10.2303C18.86 10.2661 18.6677 10.3019 18.4696 10.3388C18.0044 11.387 17.8536 12.3986 18.1782 13.4871C18.0821 13.4871 17.9859 13.4871 17.8868 13.4871C17.4613 12.6569 17.3601 11.7077 17.7588 10.86C17.9319 10.6039 18.1123 10.3611 18.3239 10.1217Z" fill="#603021"/>
<path d="M13.079 30.6398C13.4932 30.9167 13.6487 31.0729 13.6982 31.4879C13.6862 31.5663 13.6742 31.6446 13.6618 31.7254C13.5656 31.7254 13.4695 31.7254 13.3704 31.7254C13.1541 31.403 13.1541 31.403 12.9333 31.074C12.5146 31.0468 12.5146 31.0468 12.0592 31.074C11.9107 31.1804 11.7646 31.2888 11.6221 31.3997C11.3034 31.3658 11.3034 31.3658 11.0394 31.2911C11.1355 31.2911 11.2317 31.2911 11.3308 31.2911C11.3698 31.224 11.4089 31.1568 11.4491 31.0876C11.8337 30.5747 12.3592 30.5739 13.079 30.6398Z" fill="#C77F04"/>
<path d="M18.3239 8.27598C18.3239 8.3118 18.3239 8.34763 18.3239 8.38454C16.3756 8.39844 14.4412 8.36232 12.4963 8.27598C12.4963 8.24015 12.4963 8.20433 12.4963 8.16742C14.4978 8.03271 16.3416 8.04997 18.3239 8.27598Z" fill="#711A15"/>
<path d="M15.1187 10.5559C15.2149 10.5559 15.311 10.5559 15.4101 10.5559C15.8093 11.0645 15.9031 11.4347 15.8927 12.0215C15.8921 12.1592 15.8916 12.2969 15.891 12.4388C15.8485 12.8234 15.7421 13.1286 15.5558 13.4871C15.4596 13.4871 15.3635 13.4871 15.2644 13.4871C15.2884 13.3818 15.3125 13.2766 15.3372 13.1682C15.5048 12.2653 15.3685 11.445 15.1187 10.5559Z" fill="#602D1E"/>
<path d="M7.54281 11.3159C8.00611 11.3447 8.2337 11.4005 8.58996 11.628C8.99885 12.1534 9.1454 12.7708 9.1454 13.3786C8.87223 13.3175 8.87223 13.3175 8.56264 13.1615C8.32762 12.7111 8.24055 12.4273 8.41695 11.9673C8.17879 11.6281 8.17879 11.6281 7.81598 11.567C7.72583 11.5558 7.63569 11.5446 7.54281 11.533C7.54281 11.4614 7.54281 11.3897 7.54281 11.3159Z" fill="#552B1E"/>
<path d="M12.2049 10.6645C12.8771 10.6299 13.2521 10.6244 13.8712 10.8341C14.3413 11.1673 14.3658 11.3848 14.3903 11.8586C13.68 11.5601 13.68 11.5601 13.5161 11.3158C13.5642 11.2442 13.6123 11.1725 13.6618 11.0987C13.5722 11.0921 13.4826 11.0856 13.3903 11.0788C13.2726 11.0697 13.1548 11.0606 13.0335 11.0512C12.9169 11.0424 12.8003 11.0336 12.6801 11.0245C12.3506 10.9902 12.3506 10.9902 11.9135 10.8816C12.0097 10.8816 12.1058 10.8816 12.2049 10.8816C12.2049 10.8099 12.2049 10.7383 12.2049 10.6645Z" fill="#673625"/>
<path d="M13.2247 10.9902C13.369 11.0261 13.5132 11.0619 13.6618 11.0988C13.6618 11.1704 13.6618 11.2421 13.6618 11.3159C13.5656 11.3159 13.4695 11.3159 13.3704 11.3159C13.3794 11.401 13.3885 11.4861 13.3977 11.5738C13.3887 11.6678 13.3797 11.7618 13.3704 11.8587C12.9334 12.0759 12.9334 12.0759 12.5509 12.0419C12.2049 11.9673 12.2049 11.9673 12.0592 11.8587C12.0533 11.6417 12.053 11.4244 12.0592 11.2074C12.2034 11.2074 12.3477 11.2074 12.4963 11.2074C12.4963 11.3148 12.4963 11.4223 12.4963 11.533C12.6886 11.4972 12.8809 11.4614 13.079 11.4245C13.1271 11.2812 13.1752 11.1379 13.2247 10.9902Z" fill="#1F1814"/>
<path d="M23.8601 13.0529C24.134 13.3494 24.1539 13.4745 24.0843 13.8382C24.0404 13.9642 23.9965 14.0901 23.9512 14.2199C23.8864 14.4105 23.8864 14.4105 23.8203 14.6049C23.7854 14.7018 23.7504 14.7986 23.7144 14.8984C23.8106 14.9342 23.9067 14.9701 24.0058 15.007C23.7173 15.007 23.4289 15.007 23.1317 15.007C23.203 14.2893 23.4718 13.7097 23.8601 13.0529Z" fill="#512618"/>
<path d="M20.5092 11.9673C20.8458 12.0031 21.1823 12.0389 21.5291 12.0758C21.4329 12.1475 21.3368 12.2191 21.2377 12.293C21.0935 12.293 20.9492 12.293 20.8006 12.293C20.9449 12.4363 21.0891 12.5796 21.2377 12.7272C20.1534 12.767 20.1534 12.767 19.7808 12.5847C19.6351 12.4015 19.6351 12.4015 19.6351 12.0758C19.9236 12.0758 20.212 12.0758 20.5092 12.0758C20.5092 12.04 20.5092 12.0042 20.5092 11.9673Z" fill="#603627"/>
<path d="M21.092 20.5436C21.4526 20.5973 21.4526 20.5973 21.8205 20.6521C21.8685 20.7596 21.9166 20.8671 21.9662 20.9778C21.8219 21.0137 21.6777 21.0495 21.5291 21.0864C21.5325 21.161 21.5358 21.2356 21.5393 21.3124C21.542 21.4102 21.5446 21.5081 21.5473 21.6088C21.5507 21.7058 21.5541 21.8028 21.5575 21.9027C21.5291 22.172 21.5291 22.172 21.2377 22.4977C21.1896 21.8528 21.1415 21.208 21.092 20.5436Z" fill="#17181A"/>
<path d="M21.2377 20.4348C21.9003 20.4155 22.3857 20.4351 22.986 20.6519C22.986 20.8311 22.986 21.0102 22.986 21.1948C22.6014 21.1589 22.2167 21.1231 21.8205 21.0862C21.8054 21.019 21.7904 20.9518 21.7749 20.8826C21.6929 20.6123 21.6929 20.6123 21.2377 20.4348Z" fill="#17181A"/>
<path d="M14.8273 27.6001C15.1158 27.6538 15.1158 27.6538 15.4101 27.7087C15.362 27.9236 15.3139 28.1386 15.2644 28.36C15.3605 28.3959 15.4567 28.4317 15.5558 28.4686C15.5558 28.5761 15.5558 28.6835 15.5558 28.7943C15.3635 28.7943 15.1712 28.7943 14.973 28.7943C14.5671 28.3405 14.7114 28.127 14.8273 27.6001Z" fill="#C77F04"/>
<path d="M30.1248 23.4747C30.221 23.4747 30.3171 23.4747 30.4162 23.4747C30.4446 24.132 30.4446 24.132 30.4162 24.3432C30.32 24.4149 30.2239 24.4865 30.1248 24.5603C29.7424 24.5196 29.7424 24.5196 29.3963 24.4518C29.4444 24.3443 29.4925 24.2368 29.542 24.1261C29.6382 24.0903 29.7343 24.0545 29.8334 24.0175C29.9385 23.8391 30.0364 23.6581 30.1248 23.4747Z" fill="#C77F04"/>
<path d="M11.4764 11.9673C11.7284 11.9643 11.9803 11.9622 12.2322 11.9605C12.3725 11.9592 12.5128 11.958 12.6573 11.9567C13.058 11.9667 13.4177 12.0084 13.8075 12.0758C13.5161 12.293 13.5161 12.293 13.0733 12.3142C12.9009 12.3116 12.7285 12.3091 12.5509 12.3065C12.3778 12.3046 12.2046 12.3026 12.0262 12.3006C11.8929 12.2981 11.7595 12.2955 11.6221 12.293C11.5741 12.1855 11.526 12.078 11.4764 11.9673Z" fill="#643B2C"/>
<path d="M20.5092 10.8816C21.2725 10.8474 21.7517 10.9024 22.4032 11.2073C22.5475 11.3685 22.5475 11.3685 22.6946 11.5329C22.1528 11.4779 21.7134 11.4118 21.2377 11.2073C21.2858 11.1714 21.3339 11.1356 21.3834 11.0987C20.9507 11.045 20.9507 11.045 20.5092 10.9901C20.5092 10.9543 20.5092 10.9185 20.5092 10.8816Z" fill="#38241B"/>
<path d="M24.1515 8.05896C24.8435 8.14038 24.8435 8.14038 25.1713 8.38465C25.1679 8.71457 25.1679 8.71457 25.1167 9.10387C25.1006 9.23289 25.0844 9.36192 25.0678 9.49486C25.0539 9.59422 25.04 9.69358 25.0256 9.79595C24.9776 9.79595 24.9295 9.79595 24.88 9.79595C24.8743 9.66244 24.8743 9.66244 24.8686 9.52624C24.8603 9.40925 24.852 9.29226 24.8435 9.17172C24.8368 9.05585 24.83 8.93997 24.823 8.82059C24.7188 8.43631 24.5513 8.30444 24.1515 8.05896Z" fill="#962C20"/>
<path d="M11.4764 20.6522C11.7649 20.7239 12.0534 20.7955 12.3506 20.8693C12.3506 20.941 12.3506 21.0126 12.3506 21.0865C12.2544 21.0865 12.1583 21.0865 12.0592 21.0865C12.0592 21.4089 12.0592 21.7313 12.0592 22.0635C12.0111 22.0635 11.9631 22.0635 11.9135 22.0635C11.9135 21.7769 11.9135 21.4903 11.9135 21.195C11.7212 21.1592 11.5289 21.1234 11.3308 21.0865C11.3788 20.9432 11.4269 20.7999 11.4764 20.6522Z" fill="#17181A"/>
<path d="M13.6618 23.5834C14.2514 23.662 14.8114 23.7825 15.3828 23.9158C15.6366 23.9748 15.6366 23.9748 15.8955 24.035C16.0879 24.0801 16.0879 24.0801 16.2842 24.1262C16.2842 24.2337 16.2842 24.3411 16.2842 24.4519C15.3803 24.2417 14.5202 23.9898 13.6618 23.6919C13.6618 23.6561 13.6618 23.6203 13.6618 23.5834Z" fill="#17181A"/>
<path d="M21.3834 11.3159C22.0754 11.3973 22.0754 11.3973 22.4032 11.6416C21.6349 11.9915 21.6349 11.9915 21.3834 12.0759C21.2872 12.04 21.1911 12.0042 21.092 11.9673C21.1882 11.7523 21.2843 11.5374 21.3834 11.3159Z" fill="#C9C2BB"/>
<path d="M11.7678 11.2073C11.9621 11.4968 12.1563 11.7863 12.3506 12.0758C11.8005 11.9574 11.4079 11.8686 11.0394 11.533C11.2798 11.4255 11.5202 11.318 11.7678 11.2073Z" fill="#C9BFB4"/>
<path d="M20.2179 26.7317C20.314 26.7317 20.4102 26.7317 20.5092 26.7317C20.5092 26.875 20.5092 27.0183 20.5092 27.1659C20.6054 27.2018 20.7016 27.2376 20.8006 27.2745C20.4641 27.4536 20.1275 27.6328 19.7808 27.8173C19.6846 27.7815 19.5885 27.7457 19.4894 27.7087C19.5826 27.6483 19.6757 27.5878 19.7717 27.5255C20.1008 27.2505 20.1642 27.0917 20.2179 26.7317Z" fill="#C77F04"/>
<path d="M12.2049 10.8817C12.1087 10.8817 12.0126 10.8817 11.9135 10.8817C11.9015 10.9489 11.8895 11.0161 11.8771 11.0853C11.7678 11.316 11.7678 11.316 11.4947 11.4517C11.1851 11.5331 11.1851 11.5331 10.748 11.5331C11.0096 11.0191 11.4648 10.6979 12.2049 10.8817Z" fill="#43261B"/>
<path d="M24.4429 12.4015C24.539 12.4373 24.6352 12.4731 24.7343 12.5101C24.7798 12.8154 24.7798 12.8154 24.7343 13.1614C24.37 13.365 24.37 13.365 24.0058 13.4871C24.0507 13.3264 24.0964 13.1659 24.1424 13.0054C24.1678 12.9159 24.1931 12.8265 24.2192 12.7344C24.2972 12.5101 24.2972 12.5101 24.4429 12.4015Z" fill="#673828"/>
<path d="M15.9928 15.6583C16.3236 15.6524 16.6545 15.6482 16.9854 15.6447C17.1696 15.6422 17.3538 15.6397 17.5436 15.6371C18.0325 15.6583 18.0325 15.6583 18.4696 15.8754C18.3678 15.8742 18.266 15.8729 18.1611 15.8716C18.0285 15.8706 17.8959 15.8696 17.7593 15.8686C17.6275 15.8674 17.4957 15.8661 17.3598 15.8648C17.0102 15.8578 17.0102 15.8578 16.7213 15.984C16.3389 15.8822 16.3389 15.8822 15.9928 15.7669C15.9928 15.731 15.9928 15.6952 15.9928 15.6583Z" fill="#6A3D2D"/>
<path d="M14.8273 15.8755C14.7792 15.9472 14.7312 16.0188 14.6816 16.0926C14.4412 16.0926 14.2009 16.0926 13.9532 16.0926C14.0013 16.2001 14.0493 16.3076 14.0989 16.4183C13.8104 16.5258 13.8104 16.5258 13.5161 16.6354C13.5161 16.4563 13.5161 16.2772 13.5161 16.0926C13.9728 15.891 14.2992 15.8537 14.8273 15.8755Z" fill="#633728"/>
<path d="M13.3704 11.3159C13.6192 11.4549 13.8619 11.6001 14.0989 11.7502C14.0989 11.8218 14.0989 11.8935 14.0989 11.9673C13.7623 12.0031 13.4258 12.0389 13.079 12.0759C13.1752 11.8251 13.2714 11.5743 13.3704 11.3159Z" fill="#C3BEBA"/>
<path d="M19.7808 11.3159C20.0722 11.723 20.0722 11.723 20.0722 11.9673C19.7356 11.9673 19.3991 11.9673 19.0523 11.9673C19.2927 11.7523 19.5331 11.5374 19.7808 11.3159Z" fill="#C2B7AB"/>
<path d="M19.9265 10.9902C20.0226 11.0261 20.1188 11.0619 20.2179 11.0988C20.1698 11.1704 20.1217 11.2421 20.0722 11.3159C20.3126 11.3159 20.5529 11.3159 20.8006 11.3159C20.8006 11.3876 20.8006 11.4592 20.8006 11.533C20.6414 11.5129 20.4821 11.4927 20.318 11.472C19.7901 11.3965 19.7901 11.3965 19.3437 11.533C19.4894 11.2074 19.4894 11.2074 19.9265 10.9902Z" fill="#39312E"/>
<path d="M2.73503 23.6919C2.92734 23.7277 3.11965 23.7635 3.31779 23.8005C3.26971 23.9438 3.22164 24.0871 3.1721 24.2347C2.93171 24.1989 2.69132 24.1631 2.44365 24.1261C2.5398 23.9828 2.63596 23.8395 2.73503 23.6919Z" fill="#C77F04"/>
<path d="M14.973 31.1826C15.0692 31.1826 15.1653 31.1826 15.2644 31.1826C15.3125 31.3976 15.3606 31.6125 15.4101 31.834C15.2178 31.834 15.0255 31.834 14.8273 31.834C14.8211 31.6531 14.8214 31.4721 14.8273 31.2912C14.8754 31.2554 14.9235 31.2195 14.973 31.1826Z" fill="#C77F04"/>
<path d="M8.56263 12.4015C8.85269 12.7257 8.99114 13.0091 9.14539 13.3785C8.86311 13.3039 8.86311 13.3039 8.56263 13.1614C8.42629 12.8488 8.36267 12.6995 8.56263 12.4015Z" fill="#6A3727"/>
<path d="M10.3109 20.9779C10.5513 20.9779 10.7917 20.9779 11.0394 20.9779C10.9913 21.157 10.9432 21.3362 10.8937 21.5207C10.7014 21.4849 10.5091 21.4491 10.3109 21.4122C10.3109 21.2689 10.3109 21.1255 10.3109 20.9779Z" fill="#17181A"/>
<path d="M11.0394 20.5437C12.1685 20.5301 12.1685 20.5301 12.4963 20.6522C12.4482 20.7597 12.4001 20.8672 12.3506 20.9779C11.9135 20.8693 11.4764 20.7608 11.0394 20.6522C11.0394 20.6164 11.0394 20.5806 11.0394 20.5437Z" fill="#17181A"/>
<path d="M9.43678 12.0758C9.48486 12.0758 9.53294 12.0758 9.58247 12.0758C9.58247 12.5057 9.58247 12.9356 9.58247 13.3785C9.43824 13.2711 9.29401 13.1636 9.1454 13.0529C9.18182 12.8493 9.18182 12.8493 9.29109 12.6186C9.34071 12.4378 9.38952 12.2569 9.43678 12.0758Z" fill="#5D3425"/>
<path d="M4.92039 28.9028C5.16078 29.082 5.40116 29.2611 5.64884 29.4456C5.55268 29.5173 5.45653 29.5889 5.35746 29.6628C5.16515 29.5195 4.97284 29.3762 4.7747 29.2285C4.82277 29.121 4.87085 29.0136 4.92039 28.9028Z" fill="#17181A"/>
<path d="M22.5489 20.6522C22.6931 20.6522 22.8374 20.6522 22.986 20.6522C22.986 20.8313 22.986 21.0105 22.986 21.195C22.7937 21.1592 22.6014 21.1234 22.4032 21.0865C22.4513 20.9432 22.4994 20.7999 22.5489 20.6522Z" fill="#17181A"/>
<path d="M13.6618 11.2073C13.9022 11.3148 14.1426 11.4222 14.3903 11.533C14.3422 11.6404 14.2941 11.7479 14.2446 11.8586C14.0042 11.6795 13.7638 11.5004 13.5161 11.3158C13.5642 11.28 13.6123 11.2442 13.6618 11.2073Z" fill="#49271E"/>
<path d="M12.0592 11.2073C12.2034 11.2073 12.3477 11.2073 12.4963 11.2073C12.4963 11.3148 12.4963 11.4222 12.4963 11.533C12.6405 11.5688 12.7847 11.6046 12.9334 11.6415C12.6449 11.6773 12.3564 11.7132 12.0592 11.7501C12.0592 11.571 12.0592 11.3918 12.0592 11.2073Z" fill="#090A08"/>
<path d="M22.2575 9.68738C22.6395 9.80123 22.8102 9.86643 23.0224 10.1352C23.0585 10.2024 23.0945 10.2695 23.1317 10.3387C22.7951 10.2313 22.4586 10.1238 22.1118 10.0131C22.1599 9.90559 22.208 9.79811 22.2575 9.68738Z" fill="#261C16"/>
</g>
</g>
<defs>
<clipPath id="clip0_0_1">
<rect width="1440" height="2580" fill="white" transform="translate(-1092 -26)"/>
</clipPath>
<clipPath id="clip1_0_1">
<rect x="0.75" width="32" height="32" rx="16" fill="white"/>
</clipPath>
</defs>
</svg>
