<svg width="25" height="24" viewBox="0 0 25 24" fill="none" xmlns="http://www.w3.org/2000/svg">
<ellipse cx="12.5" cy="16.5" rx="6" ry="2.5" stroke="white" stroke-width="1.5" stroke-linejoin="round"/>
<circle cx="12.5" cy="8" r="3" stroke="white" stroke-width="1.5" stroke-linejoin="round"/>
<path d="M6.94824 13.2617C6.03677 13.7561 5.33404 14.3707 4.91992 15.0605C4.67335 15.1264 4.44663 15.2008 4.24316 15.2822C3.84315 15.4422 3.56939 15.6142 3.4082 15.7666C3.25146 15.9149 3.25 15.9941 3.25 16C3.25 16.0035 3.24886 16.0826 3.4082 16.2334C3.56936 16.3858 3.84309 16.5577 4.24316 16.7178C4.33148 16.7531 4.4247 16.7858 4.52148 16.8184C4.59993 17.4497 4.90927 18.0443 5.40332 18.5771C4.76774 18.468 4.1857 18.3104 3.68555 18.1104C3.18108 17.9085 2.72267 17.6492 2.37793 17.3232C2.03154 16.9956 1.75 16.5488 1.75 16C1.75008 15.4513 2.03154 15.0043 2.37793 14.6768C2.72267 14.3508 3.18111 14.0915 3.68555 13.8896C4.56941 13.5361 5.70855 13.3131 6.94824 13.2617Z" fill="white"/>
<path d="M18.0518 13.2617C19.2914 13.3131 20.4306 13.5361 21.3145 13.8896C21.8189 14.0914 22.2773 14.3508 22.6221 14.6768C22.9685 15.0043 23.2499 15.4513 23.25 16C23.25 16.5488 22.9685 16.9956 22.6221 17.3232C22.2773 17.6492 21.819 17.9085 21.3145 18.1104C20.814 18.3105 20.2317 18.468 19.5957 18.5771C20.09 18.0442 20.399 17.4499 20.4775 16.8184C20.5747 16.7857 20.6682 16.7532 20.7568 16.7178C21.157 16.5577 21.4306 16.3858 21.5918 16.2334C21.7512 16.0826 21.75 16.0035 21.75 16C21.75 15.9941 21.7485 15.9149 21.5918 15.7666C21.4306 15.6142 21.1568 15.4422 20.7568 15.2822C20.5531 15.2008 20.326 15.1265 20.0791 15.0605C19.6649 14.3708 18.9631 13.756 18.0518 13.2617Z" fill="white"/>
<path d="M17.4995 6.25C19.0183 6.25 20.2495 7.48122 20.2495 9C20.2495 10.5188 19.0183 11.75 17.4995 11.75C17.0139 11.7499 16.5586 11.6223 16.1626 11.4014C16.5057 11.0321 16.7935 10.6114 17.0132 10.1514C17.1627 10.2146 17.327 10.25 17.4995 10.25C18.1899 10.25 18.7495 9.69036 18.7495 9C18.7495 8.30964 18.1899 7.75 17.4995 7.75C17.4976 7.75 17.4956 7.74999 17.4937 7.75C17.4681 7.23137 17.3627 6.73384 17.1909 6.26855C17.2923 6.25722 17.3951 6.25001 17.4995 6.25Z" fill="white"/>
<path d="M7.5 6.25C7.60405 6.25 7.70657 6.2573 7.80762 6.26855C7.63591 6.73372 7.53139 7.23152 7.50586 7.75C7.50391 7.74999 7.50195 7.75 7.5 7.75C6.80964 7.75 6.25 8.30964 6.25 9C6.25 9.69036 6.80964 10.25 7.5 10.25C7.67225 10.25 7.83604 10.2144 7.98535 10.1514C8.20493 10.6113 8.49302 11.0321 8.83594 11.4014C8.44011 11.622 7.98536 11.75 7.5 11.75C5.98122 11.75 4.75 10.5188 4.75 9C4.75 7.48122 5.98122 6.25 7.5 6.25Z" fill="white"/>
</svg>
