<svg width="25" height="24" viewBox="0 0 25 24" fill="none" xmlns="http://www.w3.org/2000/svg">
<path d="M19.0588 19.5488C18.0654 16.8918 15.5036 15 12.5 15C9.49638 15 6.9346 16.8918 5.94117 19.5488M19.0588 19.5488C21.1672 17.7154 22.5 15.0134 22.5 12C22.5 6.47715 18.0228 2 12.5 2C6.97715 2 2.5 6.47715 2.5 12C2.5 15.0134 3.83285 17.7154 5.94117 19.5488M19.0588 19.5488C17.3031 21.0756 15.0095 22 12.5 22C9.99052 22 7.69694 21.0756 5.94117 19.5488" stroke="white" stroke-width="1.5" stroke-linejoin="round"/>
<circle cx="3" cy="3" r="3" transform="matrix(1 0 0 -1 9.5 12)" stroke="white" stroke-width="1.5" stroke-linejoin="round"/>
</svg>
